<svg xmlns="http://www.w3.org/2000/svg" xmlns:v="http://schemas.microsoft.com/visio/2003/SVGExtensions/" width=".264in" height=".325in" viewBox="0 0 19.0429 23.4336" color-interpolation-filters="sRGB" class="st2"><v:documentProperties v:langID="1033" v:metric="true" v:viewMarkup="false"/><style type="text/css"><![CDATA[
		.st1 {fill:#000000;stroke:none;stroke-linecap:butt;stroke-width:0.0286625}
		.st2 {fill:none;fill-rule:evenodd;font-size:12px;overflow:visible;stroke-linecap:square;stroke-miterlimit:3}
	]]></style><g v:mID="0" v:index="1" v:groupContext="foregroundPage"><title>Page-1</title><v:pageProperties v:drawingScale=".039" v:pageScale=".039" v:drawingUnits="24" v:shadowOffsetX="8.504" v:shadowOffsetY="-8.504"/><g id="shape90-1" v:mID="90" v:groupContext="shape" transform="translate(.029 -.029)"><title>Chief nurse</title><path d="M11.6 8.63H4.21v2.75c0 1.73.94 2.82 2.15 3.3.48.18 1 .28 1.54.28.52 0 1.06-.1 1.55-.28 1.21-.48 2.15-1.57 2.15-3.3V8.63zm3.18 7.38l1.36 2.37 2.85.45-2 1.94.39 2.63-2.6-1.18-2.61 1.18.4-2.63-2-1.94 2.84-.45 1.37-2.37zM9.51 4.39v1.06H8.45v1.06H7.39V5.45H6.33V4.39h1.06V3.33h1.06v1.06h1.06zM2.66 6.48l-.54-1.85-.09-.36.3-.22L7.6.27l.3-.21.31.21 5.26 3.78.31.22-.09.36-.55 1.85c.27.51.52 1.06.73 1.6l1.94 4.76-3.82 1.03-.06.12c.67.12 1.3.39 1.85.81-.15.12-.28.28-.37.43l-.24.42c-.36-.27-.79-.48-1.24-.57-1.21 1.36-2.39 2.69-3.6 4.02l-.4.43-.39-.43-3.6-4.02c-.7.15-1.31.54-1.79 1.06-.67.72-1.09 1.72-1.09 2.81v4.48H0v-4.48c0-1.36.51-2.63 1.36-3.54.67-.73 1.55-1.24 2.52-1.42l-.06-.12L0 12.84l1.94-4.76c.21-.54.45-1.09.72-1.6zm7.36 9.08c-.06.03-.12.06-.21.09-.6.24-1.27.36-1.91.36-.66 0-1.3-.12-1.9-.36-.07-.03-.16-.06-.22-.09l2.12 2.36 2.12-2.36zM4.06 7.57h7.66l.85-2.88L7.9 1.33 3.24 4.69l.85 2.88h-.03z" class="st1"/></g></g></svg>