<svg xmlns="http://www.w3.org/2000/svg" xmlns:v="http://schemas.microsoft.com/visio/2003/SVGExtensions/" width=".26in" height=".326in" viewBox="0 0 18.7182 23.4755" color-interpolation-filters="sRGB" class="st2"><v:documentProperties v:langID="1033" v:metric="true" v:viewMarkup="false"/><style type="text/css"><![CDATA[
		.st1 {fill:#000000;stroke:none;stroke-linecap:butt;stroke-width:0.0286625}
		.st2 {fill:none;fill-rule:evenodd;font-size:12px;overflow:visible;stroke-linecap:square;stroke-miterlimit:3}
	]]></style><g v:mID="0" v:index="1" v:groupContext="foregroundPage"><title>Page-1</title><v:pageProperties v:drawingScale=".039" v:pageScale=".039" v:drawingUnits="24" v:shadowOffsetX="8.504" v:shadowOffsetY="-8.504"/><g id="shape84-1" v:mID="84" v:groupContext="shape" transform="translate(.029 -.029)"><title>Doctor 3</title><path d="M6.5.69C7.37.26 8.34.06 9.31.06c6.34 0 5.33 6.33 8.45 11.42-.54.71-1.78 1.14-3.92 1.24 2.88 1.24 4.82 3.72 4.82 7.1v3.62h-1.17v-3.62c0-2.81-1.58-4.92-4.12-6.03l-.2-.1c-.1.14-.24.24-.37.37v5.96c.67.24 1.17.91 1.17 1.65 0 .97-.77 1.74-1.74 1.74s-1.74-.77-1.74-1.74c0-.77.5-1.41 1.17-1.65v-5.19c-1.44.67-3.25.67-4.69 0v1.68c.57.13 1.07.4 1.47.8.54.54.87 1.27.87 2.08v2.91H8.14v-2.91c0-.47-.2-.91-.5-1.24-.17-.17-.4-.34-.64-.4v.03H5.83v-.03c-.24.1-.47.23-.67.4-.3.3-.5.77-.5 1.24v2.91H3.48v-2.91c0-.81.34-1.54.88-2.08.4-.4.9-.67 1.47-.8v-2.45c-.13-.1-.24-.23-.34-.33l-.2.1c-2.54 1.1-4.12 3.21-4.12 6.03v3.62H0v-3.62c0-3.39 1.94-5.87 4.82-7.11-2.51-.13-3.55-.6-3.92-1.23C3.48 7.33 3.22 2.37 6.53.76L6.5.69zM4.82 9.04l-.26-1.85c-.07-.37-.07-.73-.07-1.07 1.34.6 3.05.97 4.92.97 1.85 0 3.52-.33 4.83-.94 0 .34-.03.67-.07 1.04l-.27 1.85c-.2 1.3-.6 2.61-1.37 3.71-1.37 1.91-4.96 1.88-6.3-.06-.77-1.11-1.14-2.31-1.34-3.62l-.07-.03z" class="st1"/></g></g></svg>