<svg xmlns="http://www.w3.org/2000/svg" xmlns:v="http://schemas.microsoft.com/visio/2003/SVGExtensions/" width=".26in" height=".325in" viewBox="0 0 18.7182 23.4336" color-interpolation-filters="sRGB" class="st2"><v:documentProperties v:langID="1033" v:metric="true" v:viewMarkup="false"/><style type="text/css"><![CDATA[
		.st1 {fill:#000000;stroke:none;stroke-linecap:butt;stroke-width:0.0286625}
		.st2 {fill:none;fill-rule:evenodd;font-size:12px;overflow:visible;stroke-linecap:square;stroke-miterlimit:3}
	]]></style><g v:mID="0" v:index="1" v:groupContext="foregroundPage"><title>Page-1</title><v:pageProperties v:drawingScale=".039" v:pageScale=".039" v:drawingUnits="24" v:shadowOffsetX="8.504" v:shadowOffsetY="-8.504"/><g id="shape85-1" v:mID="85" v:groupContext="shape" transform="translate(.029 -.029)"><title>Doctor 4</title><path d="M14.31 12.93c2.61 1.31 4.35 3.68 4.35 6.89v3.61h-1.17v-3.61c0-2.77-1.54-4.85-4.01-5.98-.2.16-.44.33-.67.46v5.72c.67.24 1.17.91 1.17 1.64 0 .97-.77 1.74-1.74 1.74s-1.74-.77-1.74-1.74c0-.77.5-1.4 1.17-1.64v-5.15c-.13.04-.27.1-.4.14-1.17.43-2.54.43-3.75.03-.16-.03-.36-.1-.53-.17v1.61c.57.13 1.07.4 1.47.8.54.54.87 1.27.87 2.07v2.91H8.16v-2.91c0-.46-.2-.9-.5-1.23-.3-.3-.74-.51-1.21-.51h-.06c-.47 0-.91.21-1.21.51-.3.3-.5.77-.5 1.23v2.91H3.51v-2.91c0-.8.34-1.53.87-2.07.4-.4.9-.67 1.47-.8V14.3c-.23-.13-.47-.3-.67-.46-2.47 1.1-4.01 3.21-4.01 5.98v3.61H0v-3.61c0-3.18 1.74-5.58 4.35-6.89-.54-.77-.84-1.7-.84-2.81V5.21c0-2.48 1.54-4.05 3.48-4.75.74-.27 1.54-.4 2.34-.4.8 0 1.61.13 2.34.4 1.97.7 3.48 2.27 3.48 4.75v4.91c0 1.11-.3 2.04-.84 2.81zM8.63 7.08H10c.1-.23.23-.47.4-.67.3-.3.77-.5 1.24-.5h1.74c.2 0 .4.03.57.1v-.8c0-1.91-1.21-3.11-2.71-3.65-.61-.2-1.27-.33-1.94-.33-.67 0-1.34.1-1.94.33-1.54.54-2.71 1.74-2.71 3.65v.8c.17-.07.37-.1.57-.1h1.74c.46 0 .93.2 1.23.5.17.17.34.4.4.67h.04zM9.9 8.25H8.73v.57c0 .47-.2.94-.5 1.24-.3.3-.77.5-1.24.5H5.25c-.2 0-.4-.04-.57-.1.14 1.67 1.27 2.77 2.71 3.28.6.2 1.27.33 1.94.33.67 0 1.34-.1 1.94-.33 1.44-.51 2.54-1.61 2.71-3.28-.17.06-.37.1-.57.1h-1.74c-.47 0-.93-.2-1.24-.5-.3-.3-.5-.77-.5-1.24v-.57H9.9zm3.51-1.17h-1.74c-.17 0-.3.07-.4.17-.1.1-.17.23-.17.4v1.14c0 .16.07.3.17.4.1.1.27.16.4.16h1.74c.17 0 .3-.06.4-.16.1-.1.17-.27.17-.4V7.62c0-.17-.07-.31-.17-.41-.1-.1-.27-.16-.4-.16v.03zm-6.42 0H5.25c-.17 0-.3.07-.4.17-.1.1-.17.2-.17.37v1.27c0 .13.07.26.17.36.1.1.27.17.4.17h1.74c.17 0 .3-.07.4-.17.1-.1.17-.26.17-.4V7.72c0-.17-.07-.31-.17-.41-.1-.1-.27-.16-.4-.16v-.07z" class="st1"/></g></g></svg>