<svg xmlns="http://www.w3.org/2000/svg" xmlns:v="http://schemas.microsoft.com/visio/2003/SVGExtensions/" width=".345in" height=".276in" viewBox="0 0 24.8124 19.9041" color-interpolation-filters="sRGB" class="st2"><v:documentProperties v:langID="1033" v:metric="true" v:viewMarkup="false"/><style type="text/css"><![CDATA[
		.st1 {fill:#000000;stroke:none;stroke-linecap:butt;stroke-width:0.0286625}
		.st2 {fill:none;fill-rule:evenodd;font-size:12px;overflow:visible;stroke-linecap:square;stroke-miterlimit:3}
	]]></style><g v:mID="0" v:index="1" v:groupContext="foregroundPage"><title>Page-1</title><v:pageProperties v:drawingScale=".039" v:pageScale=".039" v:drawingUnits="24" v:shadowOffsetX="8.504" v:shadowOffsetY="-8.504"/><g id="shape99-1" v:mID="99" v:groupContext="shape" transform="translate(.029 -.029)"><title>Hospital post office</title><path d="M9.89 9.95H1.21v.32l6.83 5.15 1.85-1.38V9.95zM7.4.06h3.73v2.49H7.4v1.24h13.02c2.38 0 4.34 1.96 4.34 4.34V19.9H0V8.74h2.45v-.61c0-2.17 1.64-3.98 3.74-4.3V.06h1.24-.03zM1.21 18.02l4.05-3.17-4.05-3.06v6.23zm5.09-2.38l-3.88 3.02h7.5v-3.1L8.43 16.7l-.39.29-.36-.29-1.38-1.03v-.03zm14.79-4.41v2.49H18.6v2.49h-2.49v-2.49h-2.49v-2.49h2.49V8.74h2.49v2.49h2.49zM9.92 8.7v-.6C9.92 6.39 8.54 5 6.83 5s-3.1 1.39-3.1 3.1v.6h6.19zm1.25 9.96h12.41V8.1c0-1.71-1.39-3.1-3.09-3.1H9.85c.86.82 1.32 1.92 1.32 3.1V18.66z" class="st1"/></g></g></svg>