<svg xmlns="http://www.w3.org/2000/svg" xmlns:v="http://schemas.microsoft.com/visio/2003/SVGExtensions/" width=".345in" height=".23in" viewBox="0 0 24.8124 16.572" color-interpolation-filters="sRGB" class="st2"><v:documentProperties v:langID="1033" v:metric="true" v:viewMarkup="false"/><style type="text/css"><![CDATA[
		.st1 {fill:#000000;stroke:none;stroke-linecap:butt;stroke-width:0.0286625}
		.st2 {fill:none;fill-rule:evenodd;font-size:12px;overflow:visible;stroke-linecap:square;stroke-miterlimit:3}
	]]></style><g v:mID="0" v:index="1" v:groupContext="foregroundPage"><title>Page-1</title><v:pageProperties v:drawingScale=".039" v:pageScale=".039" v:drawingUnits="24" v:shadowOffsetX="8.504" v:shadowOffsetY="-8.504"/><g id="shape95-1" v:mID="95" v:groupContext="shape" transform="translate(.029 -.029)"><title>Hospital 1</title><path d="M22.39.06v15.33h2.37v1.18H0v-1.18h2.36V.06h20.03zm-9.42 2.36V3.6h1.18v1.19h-1.18v1.18h-1.18V4.79H10.6V3.6h1.19V2.42h1.18zM3.55 7.15h17.66V1.27H3.55v5.88zm17.66 1.18H3.55v7.06h5.87V9.51h5.88v5.88h5.88V8.33h.03zm-8.24 2.37v4.72h1.18V10.7h-1.18zm-1.18 4.72V10.7H10.6v4.72h1.19zm8.24-5.87v3.54h-3.55V9.55h3.55zm-1.19 1.18h-1.18v1.18h1.18v-1.18zM8.24 9.55v3.54H4.69V9.55h3.55zm-1.18 1.18H5.88v1.18h1.18v-1.18zm10.03-8.24h2.94V6h-3.52V2.49h.58zm1.75 1.18h-1.18v1.18h1.18V3.67zM5.3 2.49h2.94V6H4.73V2.49h.57zm1.76 1.18H5.88v1.18h1.18V3.67z" class="st1"/></g></g></svg>