<svg xmlns="http://www.w3.org/2000/svg" xmlns:v="http://schemas.microsoft.com/visio/2003/SVGExtensions/" width=".345in" height=".272in" viewBox="0 0 24.8124 19.6146" color-interpolation-filters="sRGB" class="st2"><v:documentProperties v:langID="1033" v:metric="true" v:viewMarkup="false"/><style type="text/css"><![CDATA[
		.st1 {fill:#000000;stroke:none;stroke-linecap:butt;stroke-width:0.0286625}
		.st2 {fill:none;fill-rule:evenodd;font-size:12px;overflow:visible;stroke-linecap:square;stroke-miterlimit:3}
	]]></style><g v:mID="0" v:index="1" v:groupContext="foregroundPage"><title>Page-1</title><v:pageProperties v:drawingScale=".039" v:pageScale=".039" v:drawingUnits="24" v:shadowOffsetX="8.504" v:shadowOffsetY="-8.504"/><g id="shape97-1" v:mID="97" v:groupContext="shape" transform="translate(.029 -.029)"><title>Hospital 3</title><path d="M6.51 3.95V.06H18.21V3.95h5.24V17h1.31v1.31h-6.51v1.3H6.51v-1.3H0V17h1.31V3.95h5.23-.03zm6.5 10.43v3.93h1.31v-3.93h-1.31zm-1.31 3.93v-3.93h-1.3v3.93h1.3zm3.93-5.24v5.24h1.31V1.33H7.82v16.98h1.3v-5.24h6.51zm-1.31-5.23h1.31v2.61h-1.31V7.84zm-2.62 0h1.31v2.61H11.7V7.84zm-2.61 0h1.31v2.61H9.09V7.84zm3.92-5.24v1.31h1.31v1.31h-1.31v1.31H11.7V5.22h-1.3V3.91h1.3V2.6h1.31zm-6.5 2.62H2.58v11.74h3.93V5.22zm11.74 0v11.74h3.92V5.22h-3.92zm1.31 6.5h1.31v2.62h-1.31v-2.62zm0-5.23h1.31v2.62h-1.31V6.49zM3.89 11.72H5.2v2.62H3.89v-2.62zm0-5.23H5.2v2.62H3.89V6.49z" class="st1"/></g></g></svg>