<svg xmlns="http://www.w3.org/2000/svg" xmlns:v="http://schemas.microsoft.com/visio/2003/SVGExtensions/" width=".223in" height=".328in" viewBox="0 0 16.0373 23.6004" color-interpolation-filters="sRGB" class="st2"><v:documentProperties v:langID="1033" v:metric="true" v:viewMarkup="false"/><style type="text/css"><![CDATA[
		.st1 {fill:#000000;stroke:none;stroke-linecap:butt;stroke-width:0.0286625}
		.st2 {fill:none;fill-rule:evenodd;font-size:12px;overflow:visible;stroke-linecap:square;stroke-miterlimit:3}
	]]></style><g v:mID="0" v:index="1" v:groupContext="foregroundPage"><title>Page-1</title><v:pageProperties v:drawingScale=".039" v:pageScale=".039" v:drawingUnits="24" v:shadowOffsetX="8.504" v:shadowOffsetY="-8.504"/><g id="shape86-1" v:mID="86" v:groupContext="shape" transform="translate(.029 -.029)"><title>Nurse 1</title><path d="M.06 23.6v-4.51c0-1.38.52-2.66 1.37-3.57.67-.73 1.56-1.25 2.53-1.43l-.06-.13-3.84-1.03 1.95-4.79c.22-.55.46-1.1.73-1.62L2.2 4.66l-.1-.36.31-.22L7.72.27l.3-.21.31.21 5.3 3.81.31.22-.09.36-.55 1.86c.27.52.51 1.07.73 1.62l1.95 4.79-3.84 1.03-.06.13c.97.18 1.86.7 2.53 1.43.85.91 1.37 2.16 1.37 3.57v4.51h-1.07v-4.51c0-1.1-.42-2.11-1.1-2.84-.48-.52-1.09-.88-1.79-1.07l-3.63 4.06-.4.43-.4-.43-3.63-4.06c-.7.16-1.31.55-1.79 1.07-.68.73-1.1 1.74-1.1 2.84v4.51H0h.06zM9.64 4.45v1.07H8.57v1.06H7.5V5.52H6.43V4.45H7.5V3.38h1.07v1.07h1.07zM4.33 8.72v2.77c0 1.74.95 2.84 2.17 3.33.48.18 1 .27 1.55.27.52 0 1.07-.09 1.56-.27 1.22-.49 2.16-1.59 2.16-3.33V8.72H4.33zm-.12-1.07h7.71l.86-2.9-4.7-3.38-4.69 3.38.85 2.9h-.03zm6.01 8.05l-2.14 2.38-2.13-2.38c.06.03.12.06.21.09.61.25 1.28.37 1.92.37.67 0 1.31-.12 1.92-.37.06-.03.16-.06.22-.09z" class="st1"/></g></g></svg>