<svg xmlns="http://www.w3.org/2000/svg" xmlns:v="http://schemas.microsoft.com/visio/2003/SVGExtensions/" width=".246in" height=".327in" viewBox="0 0 17.7088 23.5701" color-interpolation-filters="sRGB" class="st2"><v:documentProperties v:langID="1033" v:metric="true" v:viewMarkup="false"/><style type="text/css"><![CDATA[
		.st1 {fill:#000000;stroke:none;stroke-linecap:butt;stroke-width:0.0286625}
		.st2 {fill:none;fill-rule:evenodd;font-size:12px;overflow:visible;stroke-linecap:square;stroke-miterlimit:3}
	]]></style><g v:mID="0" v:index="1" v:groupContext="foregroundPage"><title>Page-1</title><v:pageProperties v:drawingScale=".039" v:pageScale=".039" v:drawingUnits="24" v:shadowOffsetX="8.504" v:shadowOffsetY="-8.504"/><g id="shape88-1" v:mID="88" v:groupContext="shape" transform="translate(.029 -.029)"><title>Nurse 3</title><path d="M.07 23.57v-4.99c0-1.51.57-2.93 1.51-3.94.74-.81 1.72-1.38 2.8-1.58-.51-.77-.81-1.75-.81-2.9V5.92c0-3.4 1.65-5.86 5.29-5.86h.4c3.47.23 4.89 2.66 4.89 5.86v4.24c0 1.15-.31 2.13-.81 2.9 1.08.2 2.05.77 2.8 1.58.94 1.01 1.51 2.4 1.51 3.94v4.99h-1.18v-4.99c0-1.21-.47-2.32-1.21-3.13-.54-.57-1.21-.98-1.99-1.18l-4.01 4.48-.43.47-.44-.47-4.01-4.48c-.78.17-1.45.61-1.99 1.18-.74.81-1.21 1.92-1.21 3.13v4.99H0h.07zm14.11-2.36v1.18H13v1.18h-1.18v-1.18h-1.18v-1.18h1.18v-1.18H13v1.18h1.18zM13 5.92H4.78v4.24c0 1.92 1.05 3.14 2.4 3.67.53.21 1.11.31 1.71.31.58 0 1.18-.1 1.72-.31 1.35-.53 2.39-1.75 2.39-3.67V5.92zm-6.46 8.89l2.35 2.63 2.36-2.63c-.07.04-.13.07-.23.1-.68.27-1.42.41-2.13.41-.74 0-1.45-.14-2.12-.41-.07-.03-.17-.06-.23-.1z" class="st1"/></g></g></svg>