<svg xmlns="http://www.w3.org/2000/svg" xmlns:v="http://schemas.microsoft.com/visio/2003/SVGExtensions/" width=".223in" height=".327in" viewBox="0 0 16.0373 23.5699" color-interpolation-filters="sRGB" class="st2"><v:documentProperties v:langID="1033" v:metric="true" v:viewMarkup="false"/><style type="text/css"><![CDATA[
		.st1 {fill:#000000;stroke:none;stroke-linecap:butt;stroke-width:0.0286625}
		.st2 {fill:none;fill-rule:evenodd;font-size:12px;overflow:visible;stroke-linecap:square;stroke-miterlimit:3}
	]]></style><g v:mID="0" v:index="1" v:groupContext="foregroundPage"><title>Page-1</title><v:pageProperties v:drawingScale=".039" v:pageScale=".039" v:drawingUnits="24" v:shadowOffsetX="8.504" v:shadowOffsetY="-8.504"/><g id="shape87-1" v:mID="87" v:groupContext="shape" transform="translate(.029 -.029)"><title>Nurse 2</title><path d="M5.86 15.64l2.13 2.38 2.13-2.38c-.06.03-.12.06-.21.09-.61.25-1.28.37-1.92.37-.67 0-1.31-.12-1.92-.37-.06-.03-.15-.06-.21-.09zM9.61 4.39v1.07H8.54v1.06H7.47V5.46H6.4V4.39h1.07V3.32h1.07v1.07h1.07zm2.13 4.27H4.3v2.77c0 1.74.95 2.84 2.17 3.33.48.18 1 .27 1.55.27.52 0 1.07-.09 1.56-.27 1.22-.49 2.16-1.59 2.16-3.33V8.66zM2.62 6.1L2.2 4.66l-.1-.36.31-.22L7.72.27l.3-.21.31.21 5.3 3.81.31.22-.09.36-.43 1.44c.3.64.52 1.31.61 2.04l1.07 7.99c.54.82.88 1.83.88 2.93v4.51h-1.07v-4.51c0-1.1-.42-2.11-1.1-2.84-.48-.52-1.09-.88-1.79-1.07l-3.63 4.06-.4.43-.4-.43-3.63-4.06c-.7.16-1.31.55-1.79 1.07-.68.73-1.1 1.74-1.1 2.84v4.51H0v-4.51c0-1.1.34-2.11.88-2.93l1.07-7.99c.09-.73.31-1.4.61-2.04h.06zm1.56 1.52h7.71l.86-2.9-4.7-3.38-4.7 3.38.86 2.9h-.03z" class="st1"/></g></g></svg>