<svg xmlns="http://www.w3.org/2000/svg" xmlns:v="http://schemas.microsoft.com/visio/2003/SVGExtensions/" width=".246in" height=".327in" viewBox="0 0 17.7088 23.5701" color-interpolation-filters="sRGB" class="st2"><v:documentProperties v:langID="1033" v:metric="true" v:viewMarkup="false"/><style type="text/css"><![CDATA[
		.st1 {fill:#000000;stroke:none;stroke-linecap:butt;stroke-width:0.0286625}
		.st2 {fill:none;fill-rule:evenodd;font-size:12px;overflow:visible;stroke-linecap:square;stroke-miterlimit:3}
	]]></style><g v:mID="0" v:index="1" v:groupContext="foregroundPage"><title>Page-1</title><v:pageProperties v:drawingScale=".039" v:pageScale=".039" v:drawingUnits="24" v:shadowOffsetX="8.504" v:shadowOffsetY="-8.504"/><g id="shape89-1" v:mID="89" v:groupContext="shape" transform="translate(.029 -.029)"><title>Nurse 4</title><path d="M.07 23.57v-4.99c0-1.51.57-2.93 1.51-3.94.74-.81 1.72-1.38 2.8-1.58-.51-.77-.81-1.75-.81-2.9V5.21c0-2.49 1.38-4.07 3.17-4.75.67-.27 1.41-.4 2.12-.4.74 0 1.45.13 2.12.4 1.79.71 3.17 2.29 3.17 4.75v4.95c0 1.15-.31 2.13-.81 2.9 1.08.2 2.05.77 2.8 1.58.94 1.01 1.51 2.4 1.51 3.94v4.99h-1.18v-4.99c0-1.21-.47-2.32-1.21-3.13-.54-.57-1.21-.98-1.99-1.18l-4.01 4.48-.43.47-.44-.47-4.01-4.48c-.78.17-1.45.61-1.99 1.18-.74.81-1.21 1.92-1.21 3.13v4.99H0h.07zm11.75-3.54H13v1.18h1.18v1.18H13v1.18h-1.18v-1.18h-1.18v-1.18h1.18v-1.18zm-5.28-5.18l2.35 2.62 2.36-2.62c-.07.03-.13.06-.23.1-.68.27-1.42.4-2.13.4-.74 0-1.45-.13-2.12-.4-.07-.04-.17-.07-.23-.1zM4.78 5.21v4.95c0 1.92 1.05 3.14 2.4 3.67.53.21 1.11.31 1.71.31.58 0 1.18-.1 1.72-.31 1.35-.53 2.39-1.75 2.39-3.67V5.21c0-1.92-1.04-3.13-2.39-3.67-.54-.2-1.11-.3-1.72-.3-.57 0-1.18.1-1.71.3-1.35.54-2.4 1.75-2.4 3.67z" class="st1"/></g></g></svg>