<svg xmlns="http://www.w3.org/2000/svg" xmlns:v="http://schemas.microsoft.com/visio/2003/SVGExtensions/" width=".24in" height=".33in" viewBox="0 0 17.2782 23.7284" color-interpolation-filters="sRGB" class="st2"><v:documentProperties v:langID="1033" v:metric="true" v:viewMarkup="false"/><style type="text/css"><![CDATA[
		.st1 {fill:#000000;stroke:none;stroke-linecap:butt;stroke-width:0.0286625}
		.st2 {fill:none;fill-rule:evenodd;font-size:12px;overflow:visible;stroke-linecap:square;stroke-miterlimit:3}
	]]></style><g v:mID="0" v:index="1" v:groupContext="foregroundPage"><title>Page-1</title><v:pageProperties v:drawingScale=".039" v:pageScale=".039" v:drawingUnits="24" v:shadowOffsetX="8.504" v:shadowOffsetY="-8.504"/><g id="shape103-1" v:mID="103" v:groupContext="shape" transform="translate(.029 -.029)"><title>Patient medical record 3</title><path d="M0 2.19h4.32V1.14h3.21V.06h2.16v1.08h3.21v1.05h4.32v21.54H0V2.19zm3.24 17.53l2.32-2.32.37-.37.37.37.71.71 2.83-2.84.38-.37.37.37 1.08 1.08.71.71 1.6-1.6v-1.39H3.21v5.71l.03-.06zm10.77-2.78l-1.23 1.23-.37.37-.37-.37-1.08-1.08-.71-.71-2.84 2.84-.37.37-.37-.37-.71-.71-1.95 1.95h10v-3.55.03zM3.24 12.96h10.77v-1.08H3.24v1.08zm-.52-2.16h12.37v10.74H2.19V10.8h.53zm-.53-2.16h6.45v1.08H2.19V8.64zm0-2.16h4.32v1.08H2.19V6.48zm2.16-2.16H1.11v18.3h15.06V4.32h-3.24v1.05H4.35V4.32zm7.53-2.16H5.43v2.16h6.45V2.16z" class="st1"/></g></g></svg>