<svg xmlns="http://www.w3.org/2000/svg" xmlns:v="http://schemas.microsoft.com/visio/2003/SVGExtensions/" width=".246in" height=".325in" viewBox="0 0 17.6801 23.4336" color-interpolation-filters="sRGB" class="st2"><v:documentProperties v:langID="1033" v:metric="true" v:viewMarkup="false"/><style type="text/css"><![CDATA[
		.st1 {fill:#000000;stroke:none;stroke-linecap:butt;stroke-width:0.0286625}
		.st2 {fill:none;fill-rule:evenodd;font-size:12px;overflow:visible;stroke-linecap:square;stroke-miterlimit:3}
	]]></style><g v:mID="0" v:index="1" v:groupContext="foregroundPage"><title>Page-1</title><v:pageProperties v:drawingScale=".039" v:pageScale=".039" v:drawingUnits="24" v:shadowOffsetX="8.504" v:shadowOffsetY="-8.504"/><g id="shape78-1" v:mID="78" v:groupContext="shape" transform="translate(.029 -.029)"><title>Patient 1</title><path d="M0 23.4v-6.1c0-2.87 1.69-5.44 4.29-6.59-.6-.67-.95-1.49-.95-2.57V4.22C3.34 1.46 5.85.06 8.33.06c2.48 0 5 1.36 5 4.16v3.92c0 1.05-.35 1.9-.96 2.57 5.28 2.36 4.3 7.92 4.3 12.69h-9.9c-5.05 0-3.94-5.53-.66-5.53h3.18l4.07-5.22c-.57-.48-1.24-.86-1.97-1.11-.93.54-2.01.79-3.06.79-1.05 0-2.13-.25-3.05-.79-2.48.83-4.17 3.18-4.17 5.79v6.1H0v-.03zM4.45 4.26v3.91c0 2.1 2.04 3.05 3.88 3.05 1.85 0 3.88-.92 3.88-3.05V4.26c0-2.1-2.03-3.06-3.88-3.06-1.84 0-3.88.92-3.88 3.06zm3.98 14.69H6.11c-2.04 0-2.26 2.99-.26 3.31l2.58-3.31zm5.72-5.53l-6.9 8.87h8.3c0-2.93.54-6.52-1.4-8.87z" class="st1"/></g></g></svg>