<svg xmlns="http://www.w3.org/2000/svg" xmlns:v="http://schemas.microsoft.com/visio/2003/SVGExtensions/" width=".331in" height=".315in" viewBox="0 0 23.8606 22.667" color-interpolation-filters="sRGB" class="st2"><v:documentProperties v:langID="1033" v:metric="true" v:viewMarkup="false"/><style type="text/css"><![CDATA[
		.st1 {fill:#000000;stroke:none;stroke-linecap:butt;stroke-width:0.0286625}
		.st2 {fill:none;fill-rule:evenodd;font-size:12px;overflow:visible;stroke-linecap:square;stroke-miterlimit:3}
	]]></style><g v:mID="0" v:index="1" v:groupContext="foregroundPage"><title>Page-1</title><v:pageProperties v:drawingScale=".039" v:pageScale=".039" v:drawingUnits="24" v:shadowOffsetX="8.504" v:shadowOffsetY="-8.504"/><g id="shape94-1" v:mID="94" v:groupContext="shape" transform="translate(.029 -.029)"><title>Secretary/receptionist 2</title><path d="M.03 21.44h2.32v-1.3c0-3.44 1.98-5.96 4.91-7.23l-3.99-1.26C5.9 7.39 5.63 2.34 9 .71c.89-.45 1.88-.65 2.87-.65 6.44 0 5.42 6.44 8.59 11.63l-3.99 1.26c2.93 1.26 4.91 3.78 4.91 7.23v1.29h2.42v1.2H0v-1.2l.03-.03zm3.55 0H8.8l-1.4-7.26c-2.22 1.09-3.92 3.1-3.85 6l.03 1.29v-.03zm11.39 0h5.25v-1.3c0-2.9-1.6-4.91-3.85-6l-1.4 7.3zm-5.76-4.77l-.48-2.05c.89.61 2.01.89 3.14.89 1.16 0 2.28-.28 3.17-.89l-.48 2.05H9.17h.04zm-.55-3.79c-.71-1.02-1.16-2.22-1.36-3.72l-.27-1.87c-.07-.38-.07-.75-.07-1.09 1.36.61 3.1.98 5.01.98 1.88 0 3.58-.34 4.91-.95 0 .34-.03.68-.07 1.06l-.27 1.87c-.24 1.5-.65 2.7-1.36 3.72-.69 1.09-1.95 1.47-3.21 1.47-1.3 0-2.52-.34-3.21-1.47h-.1z" class="st1"/></g></g></svg>