<svg id="Layer_1" data-name="Layer 1" xmlns="http://www.w3.org/2000/svg" viewBox="0 0 74.19 94.66"><title>cyber security icon 8 juli</title><polygon points="29.574 76.232 31.936 74.991 34.298 76.232 33.847 73.602 35.757 71.74 33.117 71.356 31.936 68.963 30.755 71.356 28.114 71.74 30.025 73.602 29.574 76.232"/><polygon points="39.892 76.232 42.254 74.991 44.616 76.232 44.165 73.602 46.076 71.74 43.435 71.356 42.254 68.963 41.073 71.356 38.433 71.74 40.343 73.602 39.892 76.232"/><polygon points="35.184 81.819 34.733 84.449 37.095 83.207 39.457 84.449 39.006 81.819 40.917 79.956 38.276 79.573 37.095 77.18 35.914 79.573 33.273 79.956 35.184 81.819"/><path d="M53.337,49.831a18.228,18.228,0,0,0,2.44-9.109V22.371A18.394,18.394,0,0,0,37.4,4h-.657A18.393,18.393,0,0,0,18.375,22.371V40.722a18.24,18.24,0,0,0,2.446,9.12A27.276,27.276,0,0,0,5,74.555V88.661H9V74.555A23.263,23.263,0,0,1,23.252,53.146a18.305,18.305,0,0,0,13.5,5.948H37.4a18.3,18.3,0,0,0,13.5-5.959,23.372,23.372,0,0,1,14.282,21.42V88.661h4V74.555A27.409,27.409,0,0,0,53.337,49.831ZM37.4,55.094h-.657A14.389,14.389,0,0,1,22.375,40.722V24.992h29.4v15.73A14.389,14.389,0,0,1,37.4,55.094Z"/><path d="M22.915,67.566v8.915a14.18,14.18,0,1,0,28.36,0V67.562l-14.22-6.851Zm24.36,2.51v6.405a10.18,10.18,0,1,1-20.36,0V70.072L37.06,65.155Z"/></svg>