<svg id="Layer_1" data-name="Layer 1" xmlns="http://www.w3.org/2000/svg" viewBox="0 0 74.19 94.66"><title>cyber security icon 8 juli</title><rect x="19.209" y="84.642" width="35.771" height="4"/><path d="M21.509,59.849v22H52.681v-22Zm27.172,18H25.509v-14H48.681Z"/><path d="M53.351,50.828a18.127,18.127,0,0,0,2.426-9.106V40.555a9.772,9.772,0,0,0,0-11.781v-.69h7.859v-4H55.777v-.712A18.373,18.373,0,0,0,37.4,5h-.657A18.372,18.372,0,0,0,18.375,23.371v.713H10.554v4h7.821v.741a9.771,9.771,0,0,0,0,11.679v1.218a18.133,18.133,0,0,0,2.433,9.12A27.265,27.265,0,0,0,5,75.555V89.661H9V75.555a23.22,23.22,0,0,1,15.5-21.9h0a2,2,0,0,0,.913-3.116h0a14.222,14.222,0,0,1-2.887-6.776,9.826,9.826,0,0,0,13.484-7.678h2.164a9.821,9.821,0,0,0,13.444,7.692,14.231,14.231,0,0,1-2.879,6.753h0a2,2,0,0,0,.917,3.115h0A23.218,23.218,0,0,1,65.191,75.555V89.661h4V75.555A27.258,27.258,0,0,0,53.351,50.828ZM33.584,28.084h7.022a9.829,9.829,0,0,0-2.189,4H35.773A9.829,9.829,0,0,0,33.584,28.084ZM22.375,23.372A14.373,14.373,0,0,1,36.748,9h.657A14.373,14.373,0,0,1,51.777,23.371v.713h-29.4Zm3.908,17.137a5.845,5.845,0,1,1,5.844-5.845A5.852,5.852,0,0,1,26.283,40.509Zm15.78-5.845a5.845,5.845,0,1,1,5.844,5.845A5.851,5.851,0,0,1,42.063,34.664Z"/></svg>