<svg id="Layer_1" data-name="Layer 1" xmlns="http://www.w3.org/2000/svg" viewBox="0 0 74.19 94.66"><title>cyber security icon 8 juli</title><path d="M53.337,49.831a18.228,18.228,0,0,0,2.44-9.109V22.371A18.393,18.393,0,0,0,37.4,4h-.657A18.392,18.392,0,0,0,18.375,22.371V40.722a18.24,18.24,0,0,0,2.446,9.12A27.276,27.276,0,0,0,5,74.555V88.661H9V74.555A23.263,23.263,0,0,1,23.252,53.146a18.305,18.305,0,0,0,13.5,5.948H37.4a18.3,18.3,0,0,0,13.5-5.959,23.372,23.372,0,0,1,14.282,21.42V88.661h4V74.555A27.409,27.409,0,0,0,53.337,49.831ZM37.4,55.094h-.657A14.389,14.389,0,0,1,22.375,40.722V24.992h29.4v15.73A14.389,14.389,0,0,1,37.4,55.094Z"/><path d="M22.915,67.566v8.916a14.18,14.18,0,0,0,28.36,0v-8.92l-14.22-6.85Zm24.36,2.509v6.407a10.18,10.18,0,0,1-20.36,0V70.071L37.06,65.155Z"/><polygon points="34.733 75.392 37.095 74.15 39.457 75.392 39.006 72.762 40.917 70.899 38.276 70.515 37.095 68.123 35.914 70.515 33.273 70.899 35.184 72.762 34.733 75.392"/><polygon points="34.733 83.57 37.095 82.328 39.457 83.57 39.006 80.94 40.917 79.077 38.276 78.694 37.095 76.301 35.914 78.694 33.273 79.077 35.184 80.94 34.733 83.57"/></svg>