<svg id="Layer_1" data-name="Layer 1" xmlns="http://www.w3.org/2000/svg" viewBox="0 0 74.19 94.66"><title>cyber security icon 8 juli</title><path d="M53.337,49.831a18.228,18.228,0,0,0,2.44-9.109V22.371A18.393,18.393,0,0,0,37.4,4h-.657A18.392,18.392,0,0,0,18.375,22.371V40.722a18.24,18.24,0,0,0,2.446,9.12A27.276,27.276,0,0,0,5,74.555V88.661H9V74.555A23.263,23.263,0,0,1,23.252,53.146a18.305,18.305,0,0,0,13.5,5.948H37.4a18.3,18.3,0,0,0,13.5-5.959,23.372,23.372,0,0,1,14.282,21.42V88.661h4V74.555A27.409,27.409,0,0,0,53.337,49.831ZM37.4,55.094h-.657A14.389,14.389,0,0,1,22.375,40.722V22.371A14.389,14.389,0,0,1,36.747,8H37.4A14.389,14.389,0,0,1,51.777,22.371V40.722A14.389,14.389,0,0,1,37.4,55.094Z"/><path d="M37.1,90.661a14.2,14.2,0,0,1-14.18-14.18V67.566l14.139-6.855,14.221,6.851v8.919A14.2,14.2,0,0,1,37.1,90.661ZM26.915,70.072v6.409a10.18,10.18,0,0,0,20.36,0V70.076L37.06,65.155Z"/><polygon points="37.095 70.223 38.86 73.799 42.806 74.373 39.951 77.156 40.625 81.087 37.095 79.231 33.565 81.087 34.239 77.156 31.384 74.373 35.33 73.799 37.095 70.223"/></svg>