<svg id="Layer_1" data-name="Layer 1" xmlns="http://www.w3.org/2000/svg" viewBox="0 0 74.19 94.66"><title>cyber security icon 8 juli</title><path d="M53.337,49.831c.259-.451.493-.917.714-1.391L68.28,44.62,57.363,17.76A21.988,21.988,0,0,0,41.331,4.432c-.2-.045-.41-.081-.616-.118-.227-.039-.454-.074-.683-.105-.4-.057-.8-.107-1.2-.138-.162-.013-.325-.015-.487-.025C38.029,4.03,37.72,4,37.4,4h-.657c-.356,0-.7.033-1.057.053-.1.007-.2.008-.3.015-.469.035-.931.091-1.39.16-.125.018-.25.037-.374.057-.31.053-.618.109-.922.177a21.993,21.993,0,0,0-15.879,13.3L5.91,44.62,20.1,48.429c.224.481.461.955.725,1.413A27.276,27.276,0,0,0,5,74.555V88.661H9V74.555A23.263,23.263,0,0,1,23.252,53.146a18.305,18.305,0,0,0,13.5,5.948H37.4a18.3,18.3,0,0,0,13.5-5.959,23.373,23.373,0,0,1,14.282,21.42V88.661h4V74.555A27.409,27.409,0,0,0,53.337,49.831ZM37.4,55.094h-.657A14.389,14.389,0,0,1,22.375,40.722V25.069h29.4V40.722A14.389,14.389,0,0,1,37.4,55.094Z"/><path d="M22.915,67.566v8.916a14.18,14.18,0,0,0,28.36,0v-8.92l-14.22-6.85Zm24.36,2.509v6.407a10.18,10.18,0,0,1-20.36,0V70.071L37.06,65.155Z"/><polygon points="33.565 81.087 37.095 79.231 40.625 81.087 39.951 77.157 42.806 74.373 38.86 73.8 37.095 70.224 35.33 73.8 31.384 74.373 34.239 77.157 33.565 81.087"/></svg>