<svg id="Layer_1" data-name="Layer 1" xmlns="http://www.w3.org/2000/svg" viewBox="0 0 74.19 94.66"><defs><style>.cls-1{fill:#231f20;}</style></defs><title>cyber security icon 8 juli</title><path class="cls-1" d="M71.449,89.927,45.376,73.717l-9.3,16L30.254,77.191,3.463,89.417,15.012,65.174l-11.5-2.211,10.884-14.1L1.839,38.63l13.485-1.176L3.686,5.039,30.674,23.221,40.86,7.8l6.93,13.1L72.351,4.733,58.9,35.551H71.541L62.029,50.658,71.987,61.2l-9.531,1.473Zm-60.8-29.665,10.2,1.961L11.8,81.216,32.207,71.9l4.265,9.173,7.517-12.932L64.195,80.706,57.177,59.44l6.671-1.03-6.856-7.26,7.3-11.6H52.786L63.293,15.485,46.313,26.663,40.479,15.634,31.787,28.793,11.577,15.178l9.267,25.809-8.833.77,7.929,6.461Z"/></svg>