<svg id="Layer_1" data-name="Layer 1" xmlns="http://www.w3.org/2000/svg" viewBox="0 0 74.19 94.66"><defs><style>.cls-1{fill:#231f20;}</style></defs><title>cyber security icon 8 juli</title><path class="cls-1" d="M69.191,37.026a32.1,32.1,0,1,0-47.61,28.085H5V89.729H69.191V65.111H52.609A32.117,32.117,0,0,0,69.191,37.026ZM39.1,64.644V39.026h9.8C48.476,52.6,43.849,62.427,39.1,64.644Zm0-29.618V9.409c4.754,2.217,9.381,12.047,9.8,25.617Zm-4-25.617V35.026H25.3C25.714,21.456,30.341,11.626,35.1,9.409Zm0,29.617V64.644c-4.754-2.217-9.381-12.047-9.8-25.618ZM46.05,63.65C49.98,58.273,52.6,49.384,52.9,39.026H65.112A28.15,28.15,0,0,1,46.05,63.65ZM65.112,35.026H52.9C52.6,24.669,49.98,15.779,46.05,10.4A28.148,28.148,0,0,1,65.112,35.026ZM28.14,10.4c-3.929,5.376-6.547,14.266-6.847,24.623H9.078A28.148,28.148,0,0,1,28.14,10.4ZM9.078,39.026H21.293c.3,10.358,2.918,19.247,6.847,24.624A28.15,28.15,0,0,1,9.078,39.026ZM9,79.421h8.745v6.308H9Zm12.745,6.308V79.421H65.191v6.308ZM65.191,75.421H56.446v-6.31h8.745Zm-12.745-6.31v6.31H9v-6.31H36.672c.141,0,.281.011.423.011s.282-.009.423-.011Z"/></svg>