<svg xmlns="http://www.w3.org/2000/svg" xmlns:v="http://schemas.microsoft.com/visio/2003/SVGExtensions/" width=".245in" height=".355in" viewBox="0 0 17.6321 25.5691" color-interpolation-filters="sRGB" class="st2"><v:documentProperties v:langID="1033" v:metric="true" v:viewMarkup="false"/><style type="text/css"><![CDATA[
		.st1 {fill:#000000;stroke:none;stroke-linecap:butt;stroke-width:0.0286625}
		.st2 {fill:none;fill-rule:evenodd;font-size:12px;overflow:visible;stroke-linecap:square;stroke-miterlimit:3}
	]]></style><g v:mID="0" v:index="1" v:groupContext="foregroundPage"><title>Page-1</title><v:pageProperties v:drawingScale=".039" v:pageScale=".039" v:drawingUnits="24" v:shadowOffsetX="8.504" v:shadowOffsetY="-8.504"/><g id="shape29-1" v:mID="29" v:groupContext="shape" transform="translate(.029 -.029)"><title>App on smartphone</title><path d="M17.57.06v25.51H0V.06h17.57zM9.48 8.98h2.71v2.55H9.48V8.98zm0 3.83h2.71v2.56H9.48v-2.56zm-4.06 0h2.71v2.56H5.42v-2.56zm0-3.83h2.71v2.55H5.42V8.98zm6.74 12.75h2.71v1.28h-2.71v-1.28zm-9.45 0h2.71v1.28H2.71v-1.28zM6.74 1.34h4.1v1.28h-4.1V1.34zm.03 19.11h4.07v3.84H6.77v-3.84zm8.1-16.59v15.31H2.71V3.86h12.16z" class="st1"/></g></g></svg>