<svg xmlns="http://www.w3.org/2000/svg" xmlns:v="http://schemas.microsoft.com/visio/2003/SVGExtensions/" width=".296in" height=".335in" viewBox="0 0 21.3172 24.1518" color-interpolation-filters="sRGB" class="st2"><v:documentProperties v:langID="1033" v:metric="true" v:viewMarkup="false"/><style type="text/css"><![CDATA[
		.st1 {fill:#000000;stroke:none;stroke-linecap:butt;stroke-width:0.0286625}
		.st2 {fill:none;fill-rule:evenodd;font-size:12px;overflow:visible;stroke-linecap:square;stroke-miterlimit:3}
	]]></style><g v:mID="0" v:index="1" v:groupContext="foregroundPage"><title>Page-1</title><v:pageProperties v:drawingScale=".039" v:pageScale=".039" v:drawingUnits="24" v:shadowOffsetX="8.504" v:shadowOffsetY="-8.504"/><g id="shape27-1" v:mID="27" v:groupContext="shape" transform="translate(.029 -.029)"><title>App on PC</title><path d="M1.9 17.79h17.5l1.86 4.76v1.6H0v-1.6l1.86-4.76h.04zM1.29.06h18.75v13.95h-7.49v1.27h3.76v1.28H5.06v-1.28h3.76v-1.27H1.33V.06h-.04zm10 3.81h2.51v2.55h-2.51V3.87zm0 3.82h2.51v2.54h-2.51V7.69zm-3.76 0h2.51v2.54H7.53V7.69zm0-3.82h2.51v2.55H7.53V3.87zM2.51 1.33h16.28v11.41H2.51V1.33zm.21 17.12l-.21.61h1.11l.18-.61H2.72zm1.22.61h1.04l.15-.61H4.12l-.18.61zm1.37 0h1.04l.1-.61h-1l-.14.61zm1.36 0h1.04l.07-.61h-1l-.11.61zm1.36 0h1.04l.04-.61H8.1l-.07.61zm1.36 0h1.15v-.61H9.43l-.04.61zm1.47 0h1.19l-.04-.61h-1.15v.61zm1.47 0h1.04l-.07-.61h-1l.03.61zm1.37 0h1.03l-.1-.61h-1.01l.08.61zm1.36 0h1.04l-.15-.61h-1l.11.61zm1.36 0h1.04l-.18-.61h-1l.14.61zm1.36 0h1.08l-.22-.61H17.6l.18.61zm-15.27.33l-.22.62h1.19l.18-.62H2.51zm1.29.62h1.08l.14-.62H3.98l-.18.62zm1.4 0h1.07l.11-.62H5.34l-.14.62zm1.4 0h1.07l.07-.62H6.7l-.1.62zm1.39 0h1.08l.04-.62H8.07l-.08.62zm1.4 0h1.19v-.62H9.43l-.04.62zm1.51 0h1.22l-.04-.62H10.9v.62zm1.54 0h1.08l-.08-.62H12.4l.04.62zm1.4 0h1.07l-.1-.62h-1.04l.07.62zm1.4 0h1.07l-.14-.62h-1.04l.11.62zm1.4 0h1.07l-.18-.62h-1.04l.15.62zm1.39 0h1.15l-.21-.62h-1.12l.18.62zm-15.84.33l-.22.61h1.26l.18-.61H2.19zm1.36.61h1.11l.14-.61H3.69l-.18.61h.04zm1.43 0h1.15l.11-.61H5.13l-.15.61zm1.44 0h1.14l.08-.61H6.52l-.1.61zm1.43 0H9l.03-.61H7.92l-.07.61zm1.44 0h1.25v-.61H9.32l-.03.61zm1.57 0h1.29l-.03-.61h-1.26v.61zm1.62 0h2.58l-.11-.61h-2.51l.04.61zm2.9 0h1.15l-.15-.61h-1.11l.11.61zm1.43 0h1.12l-.18-.61h-1.11l.14.61h.03zm1.44 0h1.22l-.22-.61H18.1l.18.61h-.03zm-16.42.33l-.22.62H2.9l.18-.62H1.83zm1.4.62h1.18l.14-.62H3.41l-.18.62zm1.5 0h1.19l.1-.62H4.88l-.15.62zm1.51 0h1.18l.07-.62H6.35l-.11.62zm1.5 0h1.19l.03-.62H7.82l-.08.62zm1.51 0h1.33v-.62H9.29l-.04.62zm1.61 0h1.33l-.04-.62h-1.29v.62zm1.65 0h1.19l-.08-.62h-1.14l.03.62zm1.51 0h1.18l-.11-.62h-1.14l.07.62zm1.5 0h1.19l-.15-.62h-1.14l.1.62zm1.51 0h1.18l-.18-.62h-1.14l.14.62zm1.51 0h1.29l-.22-.62h-1.22l.18.62h-.03zm-17 .33l-.21.61h1.36l.18-.61H1.54zm1.47.61h1.22l.14-.61H3.19l-.18.61zm1.54 0h7.71l-.03-.61H4.7l-.15.61zm8.03 0h1.22l-.07-.61h-1.22l.04.61h.03zm3.09 0h1.22l-.15-.61h-1.18l.11.61zm1.54 0h1.22l-.18-.61h-1.18l.14.61zm1.54 0h1.36l-.21-.61h-1.29l.18.61h-.04z" class="st1"/></g></g></svg>