<svg xmlns="http://www.w3.org/2000/svg" xmlns:v="http://schemas.microsoft.com/visio/2003/SVGExtensions/" width=".304in" height=".304in" viewBox="0 0 21.8867 21.8867" color-interpolation-filters="sRGB" class="st2"><v:documentProperties v:langID="1033" v:metric="true" v:viewMarkup="false"/><style type="text/css"><![CDATA[
		.st1 {fill:#000000;stroke:none;stroke-linecap:butt;stroke-width:0.0299702}
		.st2 {fill:none;fill-rule:evenodd;font-size:12px;overflow:visible;stroke-linecap:square;stroke-miterlimit:3}
	]]></style><g v:mID="0" v:index="1" v:groupContext="foregroundPage"><title>Page-1</title><v:pageProperties v:drawingScale=".039" v:pageScale=".039" v:drawingUnits="24" v:shadowOffsetX="8.504" v:shadowOffsetY="-8.504"/><g id="shape2-1" v:mID="2" v:groupContext="shape" transform="translate(.03 -.03)"><title>E-mail</title><path d="M19.86 17.22c-.87 1.05-1.99 1.8-3.27 2.29-1.52.6-3.23.82-4.88.82-1.78 0-3.59-.25-5.24-.94-1.51-.62-2.73-1.61-3.6-3.02-.88-1.4-1.28-2.93-1.28-4.59 0-1.74.4-3.4 1.15-4.95.75-1.59 1.9-2.84 3.39-3.74 1.65-.97 3.58-1.31 5.48-1.31 2.19 0 4.33.46 5.98 1.99 1.43 1.35 2.15 3 2.15 4.96 0 1.12-.28 2.18-.75 3.18-.47.97-1.12 1.81-1.99 2.47-.44.31-1.06.71-1.58.71-.19 0-.38-.09-.5-.22-.16-.15-.19-.37-.19-.59 0-.31.09-.78.16-1.06l1.7-8.01h-2.54l-.38 1.69-.31-.54c-.65-1.03-1.62-1.46-2.84-1.46-1.99 0-3.46 1-4.58 2.61-.98 1.47-1.48 3.06-1.48 4.84 0 1.25.31 2.43 1.2 3.37.81.84 1.84 1.25 3.02 1.25 1.16 0 2.16-.44 3-1.25l.31-.31.09.4c.1.34.25.63.56.84.35.25.91.28 1.31.28 2.39 0 4.23-1.03 5.66-2.93 1.19-1.53 1.78-3.28 1.78-5.21 0-1.58-.37-3.08-1.18-4.45-.81-1.41-1.97-2.44-3.4-3.16C15.23.4 13.48.06 11.71.06c-2.12 0-4.18.41-6.05 1.37-1.8.94-3.17 2.34-4.13 4.12C.5 7.43 0 9.38 0 11.5c0 1.91.44 3.72 1.34 5.4.9 1.68 2.31 2.9 4.04 3.71 2.03.93 4.3 1.28 6.55 1.28 2.27 0 4.6-.38 6.59-1.5 1.41-.78 2.53-1.84 3.31-3.24h-1.97v.07zM6.91 12.19c0-.87.19-1.78.43-2.59.25-.87.69-1.69 1.34-2.3.57-.53 1.25-.84 2.03-.84.69 0 1.28.28 1.75.78.53.58.68 1.39.68 2.17 0 .88-.19 1.78-.47 2.62-.25.75-.59 1.57-1.12 2.16-.28.31-.59.59-.93.78-.44.25-.88.34-1.37.34-.69 0-1.25-.28-1.69-.78-.53-.62-.65-1.56-.65-2.34z" class="st1"/></g></g></svg>