<svg xmlns="http://www.w3.org/2000/svg" xmlns:v="http://schemas.microsoft.com/visio/2003/SVGExtensions/" width=".355in" height=".355in" viewBox="0 0 25.5691 25.5691" color-interpolation-filters="sRGB" class="st2"><v:documentProperties v:langID="1033" v:metric="true" v:viewMarkup="false"/><style type="text/css"><![CDATA[
		.st1 {fill:#000000;stroke:none;stroke-linecap:butt;stroke-width:0.0286625}
		.st2 {fill:none;fill-rule:evenodd;font-size:12px;overflow:visible;stroke-linecap:square;stroke-miterlimit:3}
	]]></style><g v:mID="0" v:index="1" v:groupContext="foregroundPage"><title>Page-1</title><v:pageProperties v:drawingScale=".039" v:pageScale=".039" v:drawingUnits="24" v:shadowOffsetX="8.504" v:shadowOffsetY="-8.504"/><g id="shape22-1" v:mID="22" v:groupContext="shape" transform="translate(.029 -.029)"><title>Internet/Globe</title><path d="M12.76.06c7.04 0 12.75 5.71 12.75 12.75 0 7.05-5.71 12.76-12.75 12.76C5.71 25.57 0 19.86 0 12.81 0 5.77 5.71.06 12.76.06zm3.55 1.72c2.33.77 4.35 2.23 5.75 4.16l-.07-.07-1.29 2.59 1.46 2.89-.73 1.46h-2.89v2.89l4.58 2.3c-1.89 3.78-5.85 6.41-10.36 6.41-6.42 0-11.6-5.19-11.6-11.6 0-3.02 1.17-5.78 3.06-7.84l-.1.1 1.36 3.42 2.16.74-.73 1.46-.73 1.46 2.16 2.16-.73 2.89 2.89 2.16 3.62-5.09s-.14-.73-.43-1.09c-.3-.37.43-1.83.43-1.83L10.5 9.89l-.73-1.46 2.16-2.16h2.89l1.39-4.52.1.03z" class="st1"/></g></g></svg>