<svg xmlns="http://www.w3.org/2000/svg" xmlns:v="http://schemas.microsoft.com/visio/2003/SVGExtensions/" width="28.422" height="32.202" viewBox="0 0 21.3165 24.1512" color-interpolation-filters="sRGB" class="st2"><v:documentProperties v:langID="1044" v:metric="true" v:viewMarkup="false"/><style><![CDATA[
		.st1 {fill:#000000;stroke:none;stroke-linecap:butt;stroke-width:0.0283464}
		.st2 {fill:none;fill-rule:evenodd;font-size:12px;overflow:visible;stroke-linecap:square;stroke-miterlimit:3}
	]]></style><g v:mID="0" v:index="1" v:groupContext="foregroundPage"><title>Page-1</title><v:pageProperties v:drawingScale=".039" v:pageScale=".039" v:drawingUnits="24" v:shadowOffsetX="8.504" v:shadowOffsetY="-8.504"/><g id="shape8-1" v:mID="8" v:groupContext="shape" transform="translate(.028 -.028)"><title>Internet via PC 3</title><path d="M1.25.06h18.76v13.95h-7.5v1.27h3.75v1.26H5v-1.26h3.75v-1.27h-7.5V.06zm6.99 6.02L7.59 8.3h-.52l-.4-1.51c-.01-.05-.02-.11-.03-.18h-.01c0 .04-.02.1-.03.18L6.16 8.3h-.5l-.65-2.22h.51l.4 1.6c.01.05.02.11.03.19h.01c.01-.06.02-.12.03-.2l.45-1.59h.47l.39 1.6c.01.06.02.12.02.2h.02c0-.05.01-.12.04-.2l.38-1.6h.48zm3.54 0l-.64 2.22h-.53l-.39-1.51c-.02-.05-.02-.11-.03-.18h-.01c0 .04-.02.1-.04.18L9.71 8.3H9.2l-.64-2.22h.51l.4 1.6c.01.05.02.11.03.19.01-.06.02-.12.04-.2l.44-1.59h.47l.39 1.6c.02.06.03.12.03.2h.02c0-.05.01-.12.03-.2l.39-1.6h.47zm3.55 0l-.65 2.22h-.51l-.4-1.51c-.02-.05-.03-.11-.04-.18h-.01c0 .04 0 .1-.03.18l-.44 1.51h-.5l-.65-2.22h.52l.39 1.6c.01.05.02.11.03.19h.02c0-.06.01-.12.03-.2l.44-1.59H14l.39 1.6c.02.06.03.12.03.2h.01c0-.05.02-.12.04-.2l.39-1.6h.47zm.61 2.27c-.09 0-.16-.03-.22-.09s-.09-.13-.09-.2c0-.08.03-.15.09-.21s.13-.09.22-.09.16.03.22.09.09.13.09.21c0 .07-.03.14-.09.2s-.13.09-.22.09zM1.87 17.81h17.52l1.87 4.75v1.59H0v-1.59l1.87-4.75zm.85.64l-.21.63h1.1l.17-.63H2.72zm1.21.63h1.03l.13-.63H4.1l-.17.63zm1.35 0h1.03l.1-.63h-1l-.13.63zm1.34 0h1.04l.07-.63h-1l-.11.63zm1.36 0h1.04l.03-.63H8.04l-.06.63zm1.35 0h1.14v-.63H9.36l-.03.63zm1.46 0h1.17l-.04-.63h-1.13v.63zm1.48 0h1.05l-.07-.63h-1.02l.04.63zm1.36 0h1.03l-.1-.63h-1l.07.63zm1.34 0h1.04l-.13-.63h-1l.09.63zm1.36 0h1.03l-.17-.63h-.99l.13.63zm1.36 0h1.06l-.21-.63h-1.02l.17.63zm-15.29.31l-.22.64h1.17l.17-.64H2.4zm1.28.64h1.07l.14-.64H3.85l-.17.64zm1.39 0h1.08l.11-.64H5.21l-.14.64zm1.4 0h1.09l.06-.64H6.58l-.11.64zm1.4 0h1.09l.04-.64H7.94l-.07.64zm1.4 0h1.2v-.64H9.31l-.04.64zm1.52 0h1.22l-.03-.64h-1.19v.64zm1.54 0h1.08l-.07-.64h-1.05l.04.64zm1.4 0h1.08l-.09-.64h-1.06l.07.64zm1.4 0h1.09l-.14-.64h-1.05l.1.64zm1.4 0h1.09l-.17-.64H16.4l.13.64zm1.41 0h1.14l-.21-.64h-1.1l.17.64zm-15.87.31l-.21.64H3.1l.17-.64h-1.2zm1.35.64h1.13l.14-.64h-1.1l-.17.64zm1.45 0H6l.11-.64h-1.1l-.14.64zm1.45 0h1.14l.07-.64H6.42l-.1.64zm1.45 0h1.14l.04-.64H7.84l-.07.64zm1.45 0h1.25v-.64H9.26l-.04.64zm1.57 0h1.28l-.04-.64h-1.24v.64zm1.6 0h2.58l-.1-.64h-2.52l.04.64zm2.89 0h1.14l-.14-.64h-1.09l.09.64zm1.46 0h1.12l-.16-.64h-1.09l.13.64zm1.45 0h1.21l-.21-.64h-1.17l.17.64zm-16.43.31l-.22.64h1.31l.16-.64H1.76zm1.41.64h1.18l.14-.64H3.34l-.17.64zm1.5 0h1.18l.1-.64H4.81l-.14.64zm1.5 0h1.18l.07-.64H6.27l-.1.64zm1.5 0h1.18l.04-.64H7.73l-.06.64zm1.5 0h1.3v-.64H9.2l-.03.64zm1.62 0h1.34l-.05-.64h-1.29v.64zm1.65 0h1.19l-.07-.64H12.4l.04.64zm1.5 0h1.18l-.1-.64h-1.15l.07.64zm1.5 0h1.18l-.14-.64h-1.14l.1.64zm1.5 0h1.18l-.17-.64H16.8l.14.64zm1.5 0h1.28l-.22-.64h-1.23l.17.64zm-17 .32l-.23.63H2.6l.17-.63H1.44zm1.48.63h1.23l.13-.63H3.09l-.17.63zm1.55 0h7.71l-.03-.63H4.6l-.13.63zm8.02 0h1.23l-.06-.63h-1.2l.03.63zm3.1 0h1.24l-.14-.63h-1.2l.1.63zm1.56 0h1.22l-.17-.63H17l.15.63zm1.54 0h1.36l-.23-.63h-1.29l.16.63zM2.5 1.33h16.26v11.41H2.5V1.33z" class="st1"/></g></g></svg>