<svg xmlns="http://www.w3.org/2000/svg" xmlns:v="http://schemas.microsoft.com/visio/2003/SVGExtensions/" width=".375in" height=".377in" viewBox="0 0 26.9865 27.1282" color-interpolation-filters="sRGB" class="st2"><v:documentProperties v:langID="1033" v:metric="true" v:viewMarkup="false"/><style type="text/css"><![CDATA[
		.st1 {fill:#000000;stroke:none;stroke-linecap:butt;stroke-width:0.0286625}
		.st2 {fill:none;fill-rule:evenodd;font-size:12px;overflow:visible;stroke-linecap:square;stroke-miterlimit:3}
	]]></style><g v:mID="0" v:index="1" v:groupContext="foregroundPage"><title>Page-1</title><v:pageProperties v:drawingScale=".039" v:pageScale=".039" v:drawingUnits="24" v:shadowOffsetX="8.504" v:shadowOffsetY="-8.504"/><g id="shape8-1" v:mID="8" v:groupContext="shape" transform="translate(.029 -.029)"><title>Internet via PC</title><path d="M12.73.06c5.92 0 10.87 3.99 12.38 9.46h-2.09c-.39-1.12-.93-2.17-1.62-3.14l-1.2 2.44.35.7h-8.44v1.2l-1.35-.54-.66-1.36 2.01-2.01h2.71l.66-2.02.62-2.17c-1.05-.35-2.17-.51-3.33-.51-3.17 0-6.04 1.4-8.01 3.57l1.28 3.18 2.01.66-.66 1.36-.66 1.36 2.01 2.01-.65 2.72 2.7 2.01 1.36-1.9v8.65C5.38 25.38 0 19.76 0 12.89 0 5.8 5.73.06 12.81.06h-.08zm.7 10.82h13.5V21.7h-5.42v1.36h4.06l1.36 4.07h-13.5l1.35-4.07h4.06V21.7h-5.41V10.88zm10.79 13.53h-8.47l-.47 1.36h9.75l-.46-1.36h-.39.04zm-9.44-12.17h10.79v8.1H14.78v-8.1z" class="st1"/></g></g></svg>