<svg xmlns="http://www.w3.org/2000/svg" xmlns:v="http://schemas.microsoft.com/visio/2003/SVGExtensions/" width=".416in" height=".357in" viewBox="0 0 29.9655 25.6851" color-interpolation-filters="sRGB" class="st2"><v:documentProperties v:langID="1033" v:metric="true" v:viewMarkup="false"/><style type="text/css"><![CDATA[
		.st1 {fill:#000000;stroke:none;stroke-linecap:butt;stroke-width:0.0299702}
		.st2 {fill:none;fill-rule:evenodd;font-size:12px;overflow:visible;stroke-linecap:square;stroke-miterlimit:3}
	]]></style><g v:mID="0" v:index="1" v:groupContext="foregroundPage"><title>Page-1</title><v:pageProperties v:drawingScale=".039" v:pageScale=".039" v:drawingUnits="24" v:shadowOffsetX="8.504" v:shadowOffsetY="-8.504"/><g id="shape10-1" v:mID="10" v:groupContext="shape" transform="translate(.03 -.03)"><title>Internet via smartphone</title><path d="M12.8.06c5.59 0 10.32 3.59 12.07 8.52h-1.54c-.38-.94-.85-1.79-1.45-2.56l-1.27 2.56h-2.13V24.32c-1.71.85-3.68 1.32-5.68 1.32-7.08 0-12.8-5.7-12.8-12.79C0 5.78 5.72.06 12.8.06zm7.13 9.97h9.98v15.66h-9.98V10.03zm7.11 12.8h1.41v1.4h-1.41v-1.4zm-2.86 0h1.41v1.4h-1.41v-1.4zm-2.84 0h1.39v1.4h-1.39v-1.4zm0-9.98h7.11v8.52h-7.11v-8.52zM12.8 1.47c1.23 0 2.39.21 3.5.55l-.64 2.31-.73 2.12h-2.86L9.94 8.58l.72 1.41 3.55 1.41s-.73 1.41-.43 1.79c.3.34.43 1.07.43 1.07l-3.55 4.99-2.86-2.13.73-2.86-2.12-2.13.72-1.41.71-1.41-2.12-.73L4.4 5.22c2.09-2.3 5.11-3.75 8.44-3.75h-.04z" class="st1"/></g></g></svg>