<svg xmlns:v="http://schemas.microsoft.com/visio/2003/SVGExtensions/" xmlns="http://www.w3.org/2000/svg" width="34.013" height="22.68" viewBox="0 0 25.509992 17.009999" class="st3" id="svg2" font-size="12" overflow="visible" color-interpolation-filters="sRGB" fill="none" fill-rule="evenodd" stroke-linecap="square" stroke-miterlimit="3"><v:documentProperties v:langID="1044" v:metric="true" v:viewMarkup="false"/><style id="style4"><![CDATA[
		.st1 {fill:#000000}
		.st2 {stroke:none;stroke-linecap:butt;stroke-width:28.216}
		.st3 {fill:none;fill-rule:evenodd;font-size:12px;overflow:visible;stroke-linecap:square;stroke-miterlimit:3}
	]]></style><g v:mID="0" v:index="1" v:groupContext="foregroundPage" id="g6" transform="translate(-28.216 -28.214)"><title id="title8">Page-1</title><v:pageProperties v:drawingScale=".039" v:pageScale=".039" v:drawingUnits="24" v:shadowOffsetX="8.504" v:shadowOffsetY="-8.504"/><g id="shape9-1" v:mID="9" v:groupContext="shape" transform="translate(28.216 -28.216)"><title id="title11">Internet via tablet 2</title><path d="M2.55 57.74h19.14v14.39H2.55V57.74zm20.41 5.23h1.28v3.93h-1.28v-3.93zM2.55 56.43L0 59.05v11.77l2.55 2.62h20.41l2.55-2.62V59.05l-2.55-2.62H2.55zm12.88 6.28v-.01l.02.03c0-.01-.01-.01-.02-.02l-.43.9.49 1-.25.5h-.98v1.01l1.54.79c-.64 1.32-1.97 2.22-3.49 2.22-2.17 0-3.92-1.8-3.92-4.02 0-1.03.38-1.96 1.01-2.67l-.01-.01.04-.03c-.01.01-.02.02-.03.04l.46 1.17.74.25-.26.5-.24.5.74.76-.24 1.01.97.75 1.22-1.76s-.03-.25-.14-.38c-.1-.13.14-.63.14-.63l-1.22-.5-.24-.5.73-.75h.98l.47-1.57c.77.26 1.44.76 1.92 1.42zm-1.92-1.42zm-1.22-.76c-2.46 0-4.46 2.05-4.46 4.57 0 2.53 2 4.58 4.46 4.58s4.46-2.05 4.46-4.58c0-2.52-2-4.57-4.46-4.57z" class="st1" id="path13" fill="#000"/><path d="M2.55 57.74h19.14v14.39H2.55V57.74m20.41 5.23h1.28v3.93h-1.28v-3.93M2.55 56.43L0 59.05v11.77l2.55 2.62h20.41l2.55-2.62V59.05l-2.55-2.62H2.55m12.88 6.28v-.01l.02.03c0-.01-.01-.01-.02-.02l-.43.9.49 1-.25.5h-.98v1.01l1.54.79c-.64 1.32-1.97 2.22-3.49 2.22-2.17 0-3.92-1.8-3.92-4.02 0-1.03.38-1.96 1.01-2.67l-.01-.01.04-.03c-.01.01-.02.02-.03.04l.46 1.17.74.25-.26.5-.24.5.74.76-.24 1.01.97.75 1.22-1.76s-.03-.25-.14-.38c-.1-.13.14-.63.14-.63l-1.22-.5-.24-.5.73-.75h.98l.47-1.57c.77.26 1.44.76 1.92 1.42M12.29 60.53c-2.46 0-4.46 2.05-4.46 4.57 0 2.53 2 4.58 4.46 4.58s4.46-2.05 4.46-4.58c0-2.52-2-4.57-4.46-4.57" class="st2" id="path15" stroke-width="28.216" stroke-linecap="butt"/></g></g></svg>