<svg xmlns="http://www.w3.org/2000/svg" xmlns:v="http://schemas.microsoft.com/visio/2003/SVGExtensions/" width="22.753" height="34.091" viewBox="0 0 17.0646 25.5685" color-interpolation-filters="sRGB" class="st2"><v:documentProperties v:langID="1044" v:metric="true" v:viewMarkup="false"/><style><![CDATA[
		.st1 {fill:#000000;stroke:none;stroke-linecap:butt;stroke-width:0.0283464}
		.st2 {fill:none;fill-rule:evenodd;font-size:12px;overflow:visible;stroke-linecap:square;stroke-miterlimit:3}
	]]></style><g v:mID="0" v:index="1" v:groupContext="foregroundPage"><title>Page-1</title><v:pageProperties v:drawingScale=".039" v:pageScale=".039" v:drawingUnits="24" v:shadowOffsetX="8.504" v:shadowOffsetY="-8.504"/><g id="shape12-1" v:mID="12" v:groupContext="shape" transform="translate(.028 -.028)"><title>Internet via smartphone 3</title><path d="M14.07 12.87c.09 0 .17-.03.23-.09s.09-.13.09-.21c0-.08-.03-.15-.09-.21-.06-.05-.14-.08-.23-.08s-.17.03-.22.08c-.07.06-.1.13-.1.21 0 .08.03.15.1.21.05.06.13.09.22.09zm-.64-2.29h-.49l-.41 1.62c-.02.07-.03.13-.03.19h-.02c-.01-.07-.02-.14-.03-.19l-.41-1.62h-.49l-.46 1.61c-.02.07-.03.13-.04.2h-.01c0-.08-.01-.15-.02-.2l-.42-1.61h-.54l.67 2.23h.54l.44-1.51c.03-.08.04-.14.05-.2h.01c0 .08.01.15.03.2l.41 1.51h.55l.67-2.23zm-3.71 0h-.49l-.41 1.62c-.02.07-.03.13-.03.19h-.02c-.01-.07-.02-.14-.02-.19l-.42-1.62h-.48l-.47 1.61c-.02.07-.04.13-.04.2h-.01c0-.08-.01-.15-.03-.2l-.41-1.61h-.54l.67 2.23h.54L8 11.3c.03-.08.04-.14.05-.2h.01c0 .08.01.15.03.2l.41 1.51h.55l.67-2.23zm-3.71 0h-.49l-.41 1.62c-.02.07-.03.13-.04.19h-.01c-.01-.07-.02-.14-.02-.19l-.42-1.62h-.48l-.47 1.61c-.02.07-.03.13-.03.2h-.02c0-.08-.01-.15-.03-.2l-.42-1.61h-.53l.67 2.23h.54l.44-1.51c.03-.08.04-.14.05-.2h.01c0 .08.01.15.03.2l.41 1.51h.54l.68-2.23zm11-10.52H0v25.51h17.01V.06zm-5.23 21.68h2.61v1.28h-2.61v-1.28zm-9.16 0h2.61v1.28H2.62v-1.28zM6.51 1.33h3.96v1.28H6.51V1.33zm.03 19.14h3.93v3.82H6.54v-3.82zM15.7 3.89V19.2H1.31V3.89H15.7z" class="st1"/></g></g></svg>