<svg xmlns="http://www.w3.org/2000/svg" xmlns:v="http://schemas.microsoft.com/visio/2003/SVGExtensions/" width=".269in" height=".339in" viewBox="0 0 19.3329 24.4353" color-interpolation-filters="sRGB" class="st2"><v:documentProperties v:langID="1033" v:metric="true" v:viewMarkup="false"/><style type="text/css"><![CDATA[
		.st1 {fill:#000000;stroke:none;stroke-linecap:butt;stroke-width:0.0286625}
		.st2 {fill:none;fill-rule:evenodd;font-size:12px;overflow:visible;stroke-linecap:square;stroke-miterlimit:3}
	]]></style><g v:mID="0" v:index="1" v:groupContext="foregroundPage"><title>Page-1</title><v:pageProperties v:drawingScale=".039" v:pageScale=".039" v:drawingUnits="24" v:shadowOffsetX="8.504" v:shadowOffsetY="-8.504"/><g id="shape16-1" v:mID="16" v:groupContext="shape" transform="translate(.029 -.029)"><title>Invoice 1</title><path d="M0 .06h19.28v24.38H0V.06zm8.99 1.28h1.29v1.29H8.99V1.34zm5.16 0h1.29v1.29h-1.29V1.34zm-10.28 0h1.29v1.29H3.87V1.34zM1.29 3.92h16.73v16.69H1.29V3.92zm3.13 6.4h.96c.3-.81.77-1.55 1.36-2.17 1.04-1.03 2.51-1.69 4.1-1.69.84 0 1.69.18 2.46.55.78.36 1.44.88 2 1.54l-1 .81c-.44-.51-.96-.92-1.55-1.18-.59-.25-1.25-.4-1.91-.4-1.26 0-2.36.51-3.17 1.32-.37.37-.67.77-.89 1.25h6.01v1.29H6.41c-.03.22-.03.44-.03.62 0 .23 0 .45.03.63h6.38v1.29H6.78c.22.47.52.88.89 1.25.81.81 1.95 1.32 3.17 1.32.66 0 1.29-.15 1.88-.4.58-.26 1.1-.67 1.54-1.14l.96.84c-.55.63-1.21 1.14-1.99 1.47-.74.33-1.58.52-2.43.52-1.59 0-3.06-.66-4.09-1.69-.59-.59-1.07-1.33-1.37-2.17h-.95v-1.29h.66c-.04-.22-.04-.44-.04-.63 0-.22 0-.44.04-.62h-.66v-1.29l.03-.03zm13.6 11.54v1.29H1.29v-1.29h16.73z" class="st1"/></g></g></svg>