<svg xmlns="http://www.w3.org/2000/svg" xmlns:v="http://schemas.microsoft.com/visio/2003/SVGExtensions/" width="25.776" height="32.58" viewBox="0 0 19.3323 24.4346" color-interpolation-filters="sRGB" class="st2"><v:documentProperties v:langID="1044" v:metric="true" v:viewMarkup="false"/><style><![CDATA[
		.st1 {fill:#000000;stroke:none;stroke-linecap:butt;stroke-width:0.0283464}
		.st2 {fill:none;fill-rule:evenodd;font-size:12px;overflow:visible;stroke-linecap:square;stroke-miterlimit:3}
	]]></style><g v:mID="0" v:index="1" v:groupContext="foregroundPage"><title>Page-1</title><v:pageProperties v:drawingScale=".039" v:pageScale=".039" v:drawingUnits="24" v:shadowOffsetX="8.504" v:shadowOffsetY="-8.504"/><g id="shape13-1" v:mID="13" v:groupContext="shape" transform="translate(.028 -.028)"><title>Invoice 2</title><path d="M11.14 11.88h.88c.35 0 .64.09.82.26.2.17.3.42.3.73 0 .16-.04.32-.09.46-.06.13-.14.25-.24.34-.09.1-.21.17-.35.23-.14.04-.29.06-.45.06h-.87v-2.08zm3.84 5.55l-1.12-1.81c-.09-.13-.18-.26-.26-.36-.07-.1-.14-.2-.22-.28-.07-.09-.16-.17-.24-.25-.09-.07-.18-.15-.3-.21v-.02c.21-.06.41-.14.58-.24.17-.11.31-.23.44-.38.12-.15.21-.31.28-.5.07-.19.1-.4.1-.62 0-.3-.05-.55-.16-.76-.1-.22-.24-.4-.43-.54-.19-.15-.4-.26-.65-.33-.26-.07-.53-.1-.82-.1h-2.09v6.4h1.05v-2.6h.42c.13 0 .25.02.36.05.1.03.2.09.29.16.09.07.18.16.27.27.08.11.17.24.26.4l1.02 1.72h1.22zm-5.9 0l-2.67-3.34 2.48-3.06H7.64l-2.13 2.79c-.07.08-.11.14-.15.21h-.02v-3H4.29v6.4h1.05v-3.15h.02c.01.03.06.11.15.22l2.2 2.93h1.37zm-8.48 7h13.51l5.17-5.22V.06H0v24.37h.6zm13.86-2.08v-2.79h2.77l-2.77 2.79zM2.41 3.71v1.22h3.61V3.71H2.41zm0 2.44v1.21h4.82V6.15H2.41zm12.05-2.44v1.22h2.41V3.71h-2.41zM1.2 23.22V1.27h16.88v17.07h-4.83v4.88H1.2z" class="st1"/></g></g></svg>