<svg xmlns="http://www.w3.org/2000/svg" xmlns:v="http://schemas.microsoft.com/visio/2003/SVGExtensions/" width=".269in" height=".339in" viewBox="0 0 19.3329 24.4353" color-interpolation-filters="sRGB" class="st2"><v:documentProperties v:langID="1033" v:metric="true" v:viewMarkup="false"/><style type="text/css"><![CDATA[
		.st1 {fill:#000000;stroke:none;stroke-linecap:butt;stroke-width:0.0286625}
		.st2 {fill:none;fill-rule:evenodd;font-size:12px;overflow:visible;stroke-linecap:square;stroke-miterlimit:3}
	]]></style><g v:mID="0" v:index="1" v:groupContext="foregroundPage"><title>Page-1</title><v:pageProperties v:drawingScale=".039" v:pageScale=".039" v:drawingUnits="24" v:shadowOffsetX="8.504" v:shadowOffsetY="-8.504"/><g id="shape17-1" v:mID="17" v:groupContext="shape" transform="translate(.029 -.029)"><title>Invoice 2</title><path d="M1.18 23.18h12.07v-3.43c-.27.17-.55.35-.83.49-.69.31-1.48.49-2.28.49-1.49 0-2.87-.63-3.84-1.61-.56-.56-1.01-1.26-1.28-2.06h-.9v-1.23h.62c-.03-.21-.03-.42-.03-.59 0-.21 0-.42.03-.6h-.62v-1.22h.9c.27-.77.72-1.47 1.28-2.07.97-.97 2.35-1.6 3.84-1.6.8 0 1.59.17 2.32.52.72.35 1.35.84 1.87 1.47l-.94.77c-.41-.49-.9-.88-1.45-1.12-.55-.25-1.18-.39-1.8-.39-1.18 0-2.22.49-2.98 1.26-.34.35-.62.74-.83 1.19h5.64v1.23H5.99c-.04.21-.04.42-.04.59 0 .21 0 .42.04.6h5.98v1.22H6.33c.21.46.49.84.83 1.19.76.77 1.84 1.26 2.98 1.26.62 0 1.21-.14 1.76-.39.56-.24 1.04-.63 1.46-1.08l.31.28h4.39V1.28H1.14v21.97l.04-.07zM14.47 3.66h2.42v1.22h-2.42V3.66zM2.39 6.11h4.84v1.22H2.39V6.11zm0-2.45h3.63v1.22H2.39V3.66zm12.08 18.68l2.76-2.8h-2.76v2.8zm-.59 2.1H0V.06h19.28v19.13l-.18.17-4.84 4.9-.18.18h-.24.04z" class="st1"/></g></g></svg>