<svg xmlns="http://www.w3.org/2000/svg" xmlns:v="http://schemas.microsoft.com/visio/2003/SVGExtensions/" width=".269in" height=".339in" viewBox="0 0 19.3355 24.4379" color-interpolation-filters="sRGB" class="st2"><v:documentProperties v:langID="1033" v:metric="true" v:viewMarkup="false"/><style type="text/css"><![CDATA[
		.st1 {fill:#000000;stroke:none;stroke-linecap:butt;stroke-width:0.0299702}
		.st2 {fill:none;fill-rule:evenodd;font-size:12px;overflow:visible;stroke-linecap:square;stroke-miterlimit:3}
	]]></style><g v:mID="0" v:index="1" v:groupContext="foregroundPage"><title>Page-1</title><v:pageProperties v:drawingScale=".039" v:pageScale=".039" v:drawingUnits="24" v:shadowOffsetX="8.504" v:shadowOffsetY="-8.504"/><g id="shape18-1" v:mID="18" v:groupContext="shape" transform="translate(.03 -.03)"><title>Invoice 3</title><desc>00</desc><v:userDefs/><path d="M19.28 2.64v19.22c0 1.42-1.16 2.58-2.58 2.58H2.58C1.15 24.44 0 23.28 0 21.86V2.64C0 1.21 1.15.06 2.58.06H16.7c1.42 0 2.58 1.15 2.58 2.58zm-1.27-1.27H1.31v21.8h16.7V1.37zM3.89 2.64h1.27v1.27H3.89V2.64zm5.11 0h1.27v1.27H9V2.64zm5.12 0h1.27v1.27h-1.27V2.64zM2.58 6.49H16.7v15.37H2.58V6.49zm9 3.83v7.7h3.85v-7.7h-3.85zm-1.31 7.7v-7.7H3.89v7.7h6.38zm-6.38 1.27h6.42v1.26H3.89v-1.26z" class="st1"/></g></g></svg>