<svg xmlns="http://www.w3.org/2000/svg" xmlns:v="http://schemas.microsoft.com/visio/2003/SVGExtensions/" width="32.58" height="24.838" viewBox="0 0 24.4346 18.6282" color-interpolation-filters="sRGB" class="st2"><v:documentProperties v:langID="1044" v:metric="true" v:viewMarkup="false"/><style><![CDATA[
		.st1 {fill:#000000;stroke:none;stroke-linecap:butt;stroke-width:0.0283464}
		.st2 {fill:none;fill-rule:evenodd;font-size:12px;overflow:visible;stroke-linecap:square;stroke-miterlimit:3}
	]]></style><g v:mID="0" v:index="1" v:groupContext="foregroundPage"><title>Page-1</title><v:pageProperties v:drawingScale=".039" v:pageScale=".039" v:drawingUnits="24" v:shadowOffsetX="8.504" v:shadowOffsetY="-8.504"/><g id="shape2-1" v:mID="2" v:groupContext="shape" transform="translate(.028 -.028)"><title>Letter 2</title><path d="M17.72 3.83h2.9v2.9h-2.9v-2.9zm-.3-.58h-.29v.58h-.29v.58h.29v.58h-.29v.58h.29v.58h-.29v.58h.29v.58h.59v.29h.57v-.29h.59v.29h.57v-.29h.59v.29h.58v-.29h.58v-.58h.28v-.58h-.28v-.58h.28v-.58h-.28v-.58h.28v-.58h-.28v-.58h-.58v-.29h-.58v.29h-.59v-.29h-.57v.29h-.59v-.29h-.57v.29h-.3zM3.49 14.57v.58h7.54v-.58H3.49zm0-1.75v.59h9.86v-.59H3.49zm0-1.73v.57h5.22v-.57H3.49zm0-1.75v.59h2.32v-.59H3.49zM2.9.06C2.11.06 1.38.39.86.91.33 1.44 0 2.16 0 2.96v12.76c0 .8.33 1.53.86 2.05.52.53 1.25.86 2.04.86h18.57c.8 0 1.53-.33 2.05-.86.53-.52.86-1.25.86-2.05V2.96c0-.8-.33-1.52-.86-2.05C23 .39 22.27.06 21.47.06H2.9zm18.57 1.16c.48 0 .92.19 1.23.51h.01c.31.32.51.74.51 1.23v12.76c0 .48-.2.92-.51 1.23l-.01.01c-.31.31-.75.51-1.23.51H2.9c-.47 0-.91-.2-1.22-.51l-.01-.01c-.31-.31-.51-.75-.51-1.23V2.96c0-.49.2-.91.51-1.23h.01c.31-.32.75-.51 1.22-.51h18.57z" class="st1"/></g></g></svg>