<svg xmlns="http://www.w3.org/2000/svg" xmlns:v="http://schemas.microsoft.com/visio/2003/SVGExtensions/" width=".355in" height=".284in" viewBox="0 0 25.5718 20.4694" color-interpolation-filters="sRGB" class="st2"><v:documentProperties v:langID="1033" v:metric="true" v:viewMarkup="false"/><style type="text/css"><![CDATA[
		.st1 {fill:#000000;stroke:none;stroke-linecap:butt;stroke-width:0.0299702}
		.st2 {fill:none;fill-rule:evenodd;font-size:12px;overflow:visible;stroke-linecap:square;stroke-miterlimit:3}
	]]></style><g v:mID="0" v:index="1" v:groupContext="foregroundPage"><title>Page-1</title><v:pageProperties v:drawingScale=".039" v:pageScale=".039" v:drawingUnits="24" v:shadowOffsetX="8.504" v:shadowOffsetY="-8.504"/><g id="shape48-1" v:mID="48" v:groupContext="shape" transform="translate(.03 -.03)"><title>Logistics</title><path d="M9.24 17.91h7.03c.28 1.45 1.41 2.56 2.84 2.56 1.39 0 2.58-1.11 2.85-2.56h3.55V.06H9.28v3.81H2.33L0 8.96v8.95h2.37c.27 1.45 1.42 2.56 2.85 2.56 1.38 0 2.56-1.11 2.84-2.56h1.22-.04zM3.44 5.14L1.7 8.96h5.21V5.14H3.44zm-2.33 5.09l-.07 6.37h1.29c.28-1.44 1.43-2.55 2.85-2.55 1.38 0 2.57 1.11 2.84 2.55h1.22V5.14H8.09v5.12H1.11v-.03zm9.28 6.37h5.84c.28-1.44 1.42-2.55 2.85-2.55 1.39 0 2.57 1.11 2.85 2.55h2.36V1.32h-13.9V16.6z" class="st1"/></g></g></svg>