<svg xmlns="http://www.w3.org/2000/svg" xmlns:v="http://schemas.microsoft.com/visio/2003/SVGExtensions/" width="35.49" height="25.371" viewBox="0 0 26.6173 19.0284" color-interpolation-filters="sRGB" class="st2"><v:documentProperties v:langID="1044" v:metric="true" v:viewMarkup="false"/><style><![CDATA[
		.st1 {fill:#000000;stroke:none;stroke-linecap:butt;stroke-width:0.0283464}
		.st2 {fill:none;fill-rule:evenodd;font-size:12px;overflow:visible;stroke-linecap:square;stroke-miterlimit:3}
	]]></style><g v:mID="0" v:index="1" v:groupContext="foregroundPage"><title>Page-1</title><v:pageProperties v:drawingScale=".039" v:pageScale=".039" v:drawingUnits="24" v:shadowOffsetX="8.504" v:shadowOffsetY="-8.504"/><g id="shape16-1" v:mID="16" v:groupContext="shape" transform="translate(.028 -.028)"><title>Payment 3</title><path d="M8.23 7.01h18.33v12.02H8.23V7.01zm9.16 2.21c1.13 0 2.16.43 2.91 1.11.75.69 1.22 1.64 1.22 2.69s-.47 2-1.22 2.69c-.75.68-1.78 1.1-2.91 1.1-1.13 0-2.16-.42-2.9-1.1-.75-.69-1.22-1.64-1.22-2.69s.47-2 1.22-2.69c.74-.68 1.77-1.11 2.9-1.11zm.25 5.38h.63v-1.34h.34c.26 0 .36.15.38.4l.02.61c0 .12.01.24.08.33h.69v-.03c-.13-.07-.15-.23-.15-.57-.01-.66-.08-.9-.51-.96v-.01c.36-.08.53-.36.53-.78 0-.54-.31-.81-.84-.81h-1.17v3.16zm.63-2.7h.3c.29 0 .45.16.45.44 0 .34-.18.48-.49.48h-.26v-.92zm-3.02-.46v3.16h.65v-.94l.23-.36.65 1.3h.71l-.95-1.81.85-1.35h-.69l-.8 1.26v-1.26h-.65zm4.62-.65c-.63-.58-1.51-.93-2.48-.93s-1.84.35-2.48.93c-.63.58-1.01 1.36-1.01 2.23 0 .86.38 1.65 1.01 2.23.64.57 1.51.93 2.48.93s1.85-.36 2.48-.93c.62-.58 1.01-1.37 1.01-2.23 0-.87-.39-1.65-1.01-2.23zM2.54 3.85h2.52v1.26H2.54V3.85zm0-3.79h13.9c1.39 0 2.53 1.13 2.53 2.52v3.17h-1.26V2.58c0-.7-.58-1.26-1.27-1.26H2.54c-.7 0-1.28.56-1.28 1.26v5.07h5.7v2.52h-5.7c0 .69.58 1.27 1.28 1.27h4.42v1.26H2.54C1.14 12.7 0 11.56 0 10.17V2.58C0 1.19 1.14.06 2.54.06zm11.38 3.79h2.52v1.26h-2.52V3.85zm-3.8 0h2.52v1.26h-2.52V3.85zm-3.79 0h2.52v1.26H6.33V3.85zm5.69 4.42h10.74c0 1.39 1.14 2.53 2.54 2.53v4.43c-1.4 0-2.54 1.14-2.54 2.53H12.02c0-1.39-1.14-2.53-2.53-2.53V10.8c1.39 0 2.53-1.14 2.53-2.53z" class="st1"/></g></g></svg>