<svg xmlns="http://www.w3.org/2000/svg" xmlns:v="http://schemas.microsoft.com/visio/2003/SVGExtensions/" width=".331in" height=".308in" viewBox="0 0 23.841 22.1402" color-interpolation-filters="sRGB" class="st2"><v:documentProperties v:langID="1033" v:metric="true" v:viewMarkup="false"/><style type="text/css"><![CDATA[
		.st1 {fill:#000000;stroke:none;stroke-linecap:butt;stroke-width:0.0299702}
		.st2 {fill:none;fill-rule:evenodd;font-size:12px;overflow:visible;stroke-linecap:square;stroke-miterlimit:3}
	]]></style><g v:mID="0" v:index="1" v:groupContext="foregroundPage"><title>Page-1</title><v:pageProperties v:drawingScale=".039" v:pageScale=".039" v:drawingUnits="24" v:shadowOffsetX="8.504" v:shadowOffsetY="-8.504"/><g id="shape1-1" v:mID="1" v:groupContext="shape"><title>Phone call</title><path d="M8.43 15.07c.34.38.75.53 1.24.42.38-.08 1.17-.57 1.47-.79 1.35.86 2.74 1.72 4.09 2.66.52.36.64.89.75 1.45.07.41-.3.78-.6 1.01-.75.63-2.1 1.46-2.97 1.91-.79.41-1.65.15-2.36-.34C4.47 17.87.3 10.69.04 4.11 0 3.25.19 2.39.94 1.9 1.76 1.38 3.15.59 4.09.29c.34-.11.86-.26 1.17 0 .45.38.86.71.9 1.39.13 1.61.17 3.21.25 4.82-.33.15-1.12.6-1.38.86-.34.37-.41.82-.26 1.31.79 2.32 2.05 4.49 3.66 6.37v.03zm4.02-15h8.85c1.42 0 2.51 1.23 2.51 2.66v6.05c0 1.42-1.09 2.51-2.51 2.51h-3.56l-3.83 3.75v-3.75h-1.39c-1.42 0-2.51-1.09-2.51-2.51V2.61c0-1.38 1.05-2.58 2.44-2.58v.04zm0 1.23c-.68 0-1.16.64-1.16 1.35v6.17c0 .71.52 1.24 1.23 1.24h2.71v1.87l1.87-1.87h4.16c.71 0 1.24-.53 1.24-1.24V2.76c0-.71-.53-1.42-1.24-1.42h-8.85l.04-.04zm7.57 3.74h-1.23v1.23h1.23V5.04zm-3.74 0h1.24v1.23h-1.24V5.04zm-1.24 0H13.8v1.23h1.24V5.04z" class="st1"/></g></g></svg>