<svg xmlns="http://www.w3.org/2000/svg" xmlns:v="http://schemas.microsoft.com/visio/2003/SVGExtensions/" width="31.824" height="31.116" viewBox="0 0 23.8677 23.3368" color-interpolation-filters="sRGB" class="st2"><v:documentProperties v:langID="1044" v:metric="true" v:viewMarkup="false"/><style><![CDATA[
		.st1 {fill:#000000;stroke:none;stroke-linecap:butt;stroke-width:0.0283464}
		.st2 {fill:none;fill-rule:evenodd;font-size:12px;overflow:visible;stroke-linecap:square;stroke-miterlimit:3}
	]]></style><g v:mID="0" v:index="1" v:groupContext="foregroundPage"><title>Page-1</title><v:pageProperties v:drawingScale=".039" v:pageScale=".039" v:drawingUnits="24" v:shadowOffsetX="8.504" v:shadowOffsetY="-8.504"/><g id="shape6-1" v:mID="6" v:groupContext="shape" transform="translate(.028 -.028)"><title>Self-service machine 1</title><path d="M17.98 18.25c-.14-.17-.31-.31-.5-.43-.46-.27-.99-.35-1.52-.22-.06.01-.11.03-.17.05V14.5h3.74v3.75h-1.55zm-2.73-.32c-.21.15-.38.35-.52.58-.08.13-.18.25-.28.37-.1.1-.21.2-.33.26-.07.05-.13.08-.2.1v.01l-.1.03c-.1.03-.21.04-.31.04-.19 0-.36-.05-.53-.13-.19-.1-.35-.24-.5-.41-.82-.97-.74-1.94-1.04-3.08-.15-.55-.38-.99-.79-1.39-.59-.57-1.44-.89-2.21-1.11l-.21-.06.15-.16c.66-.68 1.15-1.51 1.3-2.45l.31-2.07c.35-2.28-1.8-4.12-3.97-4.12S1.7 6.18 2.05 8.46l.32 2.07c.14.94.63 1.77 1.29 2.45l.15.16-.21.06c-2.57.72-3.6 2.6-3.6 5.18v.94h.8v-.94c0-1.28.37-2.51 1.25-3.45.38-.41 1.11-.96 1.7-.96H8.3c.58 0 1.3.55 1.69.96.86.91.94 1.64 1.18 2.79.12.61.3 1.1.71 1.57.2.26.46.47.74.61.28.15.58.22.89.22.18 0 .36-.02.53-.07l.09-.03c.14-.05.28-.11.41-.19.17-.11.34-.25.48-.39.15-.16.28-.33.4-.52.16-.28.43-.47.74-.55.31-.08.64-.02.91.14s.47.43.55.74c.07.31.03.64-.14.91-.21.36-.47.68-.76.98-.28.28-.59.53-.93.74-.35.21-.72.37-1.11.49-.38.1-.77.16-1.17.16-.66 0-1.29-.14-1.88-.43-.61-.29-1.15-.73-1.59-1.24-.38-.38-.87.25-.62.5l.01.01c.51.6 1.14 1.1 1.85 1.45.7.33 1.45.52 2.23.52.47 0 .94-.07 1.39-.2.46-.14.9-.33 1.31-.58.39-.24.75-.54 1.08-.86.33-.34.63-.72.87-1.12.28-.47.36-1 .23-1.52-.02-.09-.05-.19-.09-.27h1.76V14.5h1.61v-.53h-8.03v.53h1.61v3.43zm.8-6.37h-5.88c-.08.19-.16.36-.26.54H21.4V2.47H8.02v1.4c.19.08.37.17.54.27V3.01h7.49v8.55zm4.82-6.15v1.61h-4.29V5.41h4.29zm-4.29-.54V3.01h4.29v1.86h-4.29zm4.29 4.82v1.87h-4.29V9.69h4.29zm-4.29-.53V7.55h4.29v1.61h-4.29zM5.62 3.51c.17-.03.36-.04.54-.04.08 0 .17.01.26.01V.86h16.59v19h.8V.06H5.62v3.45z" class="st1"/></g></g></svg>