<svg xmlns="http://www.w3.org/2000/svg" xmlns:v="http://schemas.microsoft.com/visio/2003/SVGExtensions/" width=".371in" height=".3in" viewBox="0 0 26.7056 21.6032" color-interpolation-filters="sRGB" class="st2"><v:documentProperties v:langID="1033" v:metric="true" v:viewMarkup="false"/><style type="text/css"><![CDATA[
		.st1 {fill:#000000;stroke:none;stroke-linecap:butt;stroke-width:0.0299702}
		.st2 {fill:none;fill-rule:evenodd;font-size:12px;overflow:visible;stroke-linecap:square;stroke-miterlimit:3}
	]]></style><g v:mID="0" v:index="1" v:groupContext="foregroundPage"><title>Page-1</title><v:pageProperties v:drawingScale=".039" v:pageScale=".039" v:drawingUnits="24" v:shadowOffsetX="8.504" v:shadowOffsetY="-8.504"/><g id="shape37-1" v:mID="37" v:groupContext="shape" transform="translate(.03 -.03)"><title>Service desk 2</title><path d="M11.28 8.39c-.64-.61-1.22-1.45-1.38-2.45L9.61 4C9.29 1.87 11.28.06 13.32.06c2.05 0 4.02 1.81 3.7 3.94l-.29 1.94c-.16 1-.69 1.84-1.36 2.45h.26c2.54.58 4.65 2.23 4.65 4.91v.75h6.37v2.16h-2.11v5.39H2.14v-5.39H0v-2.16h6.38v-.75c0-2.68 2.11-4.33 4.67-4.91h.23zm2.04.03c.39-.09.99-.51 1.22-.74.54-.49 1.02-1.15 1.12-1.9l.28-1.94c.22-1.48-1.27-2.68-2.65-2.68-1.37 0-2.88 1.23-2.65 2.68l.28 1.94c.13.75.58 1.41 1.12 1.9.26.23.84.65 1.22.74h.06zm2.15 1.04h-1.64v4.59h5.33v-.75c0-2.19-1.82-3.36-3.69-3.84zm-2.69 0h-1.6c-1.92.48-3.74 1.65-3.74 3.84v.75h5.34V9.46z" class="st1"/></g></g></svg>