<svg xmlns="http://www.w3.org/2000/svg" xmlns:v="http://schemas.microsoft.com/visio/2003/SVGExtensions/" width=".355in" height=".312in" viewBox="0 0 25.5718 22.4536" color-interpolation-filters="sRGB" class="st2"><v:documentProperties v:langID="1033" v:metric="true" v:viewMarkup="false"/><style type="text/css"><![CDATA[
		.st1 {fill:#000000;stroke:none;stroke-linecap:butt;stroke-width:0.0299702}
		.st2 {fill:none;fill-rule:evenodd;font-size:12px;overflow:visible;stroke-linecap:square;stroke-miterlimit:3}
	]]></style><g v:mID="0" v:index="1" v:groupContext="foregroundPage"><title>Page-1</title><v:pageProperties v:drawingScale=".039" v:pageScale=".039" v:drawingUnits="24" v:shadowOffsetX="8.504" v:shadowOffsetY="-8.504"/><g id="shape31-1" v:mID="31" v:groupContext="shape" transform="translate(.03 -.03)"><title>Shop counter 2</title><path d="M0 9.01h5.98V7.53h-4.5V.06h12v7.47h-4.5v1.48h7.51v-3h6.02v3h3v13.44H.04V9.01H0zm1.48 1.48h15.01v6.01h6.02v-6.01h1.47v10.48H1.48V10.49zm1.49-8.95h8.98v4.47H2.97V1.54zm17.97 5.95h-3.01v7.49h3.01V7.49zm1.48 10.48v1.48h-5.98v-1.48h5.98zm-8.99 0v1.48h-4.5v-1.48h4.5zm-10.51 0h4.5v1.48h-4.5v-1.48zm8.98-2.99h1.49v1.48H11.9v-1.48zm-3.01 0h1.48v1.48H8.89v-1.48zm-3 0h1.48v1.48H5.89v-1.48zm-3.01 0h1.48v1.48H2.88v-1.48zm8.98-3.01h1.48v1.48h-1.48v-1.48zm-3.02 0h1.49v1.48H8.84v-1.48zm-2.99 0h1.48v1.48H5.85v-1.48zm-3.02 0h1.49v1.48H2.83v-1.48z" class="st1"/></g></g></svg>