<svg xmlns="http://www.w3.org/2000/svg" xmlns:v="http://schemas.microsoft.com/visio/2003/SVGExtensions/" width=".316in" height=".276in" viewBox="0 0 22.7371 19.9025" color-interpolation-filters="sRGB" class="st2"><v:documentProperties v:langID="1033" v:metric="true" v:viewMarkup="false"/><style type="text/css"><![CDATA[
		.st1 {fill:#000000;stroke:none;stroke-linecap:butt;stroke-width:0.0299702}
		.st2 {fill:none;fill-rule:evenodd;font-size:12px;overflow:visible;stroke-linecap:square;stroke-miterlimit:3}
	]]></style><g v:mID="0" v:index="1" v:groupContext="foregroundPage"><title>Page-1</title><v:pageProperties v:drawingScale=".039" v:pageScale=".039" v:drawingUnits="24" v:shadowOffsetX="8.504" v:shadowOffsetY="-8.504"/><g id="shape33-1" v:mID="33" v:groupContext="shape" transform="translate(.03 -.03)"><title>Telephone 2</title><path d="M0 .06h22.68V19.9H0V.06zm1.18 1.31v17.22h4.76V1.37H1.18zm15.53 13.26h2.39v2.65h-2.39v-2.65zm-3.58 0h2.4v2.65h-2.4v-2.65zm-3.58 0h2.4v2.65h-2.4v-2.65zm7.16-3.97h2.39v2.66h-2.39v-2.66zm-3.58 0h2.4v2.66h-2.4v-2.66zm-3.58 0h2.4v2.66h-2.4v-2.66zm7.16-3.98h2.39v2.67h-2.39V6.68zm-3.58 0h2.4v2.67h-2.4V6.68zm-3.58 0h2.4v2.67h-2.4V6.68zm0-3.97h9.55v2.66H9.55V2.71zm-2.4 15.88h14.31V1.37H7.15v17.22z" class="st1"/></g></g></svg>