<svg xmlns="http://www.w3.org/2000/svg" xmlns:v="http://schemas.microsoft.com/visio/2003/SVGExtensions/" width=".355in" height=".3in" viewBox="0 0 25.5502 21.6006" color-interpolation-filters="sRGB" class="st2"><v:documentProperties v:langID="1033" v:metric="true" v:viewMarkup="false"/><style type="text/css"><![CDATA[
		.st1 {fill:#000000;stroke:none;stroke-linecap:butt;stroke-width:0.0286625}
		.st2 {fill:none;fill-rule:evenodd;font-size:12px;overflow:visible;stroke-linecap:square;stroke-miterlimit:3}
	]]></style><g v:mID="0" v:index="1" v:groupContext="foregroundPage"><title>Page-1</title><v:pageProperties v:drawingScale=".039" v:pageScale=".039" v:drawingUnits="24" v:shadowOffsetX="8.504" v:shadowOffsetY="-8.504"/><g id="shape32-1" v:mID="32" v:groupContext="shape" transform="translate(.019 -.029)"><title>Telephone 1</title><path d="M23.58 2.57c.45.23.91.58 1.25.96.38.43.61.97.64 1.62.04.62.04 1.43 0 2.2-.03.62-.07 1.24-.19 1.7-.03.23-.11.5-.22.78-.15.34-.42.65-.8.81-.72.27-1.36.5-2.24.03-.45-.19-.87-.42-1.28-.61.11 1.35.53 1.43.87 1.54.87.23 1.7.43 1.7 3.01v6.99H2.2v-6.99c0-2.58.83-2.82 1.7-3.01.38-.08.76-.19.88-1.54-.42.23-.88.42-1.29.61-.87.47-1.52.2-2.24-.03-.38-.16-.64-.47-.8-.81-.11-.28-.18-.55-.22-.78-.12-.46-.15-1.08-.19-1.7C0 6.58 0 5.73.04 5.15.08 4.5.3 4 .68 3.53c.34-.38.8-.73 1.25-.96C5.12.87 8.98.06 12.81.06c3.83 0 7.7.85 10.88 2.51h-.11zm-8.23 3.05v2.55H10.08V5.62c-.38.04-.75.07-1.13.11-.16.04-.27.08-.38.2-.08.07-.15.15-.19.27-.04.11-.04.34-.04.58 0 .34 0 .69.04.88l.04.47-.42.19c-.57.31-.84.42-1.14.58l-.76.42c-.07 3.05-1.02 3.32-1.93 3.52-.38.07-.72.19-.72 1.73v5.64h18.5v-5.64c0-1.54-.34-1.62-.72-1.73-.91-.24-1.86-.47-1.94-3.56l-.75-.42c-.31-.15-.57-.31-1.14-.58l-.42-.19.04-.47c.04-.19.04-.54.04-.88 0-.24-.04-.47-.04-.58-.04-.12-.11-.23-.19-.27-.07-.08-.23-.16-.38-.2-.38-.03-.76-.07-1.14-.11l.04.04zm-3.98-.08v1.31h2.66V5.54c-.46-.04-.88-.04-1.33-.04-.46 0-.87 0-1.33.04zm1.33 5.29c1.4 0 2.65.35 3.6.89 1.06.61 1.71 1.46 1.71 2.47 0 1-.65 1.89-1.71 2.47-.95.54-2.2.89-3.6.89s-2.65-.35-3.6-.89c-1.06-.62-1.71-1.47-1.71-2.47 0-1.01.65-1.89 1.71-2.47.95-.54 2.2-.89 3.6-.89zm2.96 2.05c-.76-.43-1.79-.7-2.96-.7-1.18 0-2.2.27-2.96.7-.64.34-1.02.84-1.02 1.31 0 .5.38.96 1.02 1.31.76.43 1.78.7 2.96.7 1.17 0 2.2-.27 2.96-.7.64-.39 1.02-.85 1.02-1.31 0-.5-.38-.97-1.02-1.31zm8.18-8.46c-.22-.27-.53-.46-.87-.66-2.99-1.58-6.63-2.35-10.27-2.35-3.64 0-7.28.77-10.27 2.35-.35.2-.65.39-.88.66-.19.23-.3.5-.34.81-.03.58-.03 1.35 0 2.09.04.54.08 1.08.15 1.5.04.16.08.35.16.46.03.04.03.08.03.08.42.16.84.31 1.22.12h.04c1.17-.54 2.27-1.12 3.41-1.7l.75-.39v-.61c0-.35.04-.7.12-.89v-.04c.11-.39.3-.66.57-.93.26-.23.6-.38.95-.46h.07c1.33-.19 2.65-.27 3.98-.27s2.65.08 3.98.27h.08c.38.08.68.23.94.46.27.23.46.54.57.93v.04c.08.23.08.54.12.89v.61l.76.39c1.09.58 2.23 1.2 3.41 1.7h.04c.37.19.75.04 1.21-.12 0 0 0-.04.04-.08.07-.15.11-.3.15-.46.07-.42.15-.96.15-1.5.04-.74.04-1.51 0-2.09 0-.31-.15-.58-.34-.81h.07z" class="st1"/></g></g></svg>