<svg xmlns="http://www.w3.org/2000/svg" xmlns:v="http://schemas.microsoft.com/visio/2003/SVGExtensions/" width="19.729" height="33.909" viewBox="0 0 14.7969 25.4316" color-interpolation-filters="sRGB" class="st2"><v:documentProperties v:langID="1044" v:metric="true" v:viewMarkup="false"/><style><![CDATA[
		.st1 {fill:#000000;stroke:none;stroke-linecap:butt;stroke-width:0.0283464}
		.st2 {fill:none;fill-rule:evenodd;font-size:12px;overflow:visible;stroke-linecap:square;stroke-miterlimit:3}
	]]></style><g v:mID="0" v:index="1" v:groupContext="foregroundPage"><title>Page-1</title><v:pageProperties v:drawingScale=".039" v:pageScale=".039" v:drawingUnits="24" v:shadowOffsetX="8.504" v:shadowOffsetY="-8.504"/><g id="shape22-1" v:mID="22" v:groupContext="shape" transform="translate(.028 -.028)"><title>Unknown channel</title><path d="M6.55 20.53c-1.35 0-2.46 1.09-2.46 2.44 0 1.36 1.11 2.46 2.46 2.46 1.36 0 2.46-1.1 2.46-2.46 0-1.35-1.1-2.44-2.46-2.44zm-1.63-2.46h3.27v-3.09c0-1.04 1.1-1.49 2.11-1.91.5-.2.98-.4 1.39-.63.93-.51 1.74-1.33 2.3-2.44.47-.94.75-2.08.75-3.39 0-1.93-.83-3.57-2.2-4.74C11.21.73 9.38.06 7.38.06S3.55.73 2.2 1.88C.85 3.04 0 4.67 0 6.61v.81h3.27v-.81c0-.92.41-1.69 1.06-2.26.75-.64 1.83-1.01 3.05-1.01 1.21 0 2.29.37 3.03 1.01.65.55 1.06 1.34 1.06 2.26 0 .78-.15 1.43-.41 1.92-.24.5-.58.85-.94 1.05-.32.18-.68.32-1.05.47-1.98.82-4.15 1.71-4.15 4.93v3.09z" class="st1"/></g></g></svg>