<svg xmlns="http://www.w3.org/2000/svg" xmlns:v="http://schemas.microsoft.com/visio/2003/SVGExtensions/" width="34.054" height="30.274" viewBox="0 0 25.5402 22.7055" color-interpolation-filters="sRGB" class="st2"><v:documentProperties v:langID="1044" v:metric="true" v:viewMarkup="false"/><style><![CDATA[
		.st1 {fill:#000000;stroke:none;stroke-linecap:butt;stroke-width:0.0283464}
		.st2 {fill:none;fill-rule:evenodd;font-size:12px;overflow:visible;stroke-linecap:square;stroke-miterlimit:3}
	]]></style><g v:mID="0" v:index="1" v:groupContext="foregroundPage"><title>Page-1</title><v:pageProperties v:drawingScale=".039" v:pageScale=".039" v:drawingUnits="24" v:shadowOffsetX="8.504" v:shadowOffsetY="-8.504"/><g id="shape26-1" v:mID="26" v:groupContext="shape" transform="translate(0 -.028)"><title>Online bank 2</title><path d="M4.66 17.26H5.8V8.09H4.66v9.17zm14.28-7.74c1.82 0 3.45.74 4.64 1.93 1.19 1.2 1.93 2.84 1.93 4.67 0 1.82-.74 3.46-1.93 4.65-1.19 1.2-2.82 1.94-4.64 1.94-1.82 0-3.45-.74-4.65-1.94-1.19-1.19-1.92-2.83-1.92-4.65 0-1.83.73-3.47 1.92-4.67 1.2-1.19 2.83-1.93 4.65-1.93zm3.17 2.17c-.37-.27-.79-.5-1.23-.67l-.6 1.95-.06.2H18.7l-.84.85.22.43 1.68.68.29.12-.14.28s-.28.54-.25.58c.21.24.28.67.28.67l.02.12-.08.09-1.78 2.51-.17.24-.23-.18-1.43-1.07-.15-.12.05-.17.31-1.28-.95-.97-.15-.14.09-.18.36-.72.21-.42-.76-.26-.13-.04-.05-.12-.49-1.24c-.3.39-.55.83-.73 1.3-.24.61-.37 1.28-.37 1.99 0 1.5.61 2.86 1.59 3.84.98.99 2.34 1.6 3.84 1.6 1.05 0 2.02-.3 2.85-.81.77-.48 1.42-1.16 1.88-1.95l-2-1-.16-.08v-1.9h1.54l.22-.43-.66-1.3-.06-.13.06-.13.57-1.13c-.31-.38-.67-.72-1.07-1.01zm-18.6-3.6H.66c-.19 0-.37-.09-.48-.26-.18-.26-.11-.62.16-.8L10.61.17l.02-.01c.18-.12.43-.13.63 0l10.28 6.87c.15.1.25.28.25.48 0 .32-.25.58-.56.58h-2.86v.59c-.39.03-.77.09-1.14.18v-.77h-1.15v1.14c-.4.17-.78.37-1.14.61V8.09h-2.29v4.05c-.72 1.15-1.14 2.51-1.14 3.98V8.09h-1.14v9.17h1.14v-1.14c0 .79.13 1.56.36 2.29H2.36v1.14h9.99c.21.41.45.79.74 1.15H1.22v-3.44h2.29V8.09zm5.71 0H6.94v9.17h2.28V8.09zM2.54 6.94h16.8l-8.4-5.62-8.4 5.62z" class="st1"/></g></g></svg>