<svg xmlns:v="http://schemas.microsoft.com/visio/2003/SVGExtensions/" xmlns="http://www.w3.org/2000/svg" xmlns:xlink="http://www.w3.org/1999/xlink" width="35.016" height="31.236" viewBox="0 0 26.2618 23.4272" color-interpolation-filters="sRGB" class="st2" id="svg2"><defs id="defs38"><clipPath id="mfid1"><path id="mfid2" d="M0 0h1605.9v1416.8H0z"/></clipPath></defs><v:documentProperties v:langID="1044" v:metric="true" v:viewMarkup="false"/><style id="style4"><![CDATA[
		.st1 {fill:none;stroke:none;stroke-linecap:round;stroke-linejoin:round;stroke-width:0.75}
		.st2 {fill:none;fill-rule:evenodd;font-size:12px;overflow:visible;stroke-linecap:square;stroke-miterlimit:3}
	]]></style><g clip-path="url(#mfid1)" id="g23" transform="matrix(.0159 0 0 .016 .612 .51)"><defs id="defs25"><g id="mfid3" style="fill:#000000"><path d="M986 855v290h59v-86l21-33 60 119h66l-88-166 79-124h-64l-73 116h-1V855h-59zm190-255c110 0 210 45 283 117 72 73 117 172 117 283s-45 211-117 283c-73 72-173 117-283 117-111 0-211-45-283-117-73-72-117-172-117-283s44-210 117-283c72-72 172-117 283-117zm235 164c-60-60-143-97-235-97s-176 37-236 97c-61 61-98 144-98 236s37 175 98 236c60 60 144 98 236 98s175-38 235-98c60-61 98-144 98-236s-38-175-98-236zm-206 381h58v-122h32c24 0 33 13 34 36l2 56c0 11 1 22 7 30h64v-2c-11-6-13-21-13-52-2-62-7-83-47-89v-1c33-7 48-32 48-71 0-50-29-75-77-75h-108v290zm58-247h28c27 0 41 13 41 40 0 32-16 44-44 44h-25v-84zm-996 102h66V467h-66v533zm467-149V467h133v183c21-18 43-34 66-49V467h67v101c21-9 44-16 67-22v-79h166c19 0 33-15 33-33 0-12-6-23-15-29L652 5c-12-7-26-7-37 0l-1 1L15 406c-16 10-19 30-10 46 7 9 17 15 28 15h167v533H66v200h688c-10-21-19-44-26-67H134v-66h580c-3-22-5-44-5-67 0-52 8-102 25-149zM533 467H400v533h133V467zm-390-67h980L633 74 143 400zm457 600h66V467h-66v533z" id="path28"/></g></defs><g stroke-miterlimit="10" id="g30" fill-rule="evenodd" stroke="#000"><use xlink:href="#mfid3" id="use32" width="100%" height="100%" stroke="none"/></g></g></svg>