<svg xmlns="http://www.w3.org/2000/svg" xmlns:v="http://schemas.microsoft.com/visio/2003/SVGExtensions/" width=".24in" height=".343in" viewBox="0 0 17.2554 24.7056" color-interpolation-filters="sRGB" class="st2"><v:documentProperties v:langID="1033" v:metric="true" v:viewMarkup="false"/><style type="text/css"><![CDATA[
		.st1 {fill:#000000;stroke:none;stroke-linecap:butt;stroke-width:0.0286625}
		.st2 {fill:none;fill-rule:evenodd;font-size:12px;overflow:visible;stroke-linecap:square;stroke-miterlimit:3}
	]]></style><g v:mID="0" v:index="1" v:groupContext="foregroundPage"><title>Page-1</title><v:pageProperties v:drawingScale=".039" v:pageScale=".039" v:drawingUnits="24" v:shadowOffsetX="8.504" v:shadowOffsetY="-8.504"/><g id="shape60-1" v:mID="60" v:groupContext="shape" transform="translate(.029 -.029)"><title>User 11</title><path d="M3.43 11.59V6.75c0-6.72 10.34-6.72 10.34 0v4.84c0 1.12-.29 2.08-.79 2.84 1.06.19 2.01.75 2.74 1.54.92.99 1.48 2.34 1.48 3.86v4.88h-5.73v-8.83c-1.72 1.02-4.02 1.02-5.74 0v8.83H0v-4.88c0-1.48.56-2.87 1.48-3.86.73-.79 1.68-1.35 2.74-1.54-.5-.76-.79-1.72-.79-2.84zm1.15-4.15h8.04v4.15c0 5.21-8.04 5.21-8.04 0V7.44z" class="st1"/></g></g></svg>