<svg xmlns="http://www.w3.org/2000/svg" xmlns:v="http://schemas.microsoft.com/visio/2003/SVGExtensions/" width=".241in" height=".32in" viewBox="0 0 17.3366 23.0743" color-interpolation-filters="sRGB" class="st2"><v:documentProperties v:langID="1033" v:metric="true" v:viewMarkup="false"/><style type="text/css"><![CDATA[
		.st1 {fill:#000000;stroke:none;stroke-linecap:butt;stroke-width:0.0286625}
		.st2 {fill:none;fill-rule:evenodd;font-size:12px;overflow:visible;stroke-linecap:square;stroke-miterlimit:3}
	]]></style><g v:mID="0" v:index="1" v:groupContext="foregroundPage"><title>Page-1</title><v:pageProperties v:drawingScale=".039" v:pageScale=".039" v:drawingUnits="24" v:shadowOffsetX="8.504" v:shadowOffsetY="-8.504"/><g id="shape68-1" v:mID="68" v:groupContext="shape" transform="translate(.029 -.029)"><title>Employee 2</title><path d="M0 23.07v-4.88c0-1.18.36-2.27.96-3.16l1.15-8.64C2.54 3.29 5.31.06 8.64.06s6.1 3.23 6.53 6.33l1.15 8.64c.6.89.96 1.98.96 3.16v4.88h-5.74v-4.61H5.8v4.61H0zM4.62 5.83h8.04v4.15c0 5.21-8.04 5.21-8.04 0V5.83zm6.89 8.44v3.07H5.77v-3.07c1.72 1.02 4.02 1.02 5.74 0z" class="st1"/></g></g></svg>