<svg xmlns="http://www.w3.org/2000/svg" xmlns:v="http://schemas.microsoft.com/visio/2003/SVGExtensions/" width=".24in" height=".32in" viewBox="0 0 17.3036 23.0743" color-interpolation-filters="sRGB" class="st2"><v:documentProperties v:langID="1033" v:metric="true" v:viewMarkup="false"/><style type="text/css"><![CDATA[
		.st1 {fill:#000000;stroke:none;stroke-linecap:butt;stroke-width:0.0286625}
		.st2 {fill:none;fill-rule:evenodd;font-size:12px;overflow:visible;stroke-linecap:square;stroke-miterlimit:3}
	]]></style><g v:mID="0" v:index="1" v:groupContext="foregroundPage"><title>Page-1</title><v:pageProperties v:drawingScale=".039" v:pageScale=".039" v:drawingUnits="24" v:shadowOffsetX="8.504" v:shadowOffsetY="-8.504"/><g id="shape71-1" v:mID="71" v:groupContext="shape" transform="translate(.029 -.029)"><title>Employee 5</title><path d="M3.46 9.95V5.1c0-2.44 1.35-3.99 3.1-4.65C7.22.19 7.95.06 8.64.06c.73 0 1.42.13 2.08.39 1.74.7 3.1 2.25 3.1 4.65v4.85c0 1.12-.3 2.08-.79 2.84 1.05.19 2.01.75 2.73 1.55.93.99 1.49 2.34 1.49 3.85v4.88h-5.74v-8.83c-.27.16-.53.26-.79.39-.5.2-.99.3-1.52.37v.03l1.15 8.04H6.89l1.16-8.04V15c-.53-.07-1.03-.17-1.52-.37-.26-.1-.53-.23-.79-.39v8.83H0v-4.88c0-1.48.56-2.86 1.48-3.85.73-.8 1.69-1.36 2.74-1.55-.49-.76-.79-1.72-.79-2.84h.03zM4.62 5.8h8.04v4.15c0 1.88-1.02 3.07-2.34 3.59-.53.2-1.09.3-1.68.3-.56 0-1.15-.1-1.68-.3-1.32-.52-2.34-1.71-2.34-3.59V5.8z" class="st1"/></g></g></svg>