<svg id="Layer_1" data-name="Layer 1" xmlns="http://www.w3.org/2000/svg" viewBox="0 0 74.19 94.66"><defs><style>.cls-1{fill:#231f20;}</style></defs><title>cyber security icon 8 juli</title><path class="cls-1" d="M53.337,50.831a18.228,18.228,0,0,0,2.44-9.109V23.371A18.393,18.393,0,0,0,37.4,5h-.657A18.392,18.392,0,0,0,18.375,23.371V41.722a18.24,18.24,0,0,0,2.446,9.12A27.276,27.276,0,0,0,5,75.555V89.661H9V75.555a23.224,23.224,0,0,1,7.44-17V89.661h9.554V56.586a18.226,18.226,0,0,0,8.418,3.344l-3.45,29.731H43.229L39.778,59.923a18.221,18.221,0,0,0,8.61-3.521V89.661h9.554V58.748a23.328,23.328,0,0,1,7.249,16.807V89.661h4V75.555A27.409,27.409,0,0,0,53.337,50.831ZM23.145,54.2c.036-.015.071-.034.107-.05.016.018.035.033.051.05Zm14.259,1.9h-.657A14.389,14.389,0,0,1,22.375,41.722V26.069h29.4V41.722A14.389,14.389,0,0,1,37.4,56.094Zm13.443-1.9c.02-.021.043-.039.062-.061.045.019.088.042.132.061Z"/></svg>