<svg xmlns="http://www.w3.org/2000/svg" xmlns:v="http://schemas.microsoft.com/visio/2003/SVGExtensions/" width=".241in" height=".323in" viewBox="0 0 17.3791 23.2525" color-interpolation-filters="sRGB" class="st2"><v:documentProperties v:langID="1033" v:metric="true" v:viewMarkup="false"/><style type="text/css"><![CDATA[
		.st1 {fill:#000000;stroke:none;stroke-linecap:butt;stroke-width:0.0286625}
		.st2 {fill:none;fill-rule:evenodd;font-size:12px;overflow:visible;stroke-linecap:square;stroke-miterlimit:3}
	]]></style><g v:mID="0" v:index="1" v:groupContext="foregroundPage"><title>Page-1</title><v:pageProperties v:drawingScale=".039" v:pageScale=".039" v:drawingUnits="24" v:shadowOffsetX="8.504" v:shadowOffsetY="-8.504"/><g id="shape58-1" v:mID="58" v:groupContext="shape" transform="translate(.029 -.029)"><title>User 9</title><path d="M.9 15.12l1.16-8.69C2.49 3.31 5.28.06 8.63.06s6.14 3.25 6.57 6.37l1.16 8.69c.6.9.96 1.99.96 3.19v4.91h-1.16v-4.91c0-1.2-.46-2.29-1.19-3.09-.73-.76-1.73-1.26-2.82-1.26h-.07c-.17.13-.37.27-.53.37v8.89H5.77v-8.86c-.2-.1-.36-.23-.53-.37h-.06c-1.1 0-2.09.5-2.82 1.27-.73.79-1.2 1.89-1.2 3.08v4.91H0v-4.91c0-1.19.37-2.29.96-3.18l-.06-.04zm5.97 2.33h3.48v-2.59c-.56.16-1.16.26-1.72.26-.6 0-1.16-.1-1.73-.26v2.59h-.03zM4.55 5.86h8.09v4.19c0 1.89-1.03 3.08-2.35 3.61-.53.2-1.1.3-1.7.3-.56 0-1.16-.1-1.69-.3-1.33-.53-2.35-1.72-2.35-3.61V5.86z" class="st1"/></g></g></svg>