<svg id="Layer_1" data-name="Layer 1" xmlns="http://www.w3.org/2000/svg" viewBox="0 0 74.19 94.66"><defs><style>.cls-1{fill:#231f20;}</style></defs><title>cyber security icon 8 juli</title><path class="cls-1" d="M53.337,50.831a18.228,18.228,0,0,0,2.44-9.109V23.371A18.393,18.393,0,0,0,37.4,5h-.657A18.392,18.392,0,0,0,18.375,23.371V41.722a18.24,18.24,0,0,0,2.446,9.12A27.276,27.276,0,0,0,5,75.555V89.661H9V75.555a23.224,23.224,0,0,1,7.44-17V89.661h41.5V58.748a23.328,23.328,0,0,1,7.249,16.807V89.661h4V75.555A27.409,27.409,0,0,0,53.337,50.831ZM37.4,56.094h-.657A14.389,14.389,0,0,1,22.375,41.722V26.069h29.4V41.722A14.389,14.389,0,0,1,37.4,56.094ZM23.252,54.146c.017.018.035.033.051.05h-.158C23.181,54.181,23.216,54.162,23.252,54.146ZM27.387,57.5a18.161,18.161,0,0,0,9.36,2.6H37.4a18.158,18.158,0,0,0,9.41-2.628L37.1,85.433Zm23.46-3.3c.02-.021.043-.039.062-.061.045.019.088.042.132.061Z"/><polygon class="cls-1" points="37.095 63.632 32.402 60.922 32.402 67.496 37.095 64.786 41.788 67.496 41.788 60.922 37.095 63.632"/><circle class="cls-1" cx="37.095" cy="71.26" r="1.605"/></svg>