<svg xmlns="http://www.w3.org/2000/svg" xmlns:v="http://schemas.microsoft.com/visio/2003/SVGExtensions/" width=".239in" height=".342in" viewBox="0 0 17.2154 24.6483" color-interpolation-filters="sRGB" class="st2"><v:documentProperties v:langID="1033" v:metric="true" v:viewMarkup="false"/><style type="text/css"><![CDATA[
		.st1 {fill:#000000;stroke:none;stroke-linecap:butt;stroke-width:0.0286625}
		.st2 {fill:none;fill-rule:evenodd;font-size:12px;overflow:visible;stroke-linecap:square;stroke-miterlimit:3}
	]]></style><g v:mID="0" v:index="1" v:groupContext="foregroundPage"><title>Page-1</title><v:pageProperties v:drawingScale=".039" v:pageScale=".039" v:drawingUnits="24" v:shadowOffsetX="8.504" v:shadowOffsetY="-8.504"/><g id="shape61-1" v:mID="61" v:groupContext="shape" transform="translate(.029 -.029)"><title>User 12</title><path d="M0 24.65v-4.87c0-1.48.56-2.86 1.48-3.84.72-.79 1.68-1.35 2.73-1.55-.5-.75-.79-1.71-.79-2.82V6.73c0-6.7 10.32-6.7 10.32 0v4.84c0 1.11-.3 2.07-.79 2.82 1.05.2 2.01.76 2.73 1.55.92.98 1.48 2.33 1.48 3.84v4.87h-5.72v-8.81c-1.71 1.02-4.01 1.02-5.72 0v8.81H0zM4.6 6.73v4.84c0 5.19 8.02 5.19 8.02 0V6.73c0-5.19-8.02-5.19-8.02 0z" class="st1"/></g></g></svg>