<svg id="Layer_1" data-name="Layer 1" xmlns="http://www.w3.org/2000/svg" viewBox="0 0 74.19 94.66"><title>cyber security icon 8 juli</title><path d="M48.156,77.449v-4H44.52a7.555,7.555,0,0,0-.769-1.828l2.579-2.579L43.5,66.214l-2.6,2.6a7.542,7.542,0,0,0-1.8-.721V64.389h-4v3.757a7.614,7.614,0,0,0-1.731.744l-2.676-2.676L27.86,69.042l2.7,2.7a7.543,7.543,0,0,0-.7,1.707H26.034v4h3.831a7.505,7.505,0,0,0,.7,1.707l-2.7,2.7,2.828,2.828,2.676-2.676a7.526,7.526,0,0,0,1.731.744v3.759h4V82.8a7.542,7.542,0,0,0,1.8-.721l2.6,2.6,2.828-2.828-2.579-2.579a7.555,7.555,0,0,0,.769-1.828Zm-7.39-1.7a3.6,3.6,0,1,1,0-.589Z"/><path d="M53.337,50.832a18.235,18.235,0,0,0,2.44-9.11V23.371A18.393,18.393,0,0,0,37.4,5h-.656A18.393,18.393,0,0,0,18.375,23.371V41.722a18.239,18.239,0,0,0,2.45,9.126A27.126,27.126,0,0,0,5,75.555V89.661H9V75.555a23.148,23.148,0,0,1,14.244-21.42,18.3,18.3,0,0,0,13.505,5.959H37.4a18.312,18.312,0,0,0,13.512-5.966A23.1,23.1,0,0,1,65.191,75.555V89.661h4V75.555A27.067,27.067,0,0,0,53.337,50.832ZM37.4,56.094h-.656A14.389,14.389,0,0,1,22.375,41.722V26.069h29.4V41.722A14.389,14.389,0,0,1,37.4,56.094Z"/></svg>