<svg id="Layer_1" data-name="Layer 1" xmlns="http://www.w3.org/2000/svg" viewBox="0 0 74.19 94.66"><title>cyber security icon 8 juli</title><path d="M48.156,77.45v-4H44.52a7.515,7.515,0,0,0-.769-1.828l2.579-2.579L43.5,66.215l-2.6,2.6a7.591,7.591,0,0,0-1.8-.721V64.389h-4v3.758a7.526,7.526,0,0,0-1.731.744l-2.676-2.676L27.86,69.043l2.7,2.7a7.573,7.573,0,0,0-.7,1.707h-3.83v4h3.831a7.516,7.516,0,0,0,.7,1.706l-2.7,2.7,2.828,2.828,2.676-2.675a7.57,7.57,0,0,0,1.731.744v3.758h4V82.8a7.55,7.55,0,0,0,1.8-.721l2.6,2.6,2.828-2.828-2.579-2.579a7.508,7.508,0,0,0,.769-1.827Zm-8.42.55a3.6,3.6,0,1,1,0-5.1h0a3.582,3.582,0,0,1,1.027,2.253v.589a3.589,3.589,0,0,1-1.024,2.249Z"/><path d="M53.439,50.878,68.28,46.894,57.363,20.034a22.2,22.2,0,0,0-5.49-7.946A18.334,18.334,0,0,0,37.4,5h-.656a18.336,18.336,0,0,0-14.576,7.232,22.2,22.2,0,0,0-5.345,7.8L5.91,46.894,20.757,50.88A27.123,27.123,0,0,0,5,75.556V89.661H9V75.556A23.151,23.151,0,0,1,23.243,54.135,18.306,18.306,0,0,0,36.748,60.1H37.4a18.309,18.309,0,0,0,13.512-5.967A23.094,23.094,0,0,1,65.19,75.556V89.661h4V75.556A27.065,27.065,0,0,0,53.439,50.878ZM37.4,56.1h-.656A14.39,14.39,0,0,1,22.375,41.722V25.916h29.4V41.722A14.39,14.39,0,0,1,37.4,56.1Z"/><path d="M37.095,6.426h0A16.395,16.395,0,0,1,53.49,22.82v3.248a0,0,0,0,1,0,0H20.7a0,0,0,0,1,0,0V22.82A16.395,16.395,0,0,1,37.095,6.426Z"/></svg>