<svg xmlns="http://www.w3.org/2000/svg" xmlns:v="http://schemas.microsoft.com/visio/2003/SVGExtensions/" width="32.843" height="34.462" viewBox="0 0 24.6325 25.8463" color-interpolation-filters="sRGB" class="st2"><v:documentProperties v:langID="1044" v:metric="true" v:viewMarkup="false"/><style><![CDATA[
		.st1 {fill:#000000;stroke:none;stroke-linecap:butt;stroke-width:0.0283464}
		.st2 {fill:none;fill-rule:evenodd;font-size:12px;overflow:visible;stroke-linecap:square;stroke-miterlimit:3}
	]]></style><g v:mID="0" v:index="1" v:groupContext="foregroundPage"><title>Page-1</title><v:pageProperties v:drawingScale=".039" v:pageScale=".039" v:drawingUnits="24" v:shadowOffsetX="8.504" v:shadowOffsetY="-8.504"/><g id="shape21-1" v:mID="21" v:groupContext="shape" transform="translate(.028 -.028)"><title>Technician 3</title><path d="M14.2 23.63c.24.23.24.61 0 .84-.23.24-.61.24-.84 0-.24-.23-.24-.61 0-.84.23-.24.61-.24.84 0zm10.26-7.72l-1.79 1.78h-2.54v-2.54l1.78-1.79c-1.2-.31-2.53-.01-3.47.94-.94.94-1.25 2.28-.93 3.47l-5 5.01c-.7.7-.7 1.85 0 2.54.69.7 1.84.7 2.54 0l5-5c1.2.32 2.53 0 3.47-.93.95-.94 1.25-2.28.94-3.48zm-20.87-.52v3.86l-1.2 2.4H1.2v-.52c0-2.71.27-4.61 2.39-5.74zm8.59-.86c.34.08.68.19 1 .31v3.21H4.79v-3.2c.33-.13.67-.23 1.02-.32h1.54c.64.34 1.22.55 1.63.58.43-.03 1.01-.24 1.63-.58h1.57zm-3.2-.62c-.7-.11-1.79-.88-2.28-1.31-.99-.88-1.78-2.04-1.99-3.37l-.3-1.97h9.15l-.3 1.97c-.21 1.33-.99 2.49-1.99 3.37-.49.43-1.57 1.2-2.29 1.31zm2.05 8.94c.15-.33.36-.65.63-.92l2.72-2.72v-3.83c.9.48 1.47 1.1 1.82 1.86-.04-.53 0-1.06.13-1.56-.93-1.14-2.27-1.92-4-2.35h-.08c1.04-.98 1.95-2.31 2.19-3.92l.48-3.1c.53-3.4-2.67-6.25-5.94-6.25-3.26 0-6.45 2.85-5.93 6.25l.48 3.1c.25 1.61 1.15 2.94 2.19 3.92h-.06C1.89 14.27 0 16.87 0 21.13v1.72h11.03z" class="st1"/></g></g></svg>