<svg id="Layer_1" data-name="Layer 1" xmlns="http://www.w3.org/2000/svg" viewBox="0 0 74.19 94.66"><title>cyber security icon 8 juli</title><path d="M53.337,50.833a18.249,18.249,0,0,0,2.44-9.111V23.372A18.394,18.394,0,0,0,37.4,5h-.656A18.394,18.394,0,0,0,18.375,23.372v18.35a18.229,18.229,0,0,0,2.45,9.126A27.126,27.126,0,0,0,5,75.556V89.661H9V75.556A23.151,23.151,0,0,1,23.243,54.135,18.306,18.306,0,0,0,36.748,60.1H37.4a18.309,18.309,0,0,0,13.512-5.967A23.1,23.1,0,0,1,65.191,75.556V89.661h4V75.556A27.065,27.065,0,0,0,53.337,50.833ZM37.4,56.1h-.656A14.39,14.39,0,0,1,22.375,41.722V23.372A14.389,14.389,0,0,1,36.748,9H37.4A14.389,14.389,0,0,1,51.777,23.372v18.35A14.39,14.39,0,0,1,37.4,56.1Z"/><path d="M48.156,77.45v-4H44.52a7.555,7.555,0,0,0-.769-1.828l2.579-2.579L43.5,66.215l-2.6,2.6a7.542,7.542,0,0,0-1.8-.721V64.389h-4v3.758a7.614,7.614,0,0,0-1.731.744l-2.676-2.676L27.86,69.043l2.7,2.7a7.592,7.592,0,0,0-.7,1.707h-3.83v4h3.83a7.573,7.573,0,0,0,.7,1.707l-2.7,2.7,2.828,2.828,2.676-2.676a7.526,7.526,0,0,0,1.731.744v3.758h4V82.8a7.542,7.542,0,0,0,1.8-.721l2.6,2.6,2.828-2.828-2.579-2.579a7.555,7.555,0,0,0,.769-1.828Zm-7.39-1.7a3.6,3.6,0,1,1,0-.589Z"/></svg>