<svg xmlns="http://www.w3.org/2000/svg" xmlns:v="http://schemas.microsoft.com/visio/2003/SVGExtensions/" width=".316in" height=".316in" viewBox="0 0 22.7345 22.7345" color-interpolation-filters="sRGB" class="st2"><v:documentProperties v:langID="1033" v:metric="true" v:viewMarkup="false"/><style type="text/css"><![CDATA[
		.st1 {fill:#000000;stroke:none;stroke-linecap:butt;stroke-width:0.0286625}
		.st2 {fill:none;fill-rule:evenodd;font-size:12px;overflow:visible;stroke-linecap:square;stroke-miterlimit:3}
	]]></style><g v:mID="0" v:index="1" v:groupContext="foregroundPage"><title>Page-1</title><v:pageProperties v:drawingScale=".039" v:pageScale=".039" v:drawingUnits="24" v:shadowOffsetX="8.504" v:shadowOffsetY="-8.504"/><g id="shape40-1" v:mID="40" v:groupContext="shape" transform="translate(.029 -.029)"><title>Store 1</title><path d="M0 21.53h1.2V7.23h5.95v-1.2H4.79V.06h13.1v5.97h-2.36v1.2h5.95v14.3h1.2v1.2H.07v-1.2H0zm20.28-1.2h-3.59v1.2h3.59v-1.2zm-4.79 0H11.9v1.2h3.59v-1.2zm-3.59-1.2h3.59v-1.2H11.9v1.2zm4.79 0h3.59v-1.2h-3.59v1.2zm-4.79-2.4h3.59v-1.2H11.9v1.2zm4.79 0h3.59v-1.2h-3.59v1.2zm3.59-5.97h-3.59v1.2h3.59v-1.2zm-4.79 0H11.9v1.2h3.59v-1.2zm-4.78 0h-3.6v1.2h3.6v-1.2zm-4.79 0H2.33v1.2h3.59v-1.2zm-3.59-1.2h3.59v-1.2H2.33v1.2zm4.78 0h3.6v-1.2h-3.6v1.2zm4.79 0h3.59v-1.2H11.9v1.2zm4.79 0h3.59v-1.2h-3.59v1.2zm3.59 3.6h-3.59v1.2h3.59v-1.2zm-4.79 0H11.9v1.2h3.59v-1.2zm-4.78 0h-3.6v1.2h3.6v-1.2zm-4.79 0H2.33v1.2h3.59v-1.2zm4.79 8.37v-5.97H2.36v5.97h1.2v-4.76h5.95v4.76h1.2zM7.11 4.79h9.51v-3.6H5.88v3.6h1.23zm1.2 13.18H4.72v3.6h3.59v-3.6zm0-10.78h5.95v-1.2H8.31v1.2z" class="st1"/></g></g></svg>