<svg id="Layer_1" data-name="Layer 1" xmlns="http://www.w3.org/2000/svg" viewBox="0 0 74.19 94.66"><defs><style>.cls-1{fill:#231f20;}</style></defs><title>cyber security icon 8 juli</title><path class="cls-1" d="M69.649,76.561V36.639H56.62v4h9.029V72.561H9.458V40.639h9.028v-4H5.458V76.561h17.79v9.168H16.131v4H58.975v-4H51.859V76.561Zm-21.79,9.168H27.248V76.561H47.859Z"/><path class="cls-1" d="M51.127,4.931H23.98V32.078H51.127Zm-4,23.147H27.98V8.931H47.127Z"/><path class="cls-1" d="M48.614,55.108v-4H44.979a7.555,7.555,0,0,0-.769-1.828L46.789,46.7l-2.828-2.828-2.6,2.6a7.54,7.54,0,0,0-1.8-.72V42.047h-4v3.759a7.567,7.567,0,0,0-1.731.743l-2.677-2.676L28.318,46.7l2.7,2.7a7.543,7.543,0,0,0-.7,1.707H26.492v4h3.831a7.532,7.532,0,0,0,.7,1.708l-2.7,2.7,2.828,2.828,2.677-2.677a7.526,7.526,0,0,0,1.731.744v3.758h4V60.461a7.582,7.582,0,0,0,1.8-.72l2.6,2.6,2.828-2.828-2.579-2.58a7.555,7.555,0,0,0,.769-1.828Zm-7.39-1.7a3.6,3.6,0,1,1,0-.6Z"/></svg>