<svg id="Layer_1" data-name="Layer 1" xmlns="http://www.w3.org/2000/svg" viewBox="0 0 74.19 94.66"><title>cyber security icon 8 juli</title><path d="M65.329,61.758,60.451,25.364A23.564,23.564,0,0,0,37.1,4.929h0A23.566,23.566,0,0,0,13.738,25.364L8.87,61.692A27.128,27.128,0,0,0,5,75.625V89.731H9V75.625A23.263,23.263,0,0,1,23.252,54.216a18.305,18.305,0,0,0,13.5,5.948H37.4a18.3,18.3,0,0,0,13.5-5.959,23.372,23.372,0,0,1,14.282,21.42V89.731h4V75.625A27.1,27.1,0,0,0,65.329,61.758ZM51.777,41.792A14.389,14.389,0,0,1,37.4,56.164h-.657A14.389,14.389,0,0,1,22.375,41.792V23.441a14.316,14.316,0,0,1,.277-2.787,14.837,14.837,0,0,0,2.5.222,15.172,15.172,0,0,0,12.077-5.989,15.169,15.169,0,0,0,12.076,5.989,14.525,14.525,0,0,0,2.2-.174,14.38,14.38,0,0,1,.269,2.739Z"/><path d="M47.064,53.4a12.727,12.727,0,0,1-19.938,0H16.286V89.591H57.9V53.4Z"/></svg>