<svg id="Layer_1" data-name="Layer 1" xmlns="http://www.w3.org/2000/svg" viewBox="0 0 74.19 94.66"><title>cyber security icon 8 juli</title><path d="M53.337,50.831c.294-.511.556-1.043.8-1.583A14.725,14.725,0,0,0,62,30.169L57.363,18.76A21.984,21.984,0,0,0,41.33,5.432c-.2-.045-.408-.081-.613-.118-.228-.039-.456-.074-.686-.105-.4-.058-.8-.107-1.2-.138-.164-.013-.329-.016-.493-.025C38.026,5.03,37.719,5,37.4,5h-.657c-.355,0-.7.033-1.052.053-.1.007-.2.007-.3.015-.468.035-.929.091-1.388.16-.126.018-.251.037-.377.057-.308.053-.616.108-.919.177a21.99,21.99,0,0,0-15.88,13.3L12.19,30.169A14.723,14.723,0,0,0,20,49.226c.249.552.517,1.094.817,1.616A27.276,27.276,0,0,0,5,75.555V89.661H9V75.555A23.263,23.263,0,0,1,23.252,54.146a18.305,18.305,0,0,0,13.5,5.948H37.4a18.3,18.3,0,0,0,13.5-5.959,23.372,23.372,0,0,1,14.282,21.42V89.661h4V75.555A27.409,27.409,0,0,0,53.337,50.831ZM37.4,56.094h-.657A14.389,14.389,0,0,1,22.375,41.722v-12.2a23.431,23.431,0,0,0,4.52.445c7.186,0,13.443-3.206,16.777-7.955a18.373,18.373,0,0,0,8.105,6.267V41.722A14.389,14.389,0,0,1,37.4,56.094Z"/><path d="M37.213,76.406c-11.39,0-22.018-2.356-29.926-6.631l1.9-3.519c7.229,3.909,17.443,6.15,28.024,6.15,10.618,0,20.5-2.144,27.811-6.036L66.9,69.9C59.019,74.1,48.474,76.406,37.213,76.406Z"/></svg>