<svg xmlns="http://www.w3.org/2000/svg" xmlns:v="http://schemas.microsoft.com/visio/2003/SVGExtensions/" width=".24in" height=".344in" viewBox="0 0 17.3078 24.7335" color-interpolation-filters="sRGB" class="st2"><v:documentProperties v:langID="1033" v:metric="true" v:viewMarkup="false"/><style type="text/css"><![CDATA[
		.st1 {fill:#000000;stroke:none;stroke-linecap:butt;stroke-width:0.0286625}
		.st2 {fill:none;fill-rule:evenodd;font-size:12px;overflow:visible;stroke-linecap:square;stroke-miterlimit:3}
	]]></style><g v:mID="0" v:index="1" v:groupContext="foregroundPage"><title>Page-1</title><v:pageProperties v:drawingScale=".039" v:pageScale=".039" v:drawingUnits="24" v:shadowOffsetX="8.504" v:shadowOffsetY="-8.504"/><g id="shape52-1" v:mID="52" v:groupContext="shape" transform="translate(.029 -.029)"><title>User 3</title><path d="M3.46 11.61V6.76c0-6.73 10.36-6.73 10.36 0v4.85c0 1.12-.3 2.07-.79 2.83 1.05.2 2.01.76 2.74 1.55.92.99 1.48 2.34 1.48 3.86v4.88H16.1v-4.88c0-1.19-.47-2.27-1.19-3.07-.73-.75-1.72-1.25-2.8-1.25h-.07c-1.91 1.52-4.92 1.52-6.83 0h-.06c-1.09 0-2.08.5-2.81 1.25-.72.8-1.19 1.88-1.19 3.07v4.88H0v-4.88c0-1.48.56-2.87 1.48-3.86.73-.79 1.69-1.35 2.74-1.55-.49-.76-.79-1.71-.79-2.83h.03zm1.16-4.16h8.05v4.16c0 5.21-8.05 5.21-8.05 0V7.45z" class="st1"/></g></g></svg>