<svg id="Layer_1" data-name="Layer 1" xmlns="http://www.w3.org/2000/svg" viewBox="0 0 74.19 94.66"><title>cyber security icon 8 juli</title><path d="M62.657,57.968A10.918,10.918,0,0,0,59.566,39.3,11.134,11.134,0,0,0,62,26.439L57.363,16.7C53.979,9.6,45.975,4.964,37.1,4.964h0c-8.88,0-16.884,4.636-20.268,11.741L12.19,26.439c-2.823,5.926.058,12.49,6.193,15.56a18.246,18.246,0,0,0,2.438,8.878A27.276,27.276,0,0,0,5,75.59V89.7H9V75.59A23.263,23.263,0,0,1,23.252,54.181a18.305,18.305,0,0,0,13.5,5.948H37.4a18.3,18.3,0,0,0,13.5-5.959A23.372,23.372,0,0,1,65.191,75.59V89.7h4V75.59A27.275,27.275,0,0,0,62.657,57.968ZM37.4,56.129h-.657A14.389,14.389,0,0,1,22.375,41.757V25.671h29.4V41.757A14.389,14.389,0,0,1,37.4,56.129Z"/><path d="M47.2,52.6a31.4,31.4,0,0,1,1.046,8.04A30.923,30.923,0,0,1,37.1,84.524,30.923,30.923,0,0,1,25.949,60.638,31.4,31.4,0,0,1,27,52.6h-4.13a35.56,35.56,0,0,0-.916,8.04A34.92,34.92,0,0,0,35.887,88.674l1.208.917,1.208-.917A34.92,34.92,0,0,0,52.241,60.638a35.56,35.56,0,0,0-.916-8.04Z"/><path d="M26.407,70.8v-4a8.29,8.29,0,0,0,8.28-8.28h4A12.294,12.294,0,0,1,26.407,70.8Z"/><path d="M47.783,70.8v-4a8.29,8.29,0,0,1-8.28-8.28h-4A12.294,12.294,0,0,0,47.783,70.8Z"/></svg>