<svg xmlns="http://www.w3.org/2000/svg" xmlns:v="http://schemas.microsoft.com/visio/2003/SVGExtensions/" width=".346in" height=".346in" viewBox="0 0 24.8897 24.8897" color-interpolation-filters="sRGB" class="st2"><v:documentProperties v:langID="1033" v:metric="true" v:viewMarkup="false"/><style type="text/css"><![CDATA[
		.st1 {fill:#000000;stroke:none;stroke-linecap:butt;stroke-width:0.0286625}
		.st2 {fill:none;fill-rule:evenodd;font-size:12px;overflow:visible;stroke-linecap:square;stroke-miterlimit:3}
	]]></style><g v:mID="0" v:index="1" v:groupContext="foregroundPage"><title>Page-1</title><v:pageProperties v:drawingScale=".039" v:pageScale=".039" v:drawingUnits="24" v:shadowOffsetX="8.504" v:shadowOffsetY="-8.504"/><g id="shape75-1" v:mID="75" v:groupContext="shape" transform="translate(.029 -.029)"><title>Neutral</title><path d="M12.42.06c6.86 0 12.41 5.55 12.41 12.41 0 6.87-5.55 12.42-12.41 12.42C5.55 24.89 0 19.34 0 12.47 0 5.61 5.55.06 12.42.06zM7.44 17.42h9.92v1.24H7.44v-1.24zm8.68-9.93c.67 0 1.24 1.39 1.24 3.1 0 1.71-.57 3.09-1.24 3.09-.68 0-1.25-1.38-1.25-3.09s.57-3.1 1.25-3.1zm-7.47 0c.67 0 1.24 1.39 1.24 3.1 0 1.71-.57 3.09-1.24 3.09-.68 0-1.25-1.38-1.25-3.09s.57-3.1 1.25-3.1zm3.73-6.19c6.16 0 11.17 5.02 11.17 11.17 0 6.16-5.01 11.17-11.17 11.17-6.15 0-11.17-5.01-11.17-11.17C1.21 6.32 6.23 1.3 12.38 1.3z" class="st1"/></g></g></svg>