<svg xmlns="http://www.w3.org/2000/svg" xmlns:v="http://schemas.microsoft.com/visio/2003/SVGExtensions/" width=".346in" height=".346in" viewBox="0 0 24.8897 24.8897" color-interpolation-filters="sRGB" class="st2"><v:documentProperties v:langID="1033" v:metric="true" v:viewMarkup="false"/><style type="text/css"><![CDATA[
		.st1 {fill:#000000;stroke:none;stroke-linecap:butt;stroke-width:0.0286625}
		.st2 {fill:none;fill-rule:evenodd;font-size:12px;overflow:visible;stroke-linecap:square;stroke-miterlimit:3}
	]]></style><g v:mID="0" v:index="1" v:groupContext="foregroundPage"><title>Page-1</title><v:pageProperties v:drawingScale=".039" v:pageScale=".039" v:drawingUnits="24" v:shadowOffsetX="8.504" v:shadowOffsetY="-8.504"/><g id="shape73-1" v:mID="73" v:groupContext="shape" transform="translate(.029 -.029)"><title>Very satisfied</title><path d="M12.42.06c6.86 0 12.41 5.55 12.41 12.41 0 6.87-5.55 12.42-12.41 12.42C5.55 24.89 0 19.34 0 12.47 0 5.61 5.55.06 12.42.06zm8 15.79c-.68 1.57-1.78 2.92-3.2 3.85-1.39.92-3.02 1.45-4.8 1.45-1.78 0-3.42-.53-4.81-1.45-1.42-.96-2.56-2.32-3.2-3.88-.14-.32.04-.68.32-.82.07-.04.14-.04.25-.04h14.91c.35 0 .6.29.6.61 0 .11-.03.18-.07.28zm-3.88 2.81c.96-.64 1.75-1.49 2.32-2.49H5.94c.57 1 1.39 1.85 2.31 2.49 1.18.79 2.6 1.25 4.13 1.25 1.53 0 2.95-.46 4.13-1.25h.03zM8.68 7.49c.68 0 1.25 1.39 1.25 3.1 0 1.71-.57 3.09-1.25 3.09s-1.24-1.38-1.24-3.09.56-3.1 1.24-3.1zm7.47 0c.68 0 1.25 1.39 1.25 3.1 0 1.71-.57 3.09-1.25 3.09-.67 0-1.24-1.38-1.24-3.09s.57-3.1 1.24-3.1zM12.42 1.3c6.15 0 11.17 5.02 11.17 11.17 0 6.16-5.02 11.17-11.17 11.17-6.16 0-11.17-5.01-11.17-11.17C1.25 6.32 6.26 1.3 12.42 1.3z" class="st1"/></g></g></svg>