<svg xmlns="http://www.w3.org/2000/svg" xmlns:v="http://schemas.microsoft.com/visio/2003/SVGExtensions/" width=".346in" height=".346in" viewBox="0 0 24.8897 24.8897" color-interpolation-filters="sRGB" class="st2"><v:documentProperties v:langID="1033" v:metric="true" v:viewMarkup="false"/><style type="text/css"><![CDATA[
		.st1 {fill:#000000;stroke:none;stroke-linecap:butt;stroke-width:0.0286625}
		.st2 {fill:none;fill-rule:evenodd;font-size:12px;overflow:visible;stroke-linecap:square;stroke-miterlimit:3}
	]]></style><g v:mID="0" v:index="1" v:groupContext="foregroundPage"><title>Page-1</title><v:pageProperties v:drawingScale=".039" v:pageScale=".039" v:drawingUnits="24" v:shadowOffsetX="8.504" v:shadowOffsetY="-8.504"/><g id="shape74-1" v:mID="74" v:groupContext="shape" transform="translate(.029 -.029)"><title>Satisfied</title><path d="M12.42.06c6.86 0 12.41 5.55 12.41 12.41 0 6.87-5.55 12.42-12.41 12.42C5.55 24.89 0 19.34 0 12.47 0 5.61 5.55.06 12.42.06zm5.01 15.86c.14-.32.54-.42.82-.28.32.14.43.53.29.82-.54 1.03-1.39 1.92-2.49 2.52-1.07.57-2.32.93-3.67.93s-2.6-.36-3.66-.93c-1.11-.6-1.96-1.49-2.49-2.52-.15-.32-.04-.68.28-.82.32-.14.68-.04.82.28.39.82 1.1 1.5 1.99 2 .85.49 1.92.74 3.06.74 1.14 0 2.17-.28 3.06-.74.89-.5 1.57-1.18 1.99-2zM8.68 7.53c.68 0 1.25 1.39 1.25 3.09 0 1.71-.57 3.1-1.25 3.1s-1.24-1.39-1.24-3.1c0-1.7.56-3.09 1.24-3.09zm7.47 0c.68 0 1.25 1.39 1.25 3.09 0 1.71-.57 3.1-1.25 3.1-.67 0-1.24-1.39-1.24-3.1 0-1.7.57-3.09 1.24-3.09zm-3.73-6.19c6.15 0 11.17 5.01 11.17 11.17 0 6.15-5.02 11.17-11.17 11.17-6.16 0-11.17-5.02-11.17-11.17 0-6.16 5.01-11.17 11.17-11.17z" class="st1"/></g></g></svg>