<svg xmlns="http://www.w3.org/2000/svg" xmlns:v="http://schemas.microsoft.com/visio/2003/SVGExtensions/" width=".346in" height=".346in" viewBox="0 0 24.8897 24.8897" color-interpolation-filters="sRGB" class="st2"><v:documentProperties v:langID="1033" v:metric="true" v:viewMarkup="false"/><style type="text/css"><![CDATA[
		.st1 {fill:#000000;stroke:none;stroke-linecap:butt;stroke-width:0.0286625}
		.st2 {fill:none;fill-rule:evenodd;font-size:12px;overflow:visible;stroke-linecap:square;stroke-miterlimit:3}
	]]></style><g v:mID="0" v:index="1" v:groupContext="foregroundPage"><title>Page-1</title><v:pageProperties v:drawingScale=".039" v:pageScale=".039" v:drawingUnits="24" v:shadowOffsetX="8.504" v:shadowOffsetY="-8.504"/><g id="shape76-1" v:mID="76" v:groupContext="shape" transform="translate(.029 -.029)"><title>Unsatisfied</title><path d="M12.42.06c6.86 0 12.41 5.55 12.41 12.41 0 6.87-5.55 12.42-12.41 12.42C5.55 24.89 0 19.34 0 12.47 0 5.61 5.55.06 12.42.06zm4.16 18.18c.25.25.25.64 0 .89s-.64.25-.89 0c-.61-.61-1.03-1.04-1.49-1.28l-.04-.04c-.43-.25-.96-.36-1.74-.36h-3.1c-.35 0-.6-.28-.6-.6 0-.36.28-.61.6-.61h3.1c1.03 0 1.74.18 2.34.54l.04.03c.6.36 1.1.86 1.74 1.5l.04-.07zm-.43-10.75c.68 0 1.25 1.39 1.25 3.1 0 1.71-.57 3.09-1.25 3.09-.67 0-1.24-1.38-1.24-3.09s.57-3.1 1.24-3.1zm-7.47 0c.68 0 1.25 1.39 1.25 3.1 0 1.71-.57 3.09-1.25 3.09s-1.24-1.38-1.24-3.09.56-3.1 1.24-3.1zm3.74-6.19c6.15 0 11.17 5.02 11.17 11.17 0 6.16-5.02 11.17-11.17 11.17-6.16 0-11.17-5.01-11.17-11.17C1.25 6.32 6.26 1.3 12.42 1.3z" class="st1"/></g></g></svg>