<svg xmlns="http://www.w3.org/2000/svg" xmlns:v="http://schemas.microsoft.com/visio/2003/SVGExtensions/" width=".346in" height=".346in" viewBox="0 0 24.8897 24.8897" color-interpolation-filters="sRGB" class="st2"><v:documentProperties v:langID="1033" v:metric="true" v:viewMarkup="false"/><style type="text/css"><![CDATA[
		.st1 {fill:#000000;stroke:none;stroke-linecap:butt;stroke-width:0.0286625}
		.st2 {fill:none;fill-rule:evenodd;font-size:12px;overflow:visible;stroke-linecap:square;stroke-miterlimit:3}
	]]></style><g v:mID="0" v:index="1" v:groupContext="foregroundPage"><title>Page-1</title><v:pageProperties v:drawingScale=".039" v:pageScale=".039" v:drawingUnits="24" v:shadowOffsetX="8.504" v:shadowOffsetY="-8.504"/><g id="shape77-1" v:mID="77" v:groupContext="shape" transform="translate(.029 -.029)"><title>Very unsatisfied</title><path d="M12.42.06c6.86 0 12.41 5.55 12.41 12.41 0 6.87-5.55 12.42-12.41 12.42C5.55 24.89 0 19.34 0 12.47 0 5.61 5.55.06 12.42.06zm4.91 19.64c.1.32-.04.67-.36.78-.32.1-.68-.04-.78-.36-.32-.82-.86-1.49-1.53-1.99-.64-.46-1.43-.71-2.24-.71-.82 0-1.6.28-2.25.71-.67.46-1.2 1.17-1.52 1.99-.11.32-.5.46-.79.36-.32-.11-.46-.5-.35-.78.39-1.04 1.1-1.93 1.95-2.53.86-.61 1.89-.96 2.96-.96 1.1 0 2.1.35 2.95.96.85.6 1.56 1.49 1.96 2.53zM8.68 7.49c.68 0 1.25 1.39 1.25 3.1 0 1.71-.57 3.09-1.25 3.09s-1.24-1.38-1.24-3.09.56-3.1 1.24-3.1zm7.47 0c.68 0 1.25 1.39 1.25 3.1 0 1.71-.57 3.09-1.25 3.09-.67 0-1.24-1.38-1.24-3.09s.57-3.1 1.24-3.1zM12.42 1.3c6.15 0 11.17 5.02 11.17 11.17 0 6.16-5.02 11.17-11.17 11.17-6.16 0-11.17-5.01-11.17-11.17C1.25 6.32 6.26 1.3 12.42 1.3z" class="st1"/></g></g></svg>