<svg xmlns="http://www.w3.org/2000/svg" xmlns:v="http://schemas.microsoft.com/visio/2003/SVGExtensions/" width="27.401" height="30.312" viewBox="0 0 20.5506 22.7339" color-interpolation-filters="sRGB" class="st2"><v:documentProperties v:langID="1044" v:metric="true" v:viewMarkup="false"/><style><![CDATA[
		.st1 {fill:#000000;stroke:none;stroke-linecap:butt;stroke-width:0.0283464}
		.st2 {fill:none;fill-rule:evenodd;font-size:12px;overflow:visible;stroke-linecap:square;stroke-miterlimit:3}
	]]></style><g v:mID="0" v:index="1" v:groupContext="foregroundPage"><title>Page-1</title><v:pageProperties v:drawingScale=".039" v:pageScale=".039" v:drawingUnits="24" v:shadowOffsetX="8.504" v:shadowOffsetY="-8.504"/><g id="shape25-1" v:mID="25" v:groupContext="shape" transform="translate(.028 -.028)"><title>Online bank 1</title><path d="M4.37 2.24h5.47V1.15H4.37v1.09zm9.83 7.92c1.74 0 3.31.71 4.45 1.85 1.14 1.14 1.84 2.7 1.84 4.44 0 1.74-.7 3.3-1.84 4.44-1.14 1.14-2.71 1.84-4.45 1.84-1.73 0-3.3-.7-4.44-1.84-1.13-1.14-1.84-2.7-1.84-4.44 0-1.74.71-3.3 1.84-4.44 1.14-1.14 2.71-1.85 4.44-1.85zm3.04 2.07c-.36-.25-.76-.47-1.18-.63l-.57 1.86-.06.19h-1.45l-.81.8.21.42 1.61.65.28.1-.14.28s-.26.51-.23.54c.2.24.26.65.26.65l.01.11-.06.09-1.7 2.39-.17.23-.22-.17-1.37-1.03-.14-.1.04-.17.31-1.22-.92-.92-.14-.14.09-.17.34-.68.2-.41-.73-.24-.11-.04-.05-.12-.48-1.18c-.28.38-.52.79-.69 1.24-.23.58-.35 1.22-.35 1.89 0 1.44.58 2.73 1.51 3.67.95.94 2.24 1.52 3.67 1.52 1 0 1.94-.28 2.73-.77.74-.46 1.36-1.1 1.79-1.86l-1.91-.95-.14-.07v-1.82h1.47l.2-.41-.62-1.24-.06-.12.06-.12.54-1.08c-.3-.36-.64-.69-1.02-.97zM3.28 15.35h3.77c-.06.36-.09.73-.09 1.1H3.28v-1.1zm0-2.18h4.47c-.18.35-.33.71-.45 1.09H3.28v-1.09zm0-2.19h6.18c-.38.33-.72.7-1.03 1.1H3.28v-1.1zm0-2.18h7.66v1.09H3.28V8.8zm0-2.19h7.66v1.1H3.28v-1.1zm0-2.19h7.66v1.1H3.28v-1.1zM1.63 2.24h1.65V.06H10.93V2.24H13.11v7.05c-.37.06-.73.15-1.09.25V3.33H2.18v16.4h3.28v-2.19h1.59c.01.11.03.21.05.31v1.88h.65c.2.39.43.75.68 1.09H0v-1.09h1.09V2.24h.54z" class="st1"/></g></g></svg>