<svg xmlns="http://www.w3.org/2000/svg" xmlns:v="http://schemas.microsoft.com/visio/2003/SVGExtensions/" width=".355in" height=".315in" viewBox="0 0 25.5405 22.7058" color-interpolation-filters="sRGB" class="st2"><v:documentProperties v:langID="1033" v:metric="true" v:viewMarkup="false"/><style type="text/css"><![CDATA[
		.st1 {fill:#000000;stroke:none;stroke-linecap:butt;stroke-width:0.0286625}
		.st2 {fill:none;fill-rule:evenodd;font-size:12px;overflow:visible;stroke-linecap:square;stroke-miterlimit:3}
	]]></style><g v:mID="0" v:index="1" v:groupContext="foregroundPage"><title>Page-1</title><v:pageProperties v:drawingScale=".039" v:pageScale=".039" v:drawingUnits="24" v:shadowOffsetX="8.504" v:shadowOffsetY="-8.504"/><g id="shape46-1" v:mID="46" v:groupContext="shape" transform="translate(0 -.029)"><title>Bank 2</title><path d="M11.03 17.92h1.22V8.4h-1.19v9.52h-.03zm14.41 2.91c-1.04 1.19-2.55 1.88-4.15 1.88-2.34 0-4.4-1.44-5.17-3.59h-.9v-1.2h.62c-.03-.41-.03-.78 0-1.19h-.62v-1.2h.9c.77-2.15 2.83-3.58 5.17-3.58 1.6 0 3.17.72 4.22 1.94l-.94.76c-.8-.96-2.02-1.51-3.28-1.51-1.64 0-3.14.93-3.84 2.39h5.69v1.2H17.1c-.07.41-.07.78 0 1.19h6.04v1.2h-5.69c.7 1.43 2.2 2.39 3.84 2.39 1.26 0 2.41-.51 3.24-1.47l.91.79zM2.69 7.2h17.87l-8.94-5.84L2.69 7.2zm7.12 1.2H7.36v9.52h2.45V8.4zm-6.08 0H.7c-.21 0-.39-.11-.53-.28-.17-.27-.1-.65.18-.82L11.31.17c.21-.14.45-.14.66 0L22.93 7.3c.17.11.28.31.28.52 0 .34-.28.58-.59.58h-3.04v2.39h-1.22V8.4h-1.22v2.42h-1.23V8.4h-2.44v10.72H2.51v1.2h12.18v1.19H1.33V17.96h2.4V8.4zm1.23 9.52h1.22V8.4H4.96v9.52z" class="st1"/></g></g></svg>