<svg xmlns="http://www.w3.org/2000/svg" xmlns:v="http://schemas.microsoft.com/visio/2003/SVGExtensions/" width=".316in" height=".316in" viewBox="0 0 22.7345 22.7345" color-interpolation-filters="sRGB" class="st2"><v:documentProperties v:langID="1033" v:metric="true" v:viewMarkup="false"/><style type="text/css"><![CDATA[
		.st1 {fill:#000000;stroke:none;stroke-linecap:butt;stroke-width:0.0286625}
		.st2 {fill:none;fill-rule:evenodd;font-size:12px;overflow:visible;stroke-linecap:square;stroke-miterlimit:3}
	]]></style><g v:mID="0" v:index="1" v:groupContext="foregroundPage"><title>Page-1</title><v:pageProperties v:drawingScale=".039" v:pageScale=".039" v:drawingUnits="24" v:shadowOffsetX="8.504" v:shadowOffsetY="-8.504"/><g id="shape45-1" v:mID="45" v:groupContext="shape" transform="translate(.029 -.029)"><title>Bank 1</title><path d="M5.42 20.37H4.07v-1.2h1.35v1.2zm17.22.51c-.58.59-1.27 1.07-2.08 1.37-.77.31-1.65.48-2.53.48-1.66 0-3.19-.61-4.27-1.57-.61-.55-1.11-1.24-1.42-2.03h-1v-1.2h.69c-.04-.2-.04-.41-.04-.58 0-.21 0-.41.04-.58h-.69v-1.21h1c.31-.75.81-1.44 1.42-2.02 1.08-.96 2.61-1.58 4.27-1.58.88 0 1.76.17 2.57.52.81.34 1.5.82 2.08 1.44l-1.04.75c-.46-.48-1-.86-1.61-1.1-.62-.24-1.31-.37-2-.37-1.31 0-2.46.48-3.31 1.23-.38.35-.69.72-.92 1.17h6.26v1.2h-6.65c-.03.21-.03.41-.03.58 0 .21 0 .41.03.59h6.65v1.2H13.8c.23.44.54.82.92 1.16.85.76 2.04 1.24 3.31 1.24.69 0 1.34-.14 1.96-.38.61-.24 1.15-.62 1.61-1.06l1 .79.04-.04zM2.08 2.42h1.99V.06h9.34v2.36h2.66v7.52c-.47.1-.93.24-1.35.41V3.59H2.69v17.94h4.04v-2.4h1.34v2.4h3c.31.45.69.83 1.08 1.2H0v-1.2h1.35V2.39H2l.08.03zm3.34 0h6.69v-1.2H5.42v1.2zm8.03 3.61H4.07v-1.2h9.38v1.2zm0 2.4H4.07v-1.2h9.38v1.2zm0 2.4H4.07v-1.2h9.38v1.2zm-2.34 2.4H4.07v-1.2h8.11c-.42.38-.76.76-1.07 1.2zm-1.65 2.4H4.07v-1.2h5.39v1.2zm0 2.4H4.07v-1.2h5.39v1.2z" class="st1"/></g></g></svg>