<svg xmlns="http://www.w3.org/2000/svg" xmlns:v="http://schemas.microsoft.com/visio/2003/SVGExtensions/" width="31.824" height="30.312" viewBox="0 0 23.8677 22.7339" color-interpolation-filters="sRGB" class="st2"><v:documentProperties v:langID="1044" v:metric="true" v:viewMarkup="false"/><style><![CDATA[
		.st1 {fill:#000000;stroke:none;stroke-linecap:butt;stroke-width:0.0283464}
		.st2 {fill:none;fill-rule:evenodd;font-size:12px;overflow:visible;stroke-linecap:square;stroke-miterlimit:3}
	]]></style><g v:mID="0" v:index="1" v:groupContext="foregroundPage"><title>Page-1</title><v:pageProperties v:drawingScale=".039" v:pageScale=".039" v:drawingUnits="24" v:shadowOffsetX="8.504" v:shadowOffsetY="-8.504"/><g id="shape23-1" v:mID="23" v:groupContext="shape" transform="translate(.028 -.028)"><title>Bank 1</title><path d="M1.74 2.39h-.58v18.6H0v1.17h11.81c-.45-.35-.84-.74-1.21-1.17H8.72v-2.33H5.81v2.33h-3.5V3.55h10.48V8.7c.36-.21.75-.39 1.14-.54V2.39h-2.3V.06H3.49v2.33H1.74zm1.73 2.32v1.16h8.14V4.71H3.47zm0 11.63v1.16h5.42c-.08-.38-.14-.77-.17-1.16H3.47zm0-2.32v1.16h5.25c.03-.4.09-.79.17-1.16H3.47zm0-2.33v1.16h5.77c.15-.4.33-.79.55-1.16H3.47zm0-2.33v1.16h7.13c.31-.35.65-.69 1.01-1v-.16H3.47zm0-2.32V8.2h8.14V7.04H3.47zm1.18-4.65V1.22h5.81v1.17H4.65zm12.19 6.39c-1.93 0-3.67.79-4.93 2.05-1.27 1.26-2.05 3-2.05 4.92 0 1.93.78 3.68 2.05 4.94 1.26 1.26 3 2.04 4.93 2.04 1.92 0 3.67-.78 4.93-2.04 1.27-1.26 2.04-3.01 2.04-4.94 0-1.92-.77-3.66-2.04-4.92-1.26-1.26-3.01-2.05-4.93-2.05zm.5 9.51h1.02v-2.14h.56c.41 0 .57.24.6.63l.02.98c.01.2.03.39.13.53h1.11v-.04c-.19-.11-.22-.37-.22-.91-.03-1.07-.13-1.45-.83-1.54v-.02c.58-.12.85-.57.85-1.25 0-.88-.5-1.31-1.35-1.31h-1.89v5.07zm1.02-4.32h.49c.47 0 .71.24.71.71 0 .55-.28.76-.77.76h-.43v-1.47zm-4.83-.75v5.07h1.03v-1.51l.37-.56 1.05 2.07h1.14l-1.53-2.89 1.37-2.18h-1.1l-1.29 2.03h-.01v-2.03h-1.03zm7.42-1.57c1.05 1.05 1.7 2.51 1.7 4.1 0 1.61-.65 3.07-1.7 4.12-1.05 1.05-2.51 1.7-4.11 1.7-1.61 0-3.06-.65-4.11-1.7-1.06-1.05-1.71-2.51-1.71-4.12 0-1.59.65-3.05 1.71-4.1 1.05-1.05 2.5-1.71 4.11-1.71 1.6 0 3.06.66 4.11 1.71z" class="st1"/></g></g></svg>