<svg id="Layer_1" data-name="Layer 1" xmlns="http://www.w3.org/2000/svg" viewBox="0 0 74.19 94.66"><defs><style>.cls-1{fill:#231f20;}</style></defs><title>cyber security icon 8 juli</title><path class="cls-1" d="M65.369,61.825,60.483,25.364A23.566,23.566,0,0,0,37.126,4.929h0A23.564,23.564,0,0,0,13.77,25.364L8.91,61.624A27.134,27.134,0,0,0,5,75.625V89.731H9V75.625a23.208,23.208,0,0,1,6.673-16.248l.767-.58V89.731h41.5V58.894l.31.235a23.311,23.311,0,0,1,6.939,16.5V89.731h4V75.625A27.1,27.1,0,0,0,65.369,61.825ZM37.4,56.164h-.657A14.389,14.389,0,0,1,22.375,41.792V26.005h29.4V41.792A14.389,14.389,0,0,1,37.4,56.164Zm-14.259-1.9c.036-.015.071-.034.107-.05.017.018.035.033.051.05Zm27.764-.061c.045.019.088.042.132.061h-.194C50.867,54.245,50.89,54.227,50.909,54.205ZM27.387,57.568A18.176,18.176,0,0,0,34.411,60L32.864,73.329ZM41.326,73.329,39.778,59.993a18.161,18.161,0,0,0,7.036-2.457Z"/></svg>