<svg id="Layer_1" data-name="Layer 1" xmlns="http://www.w3.org/2000/svg" viewBox="0 0 74.19 94.66"><defs><style>.cls-1{fill:#231f20;}</style></defs><title>cyber security icon 8 juli</title><path class="cls-1" d="M53.434,50.88,68.28,46.894,57.363,20.034a22.2,22.2,0,0,0-5.491-7.947A18.337,18.337,0,0,0,37.4,5h-.657a18.334,18.334,0,0,0-14.576,7.233,22.205,22.205,0,0,0-5.344,7.8L5.91,46.894l14.839,3.984A27.275,27.275,0,0,0,5,75.555V89.661H9V75.555a23.224,23.224,0,0,1,7.44-17V89.661h9.554V56.586a18.226,18.226,0,0,0,8.418,3.344l-3.45,29.731H43.229L39.778,59.923a18.221,18.221,0,0,0,8.61-3.521V89.661h9.554V58.748a23.328,23.328,0,0,1,7.249,16.807V89.661h4V75.555A27.407,27.407,0,0,0,53.434,50.88ZM23.145,54.2c.036-.015.071-.034.107-.05.017.018.035.033.051.05Zm14.259,1.9h-.657A14.389,14.389,0,0,1,22.375,41.722V25.916h29.4V41.722A14.389,14.389,0,0,1,37.4,56.094Zm13.443-1.9c.02-.021.043-.039.062-.061.045.019.088.042.132.061Z"/></svg>