<svg xmlns="http://www.w3.org/2000/svg" xmlns:v="http://schemas.microsoft.com/visio/2003/SVGExtensions/" width=".24in" height=".32in" viewBox="0 0 17.2706 23.0743" color-interpolation-filters="sRGB" class="st2"><v:documentProperties v:langID="1033" v:metric="true" v:viewMarkup="false"/><style type="text/css"><![CDATA[
		.st1 {fill:#000000;stroke:none;stroke-linecap:butt;stroke-width:0.0286625}
		.st2 {fill:none;fill-rule:evenodd;font-size:12px;overflow:visible;stroke-linecap:square;stroke-miterlimit:3}
	]]></style><g v:mID="0" v:index="1" v:groupContext="foregroundPage"><title>Page-1</title><v:pageProperties v:drawingScale=".039" v:pageScale=".039" v:drawingUnits="24" v:shadowOffsetX="8.504" v:shadowOffsetY="-8.504"/><g id="shape72-1" v:mID="72" v:groupContext="shape" transform="translate(.029 -.029)"><title>Employee 6</title><path d="M4.58 5.83h8.05v4.15c0 1.88-1.02 3.07-2.34 3.6-.53.2-1.09.29-1.68.29-.56 0-1.16-.09-1.69-.29-1.31-.53-2.34-1.72-2.34-3.6V5.83zM9.2 15v.03l1.15 8.04H6.89l1.16-8.04V15c-.53-.07-1.03-.17-1.52-.37-.46-.2-.92-.43-1.32-.76h-.07c-1.08 0-2.07.5-2.8 1.26-.72.79-1.19 1.88-1.19 3.06v4.88H0v-4.88c0-1.48.56-2.86 1.48-3.85.73-.8 1.69-1.36 2.74-1.55-.49-.76-.79-1.72-.79-2.84V5.1c0-2.44 1.35-3.99 3.1-4.65C7.19.19 7.91.06 8.61.06c.72 0 1.41.13 2.07.39 1.75.7 3.1 2.25 3.1 4.65v4.85c0 1.12-.29 2.08-.79 2.84 1.06.19 2.01.75 2.74 1.55.92.99 1.48 2.34 1.48 3.85v4.88h-1.15v-4.88c0-1.18-.46-2.27-1.19-3.06-.72-.76-1.71-1.26-2.8-1.26H12c-.39.33-.85.56-1.32.76-.49.2-.99.3-1.51.37h.03z" class="st1"/></g></g></svg>