<svg xmlns="http://www.w3.org/2000/svg" xmlns:v="http://schemas.microsoft.com/visio/2003/SVGExtensions/" width=".24in" height=".32in" viewBox="0 0 17.3118 23.0743" color-interpolation-filters="sRGB" class="st2"><v:documentProperties v:langID="1033" v:metric="true" v:viewMarkup="false"/><style type="text/css"><![CDATA[
		.st1 {fill:#000000;stroke:none;stroke-linecap:butt;stroke-width:0.0286625}
		.st2 {fill:none;fill-rule:evenodd;font-size:12px;overflow:visible;stroke-linecap:square;stroke-miterlimit:3}
	]]></style><g v:mID="0" v:index="1" v:groupContext="foregroundPage"><title>Page-1</title><v:pageProperties v:drawingScale=".039" v:pageScale=".039" v:drawingUnits="24" v:shadowOffsetX="8.504" v:shadowOffsetY="-8.504"/><g id="shape67-1" v:mID="67" v:groupContext="shape" transform="translate(.029 -.029)"><title>Employee 1</title><path d="M0 23.07V18.2c0-1.48.56-2.86 1.48-3.85.73-.79 1.68-1.35 2.73-1.55l-.06-.13L0 11.55l2.11-5.17C3.33 3.42 4.97.06 8.63.06c3.62 0 5.3 3.36 6.52 6.32l2.1 5.17-4.14 1.12-.07.13c1.05.2 2.01.76 2.73 1.55.92.99 1.48 2.34 1.48 3.85v4.87h-5.73v-4.61H5.8v4.61H0zM4.61 5.85h8.03V10c0 5.2-8.03 5.2-8.03 0V5.85zm6.88 8.43v3.06H5.76v-3.06c1.71 1.02 4.02 1.02 5.73 0z" class="st1"/></g></g></svg>