<svg xmlns="http://www.w3.org/2000/svg" xmlns:v="http://schemas.microsoft.com/visio/2003/SVGExtensions/" width=".241in" height=".322in" viewBox="0 0 17.3521 23.2165" color-interpolation-filters="sRGB" class="st2"><v:documentProperties v:langID="1033" v:metric="true" v:viewMarkup="false"/><style type="text/css"><![CDATA[
		.st1 {fill:#000000;stroke:none;stroke-linecap:butt;stroke-width:0.0286625}
		.st2 {fill:none;fill-rule:evenodd;font-size:12px;overflow:visible;stroke-linecap:square;stroke-miterlimit:3}
	]]></style><g v:mID="0" v:index="1" v:groupContext="foregroundPage"><title>Page-1</title><v:pageProperties v:drawingScale=".039" v:pageScale=".039" v:drawingUnits="24" v:shadowOffsetX="8.504" v:shadowOffsetY="-8.504"/><g id="shape59-1" v:mID="59" v:groupContext="shape" transform="translate(.029 -.029)"><title>User 10</title><path d="M13.12 12.75l4.17-1.13-2.12-5.2c-.86-2.12-2.22-5.1-4.44-5.97C10.07.19 9.34.06 8.65.06c-.73 0-1.43.13-2.09.39-2.22.87-3.58 3.85-4.44 5.97L0 11.62l4.17 1.13.07.13c-1.06.2-2.02.76-2.75 1.56C.56 15.43 0 16.79 0 18.31v4.91h1.16v-4.91c0-1.19.46-2.28 1.19-3.08.73-.76 1.73-1.26 2.82-1.26h.06c.17.14.37.27.53.37v8.88h5.77v-8.88c.2-.1.36-.23.53-.37h.07c1.09 0 2.08.5 2.81 1.26.73.8 1.2 1.89 1.2 3.08v4.91h1.15v-4.91c0-1.49-.56-2.88-1.49-3.87-.73-.8-1.69-1.36-2.75-1.56l.07-.13zm-6.23 2.08c.56.17 1.16.27 1.72.27.6 0 1.16-.1 1.73-.27v2.59H6.86v-2.59h.03zM4.57 5.86h8.09v4.17c0 1.89-1.03 3.08-2.36 3.61-.53.2-1.09.3-1.69.3-.56 0-1.16-.1-1.69-.3-1.32-.53-2.35-1.72-2.35-3.61V5.86z" class="st1"/></g></g></svg>