<svg xmlns="http://www.w3.org/2000/svg" xmlns:v="http://schemas.microsoft.com/visio/2003/SVGExtensions/" width=".267in" height=".324in" viewBox="0 0 19.2432 23.3402" color-interpolation-filters="sRGB" class="st2"><v:documentProperties v:langID="1033" v:metric="true" v:viewMarkup="false"/><style type="text/css"><![CDATA[
		.st1 {fill:#333333;stroke:none;stroke-linecap:butt;stroke-width:0.0299702}
		.st2 {fill:none;fill-rule:evenodd;font-size:12px;overflow:visible;stroke-linecap:square;stroke-miterlimit:3}
	]]></style><g v:mID="0" v:index="1" v:groupContext="foregroundPage"><title>Page-1</title><v:pageProperties v:drawingScale=".039" v:pageScale=".039" v:drawingUnits="24" v:shadowOffsetX="8.504" v:shadowOffsetY="-8.504"/><g id="shape62-1" v:mID="62" v:groupContext="shape" transform="translate(.03 -.03)"><title>Service provider 1</title><path d="M2.71.06h13.72v21.92h2.75v1.36H10.96v-5.45H8.21v5.45H0v-1.36h2.75V.06h-.04zm1.36 1.36h2.75v2.75H4.07V1.42zm4.1 0h2.75v2.75H8.17V1.42zm4.11 0h2.75v2.75h-2.75V1.42zM4.07 5.51h2.75v2.76H4.07V5.51zm4.1 0h2.75v2.76H8.17V5.51zm4.11 0h2.75v2.76h-2.75V5.51zM4.07 9.62h2.75v2.76H4.07V9.62zm4.1 0h2.75v2.76H8.17V9.62zm4.11 0h2.75v2.76h-2.75V9.62zm-8.21 4.11h2.75v2.76H4.07v-2.76zm4.1 0h2.75v2.76H8.17v-2.76zm4.11 0h2.75v2.76h-2.75v-2.76zm-8.21 4.12h2.75v2.74H4.07v-2.74zm8.21 0h2.75v2.74h-2.75v-2.74z" class="st1"/></g></g></svg>