<svg xmlns="http://www.w3.org/2000/svg" xmlns:v="http://schemas.microsoft.com/visio/2003/SVGExtensions/" width=".387in" height=".264in" viewBox="0 0 27.8597 18.9904" color-interpolation-filters="sRGB" class="st2"><v:documentProperties v:langID="1033" v:metric="true" v:viewMarkup="false"/><style type="text/css"><![CDATA[
		.st1 {fill:#000000;stroke:none;stroke-linecap:butt;stroke-width:0.0286625}
		.st2 {fill:none;fill-rule:evenodd;font-size:12px;overflow:visible;stroke-linecap:square;stroke-miterlimit:3}
	]]></style><g v:mID="0" v:index="1" v:groupContext="foregroundPage"><title>Page-1</title><v:pageProperties v:drawingScale=".039" v:pageScale=".039" v:drawingUnits="24" v:shadowOffsetX="8.504" v:shadowOffsetY="-8.504"/><g id="shape63-1" v:mID="63" v:groupContext="shape" transform="translate(.029 -.029)"><title>Service provider 2</title><path d="M.07 17.72h3.8V.06h3.77v10.6l2.53-1.52V.06h3.77v10.6l2.53-1.52V.06h3.77v10.6l2.82-1.7c.29-.18.69-.07.87.22.07.11.07.22.07.33v8.21h3.8v1.27H0v-1.27h.07zm22.74-1.26h-1.27v-1.27h1.27V10.63l-5.32 3.18c-.11.08-.22.11-.37.11-.36 0-.61-.29-.61-.61v-2.68l-5.32 3.18c-.11.08-.22.11-.37.11-.36 0-.61-.29-.61-.61v-2.68l-5.07 3.04v4.05h1.27v-2.53h1.26v2.53h5.07v-2.53h1.27v2.53h5.07v-2.53h1.26v2.53h2.54v-1.26h-.07zm-5.07-1.27v1.27H15.2v-1.27h2.54zm-6.3 0v1.27H8.91v-1.27h2.53zm-6.3-3.01l1.27-.76V1.29H5.14v10.89zm6.3-2.67v2.67l1.27-.76V1.29h-1.27v8.22zm6.3 0v2.67l1.27-.76V1.29h-1.27v8.22z" class="st1"/></g></g></svg>