<svg xmlns="http://www.w3.org/2000/svg" xmlns:v="http://schemas.microsoft.com/visio/2003/SVGExtensions/" width=".387in" height=".264in" viewBox="0 0 27.8597 18.9904" color-interpolation-filters="sRGB" class="st2"><v:documentProperties v:langID="1033" v:metric="true" v:viewMarkup="false"/><style type="text/css"><![CDATA[
		.st1 {fill:#000000;stroke:none;stroke-linecap:butt;stroke-width:0.0286625}
		.st2 {fill:none;fill-rule:evenodd;font-size:12px;overflow:visible;stroke-linecap:square;stroke-miterlimit:3}
	]]></style><g v:mID="0" v:index="1" v:groupContext="foregroundPage"><title>Page-1</title><v:pageProperties v:drawingScale=".039" v:pageScale=".039" v:drawingUnits="24" v:shadowOffsetX="8.504" v:shadowOffsetY="-8.504"/><g id="shape65-1" v:mID="65" v:groupContext="shape" transform="translate(.029 -.029)"><title>Service provider 4</title><path d="M0 17.72h2.53V.06h22.74v17.66h2.53v1.27H0v-1.27zM11.37 2.56h5.07v1.26h-5.07V2.56zm7.56 0h3.8v1.26h-3.8v1.27h3.8v1.27h-3.8v1.26h3.8v1.27h-3.8v1.27h3.8v1.26h-3.8v1.27h3.8v1.27h-3.8v1.27h3.8v1.26h-3.8v1.27H24V1.32h-5.07v1.27-.03zm-13.9 0h3.8V1.29H3.76v16.43h5.07v-1.26h-3.8v-1.27h3.8v-1.27h-3.8v-1.26h3.8v-1.27h-3.8v-1.27h3.8V8.85h-3.8V7.59h3.8V6.32h-3.8V5.05h3.8V3.79h-3.8V2.52v.04zm5.07 15.16h1.27v-2.53h5.07v2.53h1.26V1.29h-7.56v16.43h-.04zm1.27-12.63h5.07v1.27h-5.07V5.09zm0 2.53h5.07v1.27h-5.07V7.62zm0 2.54h5.07v1.26h-5.07v-1.26zm0 2.53h5.07v1.27h-5.07v-1.27z" class="st1"/></g></g></svg>