<svg xmlns="http://www.w3.org/2000/svg" xmlns:v="http://schemas.microsoft.com/visio/2003/SVGExtensions/" width=".365in" height=".329in" viewBox="0 0 26.259 23.6689" color-interpolation-filters="sRGB" class="st2"><v:documentProperties v:langID="1033" v:metric="true" v:viewMarkup="false"/><style type="text/css"><![CDATA[
		.st1 {fill:#000000;stroke:none;stroke-linecap:butt;stroke-width:0.0286625}
		.st2 {fill:none;fill-rule:evenodd;font-size:12px;overflow:visible;stroke-linecap:square;stroke-miterlimit:3}
	]]></style><g v:mID="0" v:index="1" v:groupContext="foregroundPage"><title>Page-1</title><v:pageProperties v:drawingScale=".039" v:pageScale=".039" v:drawingUnits="24" v:shadowOffsetX="8.504" v:shadowOffsetY="-8.504"/><g id="shape66-1" v:mID="66" v:groupContext="shape" transform="translate(.029 -.029)"><title>Service provider 5</title><path d="M0 18.38h1.31V.06h14.38v4.05c-.45.23-.9.53-1.31.86v-3.6H2.59v17.04h5.26v-2.62h1.31v2.62h2.89c.11.45.3.9.53 1.32H0v-1.35zm13.1-6.54v-.63c0-7.81 11.79-7.81 11.79 0v.63c.71 0 1.31.6 1.31 1.32v2.63c0 .75-.6 1.31-1.35 1.31-.26 2.25-1.8 4.17-3.9 4.92-.15.94-.98 1.65-1.96 1.65-1.08 0-1.95-.9-1.95-1.95 0-1.09.9-1.96 1.95-1.96.72 0 1.36.42 1.69.98 1.73-.71 2.89-2.36 2.89-4.24v-5.26c0-6.08-9.16-6.08-9.16 0v5.9H13.1c-.71 0-1.31-.6-1.31-1.32V13.2c0-.72.6-1.32 1.31-1.32v-.04zm-9.16 3.95h2.63v1.31H3.94v-1.31zm0-13.11h9.16V4H3.94V2.68zm0 2.63h9.16v1.13c-.04.07-.07.15-.15.19H3.9V5.31h.04zm0 2.63h7.85v1.31H3.94V7.94zm0 2.63h6.53v1.27H3.94v-1.31.04zm0 2.63h6.53v1.31H3.94V13.2z" class="st1"/></g></g></svg>