<svg xmlns="http://www.w3.org/2000/svg" xmlns:v="http://schemas.microsoft.com/visio/2003/SVGExtensions/" width=".387in" height=".264in" viewBox="0 0 27.8597 18.9789" color-interpolation-filters="sRGB" class="st2"><v:documentProperties v:langID="1033" v:metric="true" v:viewMarkup="false"/><style type="text/css"><![CDATA[
		.st1 {fill:#000000;stroke:none;stroke-linecap:butt;stroke-width:0.0286625}
		.st2 {fill:none;fill-rule:evenodd;font-size:12px;overflow:visible;stroke-linecap:square;stroke-miterlimit:3}
	]]></style><g v:mID="0" v:index="1" v:groupContext="foregroundPage"><title>Page-1</title><v:pageProperties v:drawingScale=".039" v:pageScale=".039" v:drawingUnits="24" v:shadowOffsetX="8.504" v:shadowOffsetY="-8.504"/><g id="shape64-1" v:mID="64" v:groupContext="shape" transform="translate(.029 -.029)"><title>Service provider 3</title><path d="M.04 17.71h2.53V5.1H8.88V.06H18.96V5.1H25.26v12.61h2.54v1.27H0v-1.27h.04zm18.95-2.54h3.81v1.27h-3.81v1.27h5.08V6.33h-5.08V7.6h3.81v1.27h-3.81v1.26h3.81v1.27h-3.81v1.27h3.81v1.27h-3.81v1.27-.04zm-13.92 0h3.81V13.9H5.07v-1.26h3.81v-1.27H5.07V10.1h3.81V8.83H5.07V7.56h3.81V6.29H3.81v11.38h5.07v-1.26H5.07v-1.27.03zm6.31 0h5.08v1.27h-5.08v-1.27zm0-2.53h5.08v1.26h-5.08v-1.26zm0-2.54h5.08v1.27h-5.08V10.1zm0-2.54h5.08v1.27h-5.08V7.56zm0-2.54h5.08v1.27h-5.08V5.02zm0-2.53h5.08v1.26h-5.08V2.49zm-1.27 15.18h7.58V1.22h-7.58v16.45z" class="st1"/></g></g></svg>