<svg xmlns="http://www.w3.org/2000/svg" xmlns:v="http://schemas.microsoft.com/visio/2003/SVGExtensions/" width=".316in" height=".292in" viewBox="0 0 22.7345 21.0337" color-interpolation-filters="sRGB" class="st3"><v:documentProperties v:langID="1033" v:metric="true" v:viewMarkup="false"/><style type="text/css"><![CDATA[
		.st1 {fill:#000000}
		.st2 {stroke:none;stroke-linecap:butt;stroke-width:0.0286625}
		.st3 {fill:none;fill-rule:evenodd;font-size:12px;overflow:visible;stroke-linecap:square;stroke-miterlimit:3}
	]]></style><g v:mID="0" v:index="1" v:groupContext="foregroundPage"><title>Page-1</title><v:pageProperties v:drawingScale=".039" v:pageScale=".039" v:drawingUnits="24" v:shadowOffsetX="8.504" v:shadowOffsetY="-8.504"/><g id="shape41-1" v:mID="41" v:groupContext="shape" transform="translate(.029 -.029)"><title>Store 2</title><path d="M22.68.09v5.25c0 .74-.46 1.41-1.14 1.64v5.92h1.14v1.18h-.97l-.17.63v2.84h1.14v1.18h-2.11l-.29 1.17H18.69c-.32 0-.55.26-.55.56 0 .34.26.57.55.57.33 0 .55-.26.55-.57 0-.33-.26-.56-.55-.56h-2.27c-.32 0-.55.26-.55.56 0 .34.26.57.55.57.33 0 .56-.26.56-.57 0-.33-.26-.56-.56-.56H14.84l-.29-1.17H0v-1.18h1.13V6.95C.45 6.71 0 6.05 0 5.31V.06h22.61l.07.03zm-4.54 14.02V9.42H12.5v5.83h1.27l-.29-1.17h4.66v.03zm1.14 0h1.13V7.12H2.33v10.5h1.14V8.29h6.77v9.33h4.08l-.29-1.17h-2.66V8.29h7.91v5.82zm.97 1.17H14.9c.29 1.17.55 2.34.84 3.51h3.63l.88-3.51zM9.07 17.62v-3.51H4.54v3.51h4.53zm0-4.68V9.42H4.54v3.52h4.53zM3.43 1.26H5.7v4.69H3.43V1.26zm4.54 0h2.27v4.69H7.97V1.26zm4.53 0h2.27v4.69H12.5V1.26zm4.54 0h2.27v4.69h-2.27V1.26z" class="st1"/><path d="M22.68.09v5.25c0 .74-.46 1.41-1.14 1.64v5.92h1.14v1.18h-.97l-.17.63v2.84h1.14v1.18h-2.11l-.29 1.17H18.69c-.32 0-.55.26-.55.56 0 .34.26.57.55.57.33 0 .55-.26.55-.57 0-.33-.26-.56-.55-.56h-2.27c-.32 0-.55.26-.55.56 0 .34.26.57.55.57.33 0 .56-.26.56-.57 0-.33-.26-.56-.56-.56H14.84l-.29-1.17H0v-1.18h1.13V6.95C.45 6.71 0 6.05 0 5.31V.06h22.61l.07.03m-4.54 14.02V9.42H12.5v5.83h1.27l-.29-1.17h4.66v.03m1.14 0h1.13V7.12H2.33v10.5h1.14V8.29h6.77v9.33h4.08l-.29-1.17h-2.66V8.29h7.91v5.82m.97 1.17H14.9c.29 1.17.55 2.34.84 3.51h3.63m-10.3-1.17v-3.51H4.54v3.51h4.53m0-4.68V9.42H4.54v3.52h4.53M3.43 1.26H5.7v4.69H3.43V1.26m4.54 0h2.27v4.69H7.97V1.26m4.53 0h2.27v4.69H12.5V1.26m4.54 0h2.27v4.69h-2.27V1.26" class="st2"/></g></g></svg>