<svg xmlns="http://www.w3.org/2000/svg" xmlns:v="http://schemas.microsoft.com/visio/2003/SVGExtensions/" width=".332in" height=".284in" viewBox="0 0 23.8683 20.4668" color-interpolation-filters="sRGB" class="st2"><v:documentProperties v:langID="1033" v:metric="true" v:viewMarkup="false"/><style type="text/css"><![CDATA[
		.st1 {fill:#000000;stroke:none;stroke-linecap:butt;stroke-width:0.0286625}
		.st2 {fill:none;fill-rule:evenodd;font-size:12px;overflow:visible;stroke-linecap:square;stroke-miterlimit:3}
	]]></style><g v:mID="0" v:index="1" v:groupContext="foregroundPage"><title>Page-1</title><v:pageProperties v:drawingScale=".039" v:pageScale=".039" v:drawingUnits="24" v:shadowOffsetX="8.504" v:shadowOffsetY="-8.504"/><g id="shape42-1" v:mID="42" v:groupContext="shape" transform="translate(.029 -.029)"><title>Store 3</title><path d="M15.9 17.37c.44.3.75.82.75 1.4 0 .95-.79 1.7-1.78 1.7-.78 0-1.43-.49-1.67-1.14h-2.59c-.24.65-.92 1.14-1.67 1.14-.99 0-1.78-.75-1.78-1.7 0-.94.79-1.69 1.78-1.69.78 0 1.43.49 1.67 1.14h2.59c.24-.62.85-1.11 1.57-1.14l.34-1.14H7.54l-1.81-5.66h11.05l.58-1.86.14-.39H20.2v1.14h-1.81c-.86 2.74-1.67 5.5-2.49 8.27v-.07zm1.94-16.21h2.39v4.56h-2.39V1.16zm-4.77 0h2.38v4.56h-2.38V1.16zm-4.78 0h2.39v4.56H8.29V1.16zm-4.78 0H5.9v4.56H3.51V1.16zm14.3 15.89h3.58V6.83H2.35v10.22h3.62v1.14H1.19V6.76C.51 6.53 0 5.88 0 5.17V.06h23.81v5.11c0 .75-.51 1.36-1.19 1.59v11.43h-4.74v-1.14h-.07zM7.64 12.49h8.43l.34-1.14H7.3l.34 1.14zm8.09 1.14H7.98l.34 1.14h7.03l.34-1.14h.04z" class="st1"/></g></g></svg>