<svg xmlns="http://www.w3.org/2000/svg" xmlns:v="http://schemas.microsoft.com/visio/2003/SVGExtensions/" width="30.312" height="28.12" viewBox="0 0 22.7339 21.0898" color-interpolation-filters="sRGB" class="st3"><v:documentProperties v:langID="1044" v:metric="true" v:viewMarkup="false"/><style><![CDATA[
		.st1 {fill:#000000}
		.st2 {stroke:none;stroke-linecap:butt;stroke-width:0.0283464}
		.st3 {fill:none;fill-rule:evenodd;font-size:12px;overflow:visible;stroke-linecap:square;stroke-miterlimit:3}
	]]></style><g v:mID="0" v:index="1" v:groupContext="foregroundPage"><title>Page-1</title><v:pageProperties v:drawingScale=".039" v:pageScale=".039" v:drawingUnits="24" v:shadowOffsetX="8.504" v:shadowOffsetY="-8.504"/><g id="shape27-1" v:mID="27" v:groupContext="shape" transform="translate(.028 -.028)"><title>Store 4</title><path d="M.41 1.42h.41V.06h20.77v1.36h1.09v7.79c0 .49-.2.93-.52 1.25-.23.23-.52.4-.85.48v10.15H1.37l-.01-.4v-9.75c-.31-.08-.61-.25-.84-.48C.2 10.14 0 9.7 0 9.21V1.42h.41zm11.34 12.03h6.56v-2.47h-.14c-.49 0-.93-.2-1.26-.52-.03-.03-.07-.07-.1-.12-.04.05-.08.09-.12.12-.32.32-.77.52-1.25.52-.49 0-.93-.2-1.25-.52h-.01c-.04-.03-.08-.07-.11-.12-.04.05-.07.09-.11.12-.32.32-.76.52-1.25.52-.36 0-.68-.1-.96-.28v2.75zm6.56.54h-6.56v2.73h6.56v-2.73zM3.28 20.28v-9.79l-.03-.03c-.04-.03-.07-.07-.11-.12-.03.05-.07.09-.11.12-.23.23-.52.4-.85.48v9.34h1.1zm.55-9.44v9.44h5.73v-9.34c-.32-.08-.61-.25-.84-.48-.04-.03-.08-.07-.12-.12-.03.05-.07.09-.1.12-.33.32-.77.52-1.26.52s-.93-.2-1.25-.52c-.04-.03-.08-.07-.11-.12-.04.05-.08.09-.12.12-.32.32-.76.52-1.25.52-.24 0-.47-.04-.68-.14zm6.28-.95v.27c.21-.04.39-.14.54-.28.17-.17.28-.41.28-.67V7.44H9.02v1.77c0 .26.1.5.28.67.07.08.16.14.26.19v-.18h.55zm0 1.09v9.3h10.38v-9.34c-.32-.08-.62-.25-.84-.48-.04-.03-.08-.07-.12-.12-.03.05-.07.09-.11.12-.16.17-.35.3-.57.38V17.27H11.2v-6.78c-.29.28-.67.45-1.09.49zm1.14-.54h.17c-.03-.03-.05-.07-.08-.1-.02.03-.06.07-.09.1zM.82 6.89h1.91V2.24H.82v4.65zm2.73 0h1.92V2.24H3.55v4.65zm2.73 0h1.91V2.24H6.28v4.65zm2.74 0h1.91V2.24H9.02v4.65zm2.73 0h1.91V2.24h-1.91v4.65zm2.73 0h1.92V2.24h-1.92v4.65zm2.74 0h1.91V2.24h-1.91v4.65zm2.72 0h1.92V2.24h-1.92v4.65zm1.92.55h-1.92v1.77c0 .26.11.5.29.67.17.17.41.28.67.28.27 0 .51-.11.68-.28.17-.17.28-.41.28-.67V7.44zm-2.73 0h-1.91v1.77c0 .26.11.5.28.67.17.17.41.28.67.28.26 0 .5-.11.67-.28.18-.17.29-.41.29-.67V7.44zm-2.73 0h-1.92v1.77c0 .26.11.5.28.67.17.17.41.28.68.28.26 0 .5-.11.67-.28.18-.17.29-.41.29-.67V7.44zm-2.74 0h-1.91v1.77c0 .26.11.5.28.67.18.17.42.28.68.28.26 0 .5-.11.67-.28.17-.17.28-.41.28-.67V7.44zm-5.47 0H6.28v1.77c0 .26.11.5.29.67.17.17.41.28.67.28.26 0 .5-.11.68-.28.17-.17.27-.41.27-.67V7.44zm-2.72 0H3.55v1.77c0 .26.11.5.28.67.17.17.41.28.68.28.26 0 .5-.11.67-.28.18-.17.29-.41.29-.67V7.44zm-2.74 0H.82v1.77c0 .26.11.5.28.67.18.17.41.28.67.28.27 0 .51-.11.69-.28.17-.17.27-.41.27-.67V7.44z" class="st1"/><path d="M.41 1.42h.41V.06h20.77v1.36h1.09v7.79c0 .49-.2.93-.52 1.25-.23.23-.52.4-.85.48v10.15H1.37l-.01-.4v-9.75c-.31-.08-.61-.25-.84-.48C.2 10.14 0 9.7 0 9.21V1.42h.41m11.34 12.03h6.56v-2.47h-.14c-.49 0-.93-.2-1.26-.52-.03-.03-.07-.07-.1-.12-.04.05-.08.09-.12.12-.32.32-.77.52-1.25.52-.49 0-.93-.2-1.25-.52h-.01c-.04-.03-.08-.07-.11-.12-.04.05-.07.09-.11.12-.32.32-.76.52-1.25.52-.36 0-.68-.1-.96-.28v2.75m6.56.54h-6.56v2.73h6.56v-2.73M3.28 20.28v-9.79l-.03-.03c-.04-.03-.07-.07-.11-.12-.03.05-.07.09-.11.12-.23.23-.52.4-.85.48v9.34h1.1m.55-9.44v9.44h5.73v-9.34c-.32-.08-.61-.25-.84-.48-.04-.03-.08-.07-.12-.12-.03.05-.07.09-.1.12-.33.32-.77.52-1.26.52s-.93-.2-1.25-.52c-.04-.03-.08-.07-.11-.12-.04.05-.08.09-.12.12-.32.32-.76.52-1.25.52-.24 0-.47-.04-.68-.14m6.28-.95v.27c.21-.04.39-.14.54-.28.17-.17.28-.41.28-.67V7.44H9.02v1.77c0 .26.1.5.28.67.07.08.16.14.26.19v-.18h.55m0 1.09v9.3h10.38v-9.34c-.32-.08-.62-.25-.84-.48-.04-.03-.08-.07-.12-.12-.03.05-.07.09-.11.12-.16.17-.35.3-.57.38V17.27H11.2v-6.78c-.29.28-.67.45-1.09.49m1.14-.54h.17c-.03-.03-.05-.07-.08-.1-.02.03-.06.07-.09.1M.82 6.89h1.91V2.24H.82v4.65m2.73 0h1.92V2.24H3.55v4.65m2.73 0h1.91V2.24H6.28v4.65m2.74 0h1.91V2.24H9.02v4.65m2.73 0h1.91V2.24h-1.91v4.65m2.73 0h1.92V2.24h-1.92v4.65m2.74 0h1.91V2.24h-1.91v4.65m2.72 0h1.92V2.24h-1.92v4.65m1.92.55h-1.92v1.77c0 .26.11.5.29.67.17.17.41.28.67.28.27 0 .51-.11.68-.28.17-.17.28-.41.28-.67V7.44m-2.73 0h-1.91v1.77c0 .26.11.5.28.67.17.17.41.28.67.28.26 0 .5-.11.67-.28.18-.17.29-.41.29-.67V7.44m-2.73 0h-1.92v1.77c0 .26.11.5.28.67.17.17.41.28.68.28.26 0 .5-.11.67-.28.18-.17.29-.41.29-.67V7.44m-2.74 0h-1.91v1.77c0 .26.11.5.28.67.18.17.42.28.68.28.26 0 .5-.11.67-.28.17-.17.28-.41.28-.67V7.44m-5.47 0H6.28v1.77c0 .26.11.5.29.67.17.17.41.28.67.28.26 0 .5-.11.68-.28.17-.17.27-.41.27-.67V7.44m-2.72 0H3.55v1.77c0 .26.11.5.28.67.17.17.41.28.68.28.26 0 .5-.11.67-.28.18-.17.29-.41.29-.67V7.44m-2.74 0H.82v1.77c0 .26.11.5.28.67.18.17.41.28.67.28.27 0 .51-.11.69-.28.17-.17.27-.41.27-.67V7.44" class="st2"/></g></g></svg>