<svg id="Layer_1" data-name="Layer 1" xmlns="http://www.w3.org/2000/svg" viewBox="0 0 74.19 94.66"><defs><style>.cls-1{fill:#231f20;}</style></defs><title>cyber security icon 8 juli</title><path class="cls-1" d="M63.053,50.96a6.156,6.156,0,0,0-4.982,2.548L53.76,51.977A16.981,16.981,0,0,0,48.965,35.99L59.92,20.574a7.885,7.885,0,1,0-3.69-1.71l-10.447,14.7a16.988,16.988,0,0,0-8.026-2.378l.033-6.533a5.174,5.174,0,1,0-4-.206l-.036,7.032a17.006,17.006,0,0,0-4.747,1.7L17.774,17.055a7.279,7.279,0,1,0-3.356,2.18L25.735,35.474a17.1,17.1,0,0,0-5.441,9.4l-2.36-.275A6.164,6.164,0,1,0,17.2,48.54l2.78.325a17.045,17.045,0,0,0,5.393,11.859L17.269,72.168A9.1,9.1,0,1,0,20.6,74.379l7.988-11.272a16.982,16.982,0,0,0,8.474,2.266c.132,0,.259-.017.391-.02l1.237,8.428a6.163,6.163,0,1,0,3.9-.972l-1.177-8.018a17.154,17.154,0,0,0,11.012-9.042L56.9,57.336a6.163,6.163,0,1,0,6.155-6.376ZM61.278,8.931a3.884,3.884,0,1,1-3.885,3.884A3.889,3.889,0,0,1,61.278,8.931ZM8.97,12.243a3.313,3.313,0,1,1,3.313,3.312A3.317,3.317,0,0,1,8.97,12.243Zm5.082,73.486a5.081,5.081,0,1,1,5.081-5.08A5.087,5.087,0,0,1,14.052,85.729Zm30.164-6.782a2.166,2.166,0,1,1-2.165-2.166A2.168,2.168,0,0,1,44.216,78.947ZM36.034,18.635a1.172,1.172,0,1,1-1.172,1.172A1.174,1.174,0,0,1,36.034,18.635ZM11.844,47.673a2.166,2.166,0,1,1,2.165-2.165A2.168,2.168,0,0,1,11.844,47.673Zm25.222,13.7A13.112,13.112,0,1,1,50.178,48.262,13.126,13.126,0,0,1,37.066,61.373Zm25.987-2.082a2.166,2.166,0,1,1,2.167-2.165A2.169,2.169,0,0,1,63.053,59.291Z"/></svg>