<svg width="1259" height="1175" xmlns="http://www.w3.org/2000/svg" xmlns:xlink="http://www.w3.org/1999/xlink" overflow="hidden"><defs><clipPath id="clip0"><rect x="2811" y="33" width="1259" height="1175"/></clipPath></defs><g clip-path="url(#clip0)" transform="translate(-2811 -33)"><path d="M3341.48 60.5C3420.81 60.5 3490.75 106.359 3532.05 176.11L3551.44 216.862 3561.61 212.107C3586.33 203.101 3613.5 198.12 3642.03 198.12 3756.13 198.12 3848.63 277.805 3848.63 376.1L3844.93 407.725 3877.54 410.49C3971.68 426.693 4042.5 496.755 4042.5 580.729 4042.5 676.7 3950 754.5 3835.9 754.5L3809.16 752.232 3809.16 753.848 3076.18 753.848 3068.32 754.5C2941.39 754.5 2838.5 657.843 2838.5 538.61 2838.5 419.377 2941.39 322.719 3068.32 322.719L3112.03 326.859 3111.67 322.719C3111.67 177.899 3214.56 60.5 3341.48 60.5Z" stroke="#000000" stroke-width="55" stroke-miterlimit="8" fill="none" fill-rule="evenodd"/><path d="M3026.5 1122C3026.5 1089.69 3052.69 1063.5 3085 1063.5 3117.31 1063.5 3143.5 1089.69 3143.5 1122 3143.5 1154.31 3117.31 1180.5 3085 1180.5 3052.69 1180.5 3026.5 1154.31 3026.5 1122Z" stroke="#000000" stroke-width="55" stroke-miterlimit="8" fill="none" fill-rule="evenodd"/><path d="M3392.5 1122C3392.5 1089.69 3418.69 1063.5 3451 1063.5 3483.31 1063.5 3509.5 1089.69 3509.5 1122 3509.5 1154.31 3483.31 1180.5 3451 1180.5 3418.69 1180.5 3392.5 1154.31 3392.5 1122Z" stroke="#000000" stroke-width="55" stroke-miterlimit="8" fill="none" fill-rule="evenodd"/><path d="M3772.5 1122C3772.5 1089.69 3798.69 1063.5 3831 1063.5 3863.31 1063.5 3889.5 1089.69 3889.5 1122 3889.5 1154.31 3863.31 1180.5 3831 1180.5 3798.69 1180.5 3772.5 1154.31 3772.5 1122Z" stroke="#000000" stroke-width="55" stroke-miterlimit="8" fill="none" fill-rule="evenodd"/><path d="M3084.5 1063.24 3084.5 912.369 3451.55 912.369 3451.55 761.5" stroke="#000000" stroke-width="55" stroke-miterlimit="8" fill="none" fill-rule="evenodd"/><path d="M3451.5 1063.24 3451.5 912.37 3452.21 912.37 3452.21 761.5" stroke="#000000" stroke-width="55" stroke-miterlimit="8" fill="none" fill-rule="evenodd"/><path d="M0 0 150.87 0 150.87 379.378 301.739 379.378" stroke="#000000" stroke-width="55" stroke-miterlimit="8" fill="none" fill-rule="evenodd" transform="matrix(-1.83697e-16 -1 -1 1.83697e-16 3830.88 1063.24)"/></g></svg>