<svg id="Layer_1" data-name="Layer 1" xmlns="http://www.w3.org/2000/svg" viewBox="0 0 74.19 94.66"><defs><style>.cls-1{fill:#231f20;}</style></defs><title>cyber security icon 8 juli</title><path class="cls-1" d="M63.478,69.814A13.1,13.1,0,0,0,50.554,56.789a20.346,20.346,0,0,0-39.841,5.82A20.037,20.037,0,0,0,11.856,69.3a10.548,10.548,0,0,0,3.691,20.429h43.1a10.543,10.543,0,0,0,4.834-19.915ZM58.644,85.729h-43.1a6.545,6.545,0,0,1-.723-13.051l2.836-.311L16.4,69.807a16.188,16.188,0,0,1-1.689-7.2,16.345,16.345,0,0,1,32.349-3.323l.373,1.807,1.831-.226a9.019,9.019,0,0,1,10.212,9,9.179,9.179,0,0,1-.06,1.009l-.177,1.595,1.518.518a6.543,6.543,0,0,1-2.115,12.736Z"/><path class="cls-1" d="M28.985,35.823H60.694A8.5,8.5,0,0,0,61.1,18.839a15.933,15.933,0,0,0-31.607-.01h-.511a8.5,8.5,0,0,0,0,16.994Zm0-12.994h4.45L33.4,20.791a.791.791,0,0,0-.008-.118v0a11.914,11.914,0,0,1,23.824-.08l-.049,2.234h3.531a4.5,4.5,0,0,1,0,8.994H28.985a4.5,4.5,0,0,1,0-8.994Z"/></svg>