<svg width="1718" height="1513" xmlns="http://www.w3.org/2000/svg" xmlns:xlink="http://www.w3.org/1999/xlink" overflow="hidden"><defs><clipPath id="clip0"><rect x="46" y="21" width="1718" height="1513"/></clipPath></defs><g clip-path="url(#clip0)" transform="translate(-46 -21)"><path d="M654.5 530.5 891.687 667.186" stroke="#000000" stroke-width="55" stroke-linecap="square" stroke-miterlimit="8" fill="none" fill-rule="evenodd"/><path d="M0 0 246.208 164.473" stroke="#000000" stroke-width="55" stroke-linecap="square" stroke-miterlimit="8" fill="none" fill-rule="evenodd" transform="matrix(1 0 0 -1 908.5 667.973)"/><path d="M659.5 200.5 891.532 322.513" stroke="#000000" stroke-width="55" stroke-linecap="square" stroke-miterlimit="8" fill="none" fill-rule="evenodd"/><path d="M0 0 253.768 132.95" stroke="#000000" stroke-width="55" stroke-linecap="square" stroke-miterlimit="8" fill="none" fill-rule="evenodd" transform="matrix(1 0 0 -1 900.5 322.45)"/><path d="M644.5 189.5 644.5 514.303" stroke="#000000" stroke-width="55" stroke-linecap="square" stroke-miterlimit="8" fill="none" fill-rule="evenodd"/><path d="M900.5 339.5 900.5 648.933" stroke="#000000" stroke-width="55" stroke-linecap="square" stroke-miterlimit="8" fill="none" fill-rule="evenodd"/><path d="M1164.5 189.5 1164.5 480.218" stroke="#000000" stroke-width="55" stroke-linecap="square" stroke-miterlimit="8" fill="none" fill-rule="evenodd"/><path d="M0 0 224.296 113.038" stroke="#000000" stroke-width="55" stroke-linecap="square" stroke-miterlimit="8" fill="none" fill-rule="evenodd" transform="matrix(1 0 0 -1 654.5 173.538)"/><path d="M904.5 60.5 1153.91 175.256" stroke="#000000" stroke-width="55" stroke-linecap="square" stroke-miterlimit="8" fill="none" fill-rule="evenodd"/><path d="M1097.5 712.5 1186.89 853.578" stroke="#000000" stroke-width="55" stroke-linecap="square" stroke-miterlimit="8" fill="none" fill-rule="evenodd"/><path d="M95.5001 1357.5 332.687 1494.19" stroke="#000000" stroke-width="55" stroke-linecap="square" stroke-miterlimit="8" fill="none" fill-rule="evenodd"/><path d="M0 0 246.208 164.473" stroke="#000000" stroke-width="55" stroke-linecap="square" stroke-miterlimit="8" fill="none" fill-rule="evenodd" transform="matrix(1 0 0 -1 348.5 1493.97)"/><path d="M99.4998 1027.5 331.531 1149.51" stroke="#000000" stroke-width="55" stroke-linecap="square" stroke-miterlimit="8" fill="none" fill-rule="evenodd"/><path d="M0 0 253.768 132.95" stroke="#000000" stroke-width="55" stroke-linecap="square" stroke-miterlimit="8" fill="none" fill-rule="evenodd" transform="matrix(1 0 0 -1 340.5 1149.45)"/><path d="M85.5001 1016.5 85.5005 1341.3" stroke="#000000" stroke-width="55" stroke-linecap="square" stroke-miterlimit="8" fill="none" fill-rule="evenodd"/><path d="M340.5 1166.5 340.501 1475.93" stroke="#000000" stroke-width="55" stroke-linecap="square" stroke-miterlimit="8" fill="none" fill-rule="evenodd"/><path d="M604.5 1016.5 604.501 1307.22" stroke="#000000" stroke-width="55" stroke-linecap="square" stroke-miterlimit="8" fill="none" fill-rule="evenodd"/><path d="M0 0 224.296 113.038" stroke="#000000" stroke-width="55" stroke-linecap="square" stroke-miterlimit="8" fill="none" fill-rule="evenodd" transform="matrix(1 0 0 -1 95.5001 1000.54)"/><path d="M344.5 887.5 593.915 1002.26" stroke="#000000" stroke-width="55" stroke-linecap="square" stroke-miterlimit="8" fill="none" fill-rule="evenodd"/><path d="M1214.5 1357.5 1451.69 1494.19" stroke="#000000" stroke-width="55" stroke-linecap="square" stroke-miterlimit="8" fill="none" fill-rule="evenodd"/><path d="M0 0 246.208 164.473" stroke="#000000" stroke-width="55" stroke-linecap="square" stroke-miterlimit="8" fill="none" fill-rule="evenodd" transform="matrix(1 0 0 -1 1467.5 1493.97)"/><path d="M1219.5 1027.5 1451.53 1149.51" stroke="#000000" stroke-width="55" stroke-linecap="square" stroke-miterlimit="8" fill="none" fill-rule="evenodd"/><path d="M0 0 253.768 132.95" stroke="#000000" stroke-width="55" stroke-linecap="square" stroke-miterlimit="8" fill="none" fill-rule="evenodd" transform="matrix(1 0 0 -1 1460.5 1149.45)"/><path d="M1204.5 1016.5 1204.5 1341.3" stroke="#000000" stroke-width="55" stroke-linecap="square" stroke-miterlimit="8" fill="none" fill-rule="evenodd"/><path d="M1460.5 1166.5 1460.5 1475.93" stroke="#000000" stroke-width="55" stroke-linecap="square" stroke-miterlimit="8" fill="none" fill-rule="evenodd"/><path d="M1724.5 1016.5 1724.5 1307.22" stroke="#000000" stroke-width="55" stroke-linecap="square" stroke-miterlimit="8" fill="none" fill-rule="evenodd"/><path d="M0 0 224.296 113.038" stroke="#000000" stroke-width="55" stroke-linecap="square" stroke-miterlimit="8" fill="none" fill-rule="evenodd" transform="matrix(1 0 0 -1 1214.5 1000.54)"/><path d="M1464.5 887.5 1713.91 1002.26" stroke="#000000" stroke-width="55" stroke-linecap="square" stroke-miterlimit="8" fill="none" fill-rule="evenodd"/><path d="M0 0 89.388 141.078" stroke="#000000" stroke-width="55" stroke-linecap="square" stroke-miterlimit="8" fill="none" fill-rule="evenodd" transform="matrix(-1 0 0 1 703.888 712.5)"/><path d="M0 0 211.202 0.000360892" stroke="#000000" stroke-width="55" stroke-linecap="square" stroke-miterlimit="8" fill="none" fill-rule="evenodd" transform="matrix(-1 0 0 1 1008.7 1183.5)"/></g></svg>