<svg xmlns="http://www.w3.org/2000/svg" xmlns:v="http://schemas.microsoft.com/visio/2003/SVGExtensions/" width="22.753" height="30.567" viewBox="0 0 17.0646 22.9251" color-interpolation-filters="sRGB" class="st2"><v:documentProperties v:langID="1044" v:metric="true" v:viewMarkup="false"/><style><![CDATA[
		.st1 {fill:#000000;stroke:none;stroke-linecap:butt;stroke-width:0.0283464}
		.st2 {fill:none;fill-rule:evenodd;font-size:12px;overflow:visible;stroke-linecap:square;stroke-miterlimit:3}
	]]></style><g v:mID="0" v:index="1" v:groupContext="foregroundPage"><title>Page-1</title><v:pageProperties v:drawingScale=".039" v:pageScale=".039" v:drawingUnits="24" v:shadowOffsetX="8.504" v:shadowOffsetY="-8.504"/><g id="shape28-1" v:mID="28" v:groupContext="shape" transform="translate(.028 -.028)"><title>Data system</title><path d="M17.01 15.01c0 1.08-1.03 2-2.7 2.63-1.5.55-3.54.89-5.81.89-2.25 0-4.3-.34-5.79-.89C1.04 17.01 0 16.09 0 15.01V3.57c0-1.08 1.04-2 2.71-2.62C4.2.4 6.25.06 8.5.06c2.27 0 4.31.34 5.81.89 1.67.62 2.7 1.54 2.7 2.62v11.44zm-9.09 6.74v-2.63h1.17v2.63h7.92v1.18H0v-1.18h7.92zm7.92-16.33c-.42.3-.94.56-1.53.78-1.5.55-3.54.89-5.81.89-2.25 0-4.3-.34-5.79-.89-.6-.22-1.11-.48-1.54-.78v1.97c0 .53.74 1.08 1.94 1.52 1.37.51 3.28.82 5.39.82 2.12 0 4.04-.31 5.41-.82 1.19-.44 1.93-.99 1.93-1.52V5.42zm-1.93-3.37c-1.37-.51-3.29-.82-5.41-.82-2.11 0-4.02.31-5.39.82-1.2.44-1.94.98-1.94 1.52s.74 1.08 1.94 1.52c1.37.52 3.28.83 5.39.83 2.12 0 4.04-.31 5.41-.83 1.19-.44 1.93-.98 1.93-1.52s-.74-1.08-1.93-1.52zM1.17 9.23v1.97c0 .54.74 1.08 1.94 1.53 1.37.5 3.28.82 5.39.82 2.12 0 4.04-.32 5.41-.82 1.19-.45 1.93-.99 1.93-1.53V9.23c-.42.29-.94.56-1.53.78-1.5.55-3.54.89-5.81.89-2.25 0-4.3-.34-5.79-.89-.6-.22-1.11-.49-1.54-.78zm0 3.82v1.96c0 .54.74 1.08 1.94 1.52 1.37.51 3.28.83 5.39.83 2.12 0 4.04-.32 5.41-.83 1.19-.44 1.93-.98 1.93-1.52v-1.96c-.42.29-.94.55-1.53.77-1.5.55-3.54.9-5.81.9-2.25 0-4.3-.35-5.79-.9-.6-.22-1.11-.48-1.54-.77z" class="st1"/></g></g></svg>