<svg xmlns="http://www.w3.org/2000/svg" xmlns:v="http://schemas.microsoft.com/visio/2003/SVGExtensions/" width=".239in" height=".342in" viewBox="0 0 17.2328 24.6261" color-interpolation-filters="sRGB" class="st2"><v:documentProperties v:langID="1033" v:metric="true" v:viewMarkup="false"/><style type="text/css"><![CDATA[
		.st1 {fill:#000000;stroke:none;stroke-linecap:butt;stroke-width:0.0286625}
		.st2 {fill:none;fill-rule:evenodd;font-size:12px;overflow:visible;stroke-linecap:square;stroke-miterlimit:3}
	]]></style><g v:mID="0" v:index="1" v:groupContext="foregroundPage"><title>Page-1</title><v:pageProperties v:drawingScale=".039" v:pageScale=".039" v:drawingUnits="24" v:shadowOffsetX="8.504" v:shadowOffsetY="-8.504"/><g id="shape53-1" v:mID="53" v:groupContext="shape" transform="translate(.029 -.029)"><title>User 4</title><path d="M.03 24.63v-4.86c0-1.48.56-2.86 1.48-3.85.72-.78 1.68-1.34 2.73-1.54-.5-.76-.79-1.71-.79-2.82V6.73c0-6.7 10.31-6.7 10.31 0v4.83c0 1.11-.3 2.06-.79 2.82 1.05.2 2.01.76 2.73 1.54.92.99 1.48 2.34 1.48 3.85v4.86h-1.15v-4.86c0-1.19-.46-2.27-1.19-3.06-.72-.75-1.7-1.25-2.79-1.25h-.06c-1.91 1.51-4.9 1.51-6.8 0h-.07c-1.08 0-2.07.5-2.79 1.25-.72.79-1.18 1.87-1.18 3.06v4.86H0h.03zm4.6-17.9v4.83c0 5.18 8.01 5.18 8.01 0V6.73c0-5.19-8.01-5.19-8.01 0z" class="st1"/></g></g></svg>