<svg xmlns="http://www.w3.org/2000/svg" xmlns:v="http://schemas.microsoft.com/visio/2003/SVGExtensions/" width=".24in" height=".32in" viewBox="0 0 17.2789 23.0743" color-interpolation-filters="sRGB" class="st2"><v:documentProperties v:langID="1033" v:metric="true" v:viewMarkup="false"/><style type="text/css"><![CDATA[
		.st1 {fill:#000000;stroke:none;stroke-linecap:butt;stroke-width:0.0286625}
		.st2 {fill:none;fill-rule:evenodd;font-size:12px;overflow:visible;stroke-linecap:square;stroke-miterlimit:3}
	]]></style><g v:mID="0" v:index="1" v:groupContext="foregroundPage"><title>Page-1</title><v:pageProperties v:drawingScale=".039" v:pageScale=".039" v:drawingUnits="24" v:shadowOffsetX="8.504" v:shadowOffsetY="-8.504"/><g id="shape51-1" v:mID="51" v:groupContext="shape" transform="translate(.029 -.029)"><title>User 2</title><path d="M.03 23.07V18.2c0-1.48.56-2.86 1.48-3.85.73-.79 1.68-1.35 2.74-1.55l-.07-.13-4.15-1.12 2.11-5.17C3 4.27 4.35 1.31 6.55.45 7.21.19 7.94.06 8.63.06c.72 0 1.41.13 2.07.39 2.21.86 3.56 3.82 4.41 5.93l2.11 5.17-4.15 1.12-.06.13c1.05.2 2.01.76 2.73 1.55.92.99 1.48 2.34 1.48 3.85v4.87h-1.15V18.2c0-1.18-.46-2.27-1.19-3.06-.72-.76-1.71-1.25-2.8-1.25h-.06c-1.91 1.51-4.91 1.54-6.82 0h-.06c-1.09 0-2.08.49-2.8 1.25-.73.79-1.19 1.88-1.19 3.06v4.87H0h.03zM12.68 5.85H4.64V10c0 5.2 8.04 5.2 8.04 0V5.85z" class="st1"/></g></g></svg>