<svg id="Layer_1" data-name="Layer 1" xmlns="http://www.w3.org/2000/svg" viewBox="0 0 74.19 94.66"><title>cyber security icon 8 juli</title><path d="M53.337,50.831a18.228,18.228,0,0,0,2.44-9.109V23.371c0-.236-.027-.466-.036-.7V12.3a7.3,7.3,0,0,0-7.3-7.3H25.731a7.3,7.3,0,0,0-7.3,7.3v9.95c-.023.374-.057.745-.057,1.124V41.722a18.24,18.24,0,0,0,2.446,9.12A27.276,27.276,0,0,0,5,75.555V89.661H9V75.555A23.263,23.263,0,0,1,23.252,54.146a18.305,18.305,0,0,0,13.5,5.948H37.4a18.3,18.3,0,0,0,13.5-5.959,23.372,23.372,0,0,1,14.282,21.42V89.661h4V75.555A27.409,27.409,0,0,0,53.337,50.831Zm-11.627,4.6a4.636,4.636,0,0,0-9.232.013,14.4,14.4,0,0,1-10.1-13.725V26.991h29.4V41.722A14.4,14.4,0,0,1,41.71,55.434Z"/><path d="M51.739,50.735c-1.351,5.688-7.391,8.88-14.644,8.88S23.8,56.423,22.451,50.735C13.769,54.927,7.929,62.725,7.929,71.659v1.824H66.261V71.659C66.261,62.725,60.421,54.927,51.739,50.735Z"/></svg>