<svg id="Layer_1" data-name="Layer 1" xmlns="http://www.w3.org/2000/svg" viewBox="0 0 74.19 94.66"><title>cyber security icon 8 juli</title><path d="M53.337,50.831a18.228,18.228,0,0,0,2.44-9.109V23.371A18.393,18.393,0,0,0,37.4,5h-.657A18.392,18.392,0,0,0,18.375,23.371V41.722a18.24,18.24,0,0,0,2.446,9.12A27.276,27.276,0,0,0,5,75.555V89.661H9V75.555A23.263,23.263,0,0,1,23.252,54.146a18.305,18.305,0,0,0,13.5,5.948H37.4a18.3,18.3,0,0,0,13.5-5.959,23.372,23.372,0,0,1,14.282,21.42V89.661h4V75.555A27.409,27.409,0,0,0,53.337,50.831ZM37.4,56.094h-.657A14.389,14.389,0,0,1,22.375,41.722V29.093A4.733,4.733,0,0,0,25.363,24.7V14.633a14.437,14.437,0,0,1,5.3-4.264c.173,2.393,2.982,4.3,6.432,4.3s6.245-1.895,6.431-4.279a14.5,14.5,0,0,1,5.3,4.292V24.7a4.736,4.736,0,0,0,2.95,4.383V41.722A14.389,14.389,0,0,1,37.4,56.094Z"/><rect x="35.095" y="65.967" width="4" height="8.561"/><path d="M44.668,54.655v2.083a7.573,7.573,0,0,1-15.146,0V54.655h-4v2.083a11.573,11.573,0,1,0,23.146,0V54.655Z"/></svg>