<svg xmlns="http://www.w3.org/2000/svg" xmlns:v="http://schemas.microsoft.com/visio/2003/SVGExtensions/" width=".242in" height=".322in" viewBox="0 0 17.4002 23.2033" color-interpolation-filters="sRGB" class="st2"><v:documentProperties v:langID="1033" v:metric="true" v:viewMarkup="false"/><style type="text/css"><![CDATA[
		.st1 {fill:#000000;stroke:none;stroke-linecap:butt;stroke-width:0.0286625}
		.st2 {fill:none;fill-rule:evenodd;font-size:12px;overflow:visible;stroke-linecap:square;stroke-miterlimit:3}
	]]></style><g v:mID="0" v:index="1" v:groupContext="foregroundPage"><title>Page-1</title><v:pageProperties v:drawingScale=".039" v:pageScale=".039" v:drawingUnits="24" v:shadowOffsetX="8.504" v:shadowOffsetY="-8.504"/><g id="shape50-1" v:mID="50" v:groupContext="shape" transform="translate(.029 -.029)"><title>User 1</title><path d="M8.65.06c3.32 0 6.14 3.21 6.57 6.36l1.16 8.69c.6.9.96 1.99.96 3.19v4.9h-1.16v-4.9c0-1.2-.46-2.29-1.19-3.09-.73-.76-1.73-1.26-2.82-1.26h-.07c-1.92 1.53-4.94 1.53-6.86 0h-.07c-1.09 0-2.09.5-2.82 1.26-.73.8-1.19 1.89-1.19 3.09v4.9H0v-4.9c0-1.2.36-2.29.96-3.19l1.16-8.69C2.55 3.27 5.37.06 8.69.06h-.04zm4.05 5.77H4.61v4.18c0 5.23 8.09 5.23 8.09 0V5.83z" class="st1"/></g></g></svg>