<svg id="Layer_1" data-name="Layer 1" xmlns="http://www.w3.org/2000/svg" viewBox="0 0 74.19 94.66"><title>cyber security icon 8 juli</title><path d="M53.337,50.831a18.228,18.228,0,0,0,2.44-9.109V23.371A18.393,18.393,0,0,0,37.4,5h-.657A18.392,18.392,0,0,0,18.375,23.371V41.722a18.24,18.24,0,0,0,2.446,9.12A27.276,27.276,0,0,0,5,75.555V89.661H9V75.555A23.263,23.263,0,0,1,23.252,54.146a18.305,18.305,0,0,0,13.5,5.948H37.4a18.3,18.3,0,0,0,13.5-5.959,23.372,23.372,0,0,1,14.282,21.42V89.661h4V75.555A27.409,27.409,0,0,0,53.337,50.831Zm-16.59,5.263a14.329,14.329,0,0,1-4.19-.626V53.93a4.455,4.455,0,1,1,8.909,0V55.5a14.307,14.307,0,0,1-4.062.594Zm8.7-2.47a8.444,8.444,0,0,0-16.874-.092,14.361,14.361,0,0,1-6.2-11.81v-8.43a11.069,11.069,0,0,0,3.37-8.136,11.366,11.366,0,0,0-2.36-7.042A14.384,14.384,0,0,1,36.747,9H37.4A14.386,14.386,0,0,1,50.78,18.148a11.368,11.368,0,0,0-2.335,7.008,11.086,11.086,0,0,0,3.332,8.105v8.461A14.369,14.369,0,0,1,45.451,53.624Z"/><rect x="35.095" y="56.795" width="4" height="32.866"/></svg>