<svg xmlns="http://www.w3.org/2000/svg" xmlns:v="http://schemas.microsoft.com/visio/2003/SVGExtensions/" width=".241in" height=".32in" viewBox="0 0 17.3366 23.0743" color-interpolation-filters="sRGB" class="st2"><v:documentProperties v:langID="1033" v:metric="true" v:viewMarkup="false"/><style type="text/css"><![CDATA[
		.st1 {fill:#000000;stroke:none;stroke-linecap:butt;stroke-width:0.0286625}
		.st2 {fill:none;fill-rule:evenodd;font-size:12px;overflow:visible;stroke-linecap:square;stroke-miterlimit:3}
	]]></style><g v:mID="0" v:index="1" v:groupContext="foregroundPage"><title>Page-1</title><v:pageProperties v:drawingScale=".039" v:pageScale=".039" v:drawingUnits="24" v:shadowOffsetX="8.504" v:shadowOffsetY="-8.504"/><g id="shape54-1" v:mID="54" v:groupContext="shape" transform="translate(.029 -.029)"><title>User 5</title><path d="M.96 15.03l1.15-8.64C2.54 3.29 5.31.06 8.64.06s6.1 3.23 6.53 6.33l1.15 8.64c.6.89.96 1.98.96 3.16v4.88h-1.15v-4.88c0-1.18-.47-2.27-1.19-3.06-.5-.53-1.16-.93-1.85-1.12L9.13 20.5l-.49.79-.5-.79-3.95-6.49c-.73.19-1.35.59-1.85 1.12-.72.79-1.19 1.88-1.19 3.06v4.88H0v-4.88c0-1.18.36-2.27.96-3.16zm3.62-9.2h8.05v4.15c0 1.88-1.02 3.07-2.34 3.6-.53.2-1.09.29-1.68.29-.56 0-1.16-.09-1.69-.29-1.31-.53-2.34-1.72-2.34-3.6V5.83zm7.03 8.34l-3 4.91-3-4.91c.29.17.59.33.89.46.66.27 1.38.4 2.07.4.73 0 1.42-.13 2.08-.4.33-.13.63-.26.89-.46h.07z" class="st1"/></g></g></svg>