<svg id="Layer_1" data-name="Layer 1" xmlns="http://www.w3.org/2000/svg" viewBox="0 0 74.19 94.66"><title>cyber security icon 8 juli</title><path d="M60.025,55.236V27.928A22.928,22.928,0,0,0,39.54,5.134c-.2-.024-.409-.041-.616-.058-.482-.038-.967-.066-1.457-.074-.022,0-.042,0-.063,0h-.657c-.083,0-.164.011-.248.012s-.159,0-.24,0c-.312.011-.621.033-.929.057s-.589.051-.88.087c-11.541,1.349-20.285,11.5-20.285,23.32v26.73A27.25,27.25,0,0,0,5,75.555V89.661H9V75.555a23.181,23.181,0,0,1,5.185-14.583A11.571,11.571,0,0,0,25.745,72.183v-15.8a18.2,18.2,0,0,0,11,3.707H37.4a18.2,18.2,0,0,0,11.041-3.738V72.183A11.57,11.57,0,0,0,60,61a23.233,23.233,0,0,1,5.187,14.551V89.661h4V75.555A27.369,27.369,0,0,0,60.025,55.236ZM37.4,56.094h-.657a14.342,14.342,0,0,1-11-5.143V30.277h0c7.187,0,13.444-3.207,16.778-7.955a17.709,17.709,0,0,0,5.919,5.21V50.909A14.344,14.344,0,0,1,37.4,56.094Z"/><rect x="48.344" y="76.47" width="11.083" height="4"/></svg>