<svg id="Layer_1" data-name="Layer 1" xmlns="http://www.w3.org/2000/svg" viewBox="0 0 74.19 94.66"><title>cyber security icon 8 juli</title><path d="M53.337,50.831a18.228,18.228,0,0,0,2.44-9.109V23.371c0-.181-.022-.356-.028-.536V12.3a7.3,7.3,0,0,0-7.3-7.3H25.739a7.3,7.3,0,0,0-7.3,7.3v9.785c-.03.428-.066.854-.066,1.289V41.722a18.24,18.24,0,0,0,2.446,9.12A27.276,27.276,0,0,0,5,75.555V89.661H9V75.555A23.263,23.263,0,0,1,23.252,54.146a18.305,18.305,0,0,0,13.5,5.948H37.4a18.3,18.3,0,0,0,13.5-5.959,23.372,23.372,0,0,1,14.282,21.42V89.661h4V75.555A27.409,27.409,0,0,0,53.337,50.831ZM37.4,56.094h-.657A14.389,14.389,0,0,1,22.375,41.722v-4.26H25V26.991H49.191V37.462h2.586v4.26A14.389,14.389,0,0,1,37.4,56.094Z"/><circle cx="37.095" cy="64.646" r="1.605"/><circle cx="37.095" cy="70.818" r="1.605"/><rect x="45.97" y="73.223" width="12.688" height="4"/></svg>