<svg xmlns="http://www.w3.org/2000/svg" xmlns:v="http://schemas.microsoft.com/visio/2003/SVGExtensions/" width=".241in" height=".321in" viewBox="0 0 17.3201 23.0853" color-interpolation-filters="sRGB" class="st2"><v:documentProperties v:langID="1033" v:metric="true" v:viewMarkup="false"/><style type="text/css"><![CDATA[
		.st1 {fill:#000000;stroke:none;stroke-linecap:butt;stroke-width:0.0286625}
		.st2 {fill:none;fill-rule:evenodd;font-size:12px;overflow:visible;stroke-linecap:square;stroke-miterlimit:3}
	]]></style><g v:mID="0" v:index="1" v:groupContext="foregroundPage"><title>Page-1</title><v:pageProperties v:drawingScale=".039" v:pageScale=".039" v:drawingUnits="24" v:shadowOffsetX="8.504" v:shadowOffsetY="-8.504"/><g id="shape55-1" v:mID="55" v:groupContext="shape" transform="translate(.029 -.029)"><title>User 6</title><path d="M.07 23.09v-4.88c0-1.48.56-2.87 1.48-3.85.72-.8 1.68-1.36 2.73-1.55l-.06-.14-4.15-1.12 2.1-5.17C3.03 4.27 4.38 1.31 6.59.45 7.25.19 7.97.06 8.66.06c.73 0 1.42.13 2.08.39 2.21.86 3.56 3.82 4.41 5.93l2.11 5.17-4.15 1.12-.06.14c1.05.19 2.01.75 2.73 1.55.92.98 1.48 2.33 1.48 3.85v4.88h-1.15v-4.88c0-1.19-.46-2.27-1.19-3.06-.49-.53-1.15-.93-1.84-1.12l-3.95 6.49-.5.79-.49-.79-3.96-6.49c-.72.19-1.35.59-1.84 1.12-.73.79-1.19 1.87-1.19 3.06v4.88H0h.07zM4.68 5.86h8.04v4.15c0 5.2-8.04 5.2-8.04 0V5.86zm7.02 8.33l-3 4.91-3-4.91c1.78 1.12 4.22 1.12 5.96 0h.04z" class="st1"/></g></g></svg>