<svg id="Layer_1" data-name="Layer 1" xmlns="http://www.w3.org/2000/svg" viewBox="0 0 74.19 94.66"><title>cyber security icon 8 juli</title><path d="M53.337,50.831a18.228,18.228,0,0,0,2.44-9.109V23.371A18.393,18.393,0,0,0,37.4,5h-.657A18.392,18.392,0,0,0,18.375,23.371V41.722a18.24,18.24,0,0,0,2.446,9.12A27.276,27.276,0,0,0,5,75.555V89.661H9V75.555A23.263,23.263,0,0,1,23.252,54.146a18.305,18.305,0,0,0,13.5,5.948H37.4a18.3,18.3,0,0,0,13.5-5.959,23.372,23.372,0,0,1,14.282,21.42V89.661h4V75.555A27.409,27.409,0,0,0,53.337,50.831Zm-1.56-9.109A14.389,14.389,0,0,1,37.4,56.094h-.657A14.389,14.389,0,0,1,22.375,41.722V23.371a14.418,14.418,0,0,1,.262-2.695,14.837,14.837,0,0,0,2.382.2A15.17,15.17,0,0,0,37.1,14.887a15.172,15.172,0,0,0,12.076,5.989,14.709,14.709,0,0,0,2.344-.2,14.4,14.4,0,0,1,.262,2.693Z"/><path d="M45.834,53.929v4.2a8.739,8.739,0,0,1-17.478,0v-4.2h-4v4.2a12.739,12.739,0,0,0,25.478,0v-4.2Z"/><rect x="16.286" y="76.419" width="41.618" height="13.242"/></svg>