<svg xmlns="http://www.w3.org/2000/svg" xmlns:v="http://schemas.microsoft.com/visio/2003/SVGExtensions/" width=".241in" height=".343in" viewBox="0 0 17.3311 24.7196" color-interpolation-filters="sRGB" class="st2"><v:documentProperties v:langID="1033" v:metric="true" v:viewMarkup="false"/><style type="text/css"><![CDATA[
		.st1 {fill:#000000;stroke:none;stroke-linecap:butt;stroke-width:0.0286625}
		.st2 {fill:none;fill-rule:evenodd;font-size:12px;overflow:visible;stroke-linecap:square;stroke-miterlimit:3}
	]]></style><g v:mID="0" v:index="1" v:groupContext="foregroundPage"><title>Page-1</title><v:pageProperties v:drawingScale=".039" v:pageScale=".039" v:drawingUnits="24" v:shadowOffsetX="8.504" v:shadowOffsetY="-8.504"/><g id="shape57-1" v:mID="57" v:groupContext="shape" transform="translate(.029 -.029)"><title>User 8</title><path d="M.07 24.72v-4.88c0-1.48.56-2.87 1.48-3.86.72-.79 1.68-1.35 2.74-1.55-.5-.75-.8-1.71-.8-2.83V6.75c0-6.72 10.36-6.72 10.36 0v4.85c0 1.12-.3 2.08-.8 2.83 1.06.2 2.02.76 2.74 1.55.92.99 1.48 2.34 1.48 3.86v4.88h-1.15v-4.88c0-1.19-.46-2.27-1.19-3.06-.66-.73-1.58-1.19-2.57-1.26L9.1 19.87l-.46.63-.46-.63-3.27-4.35c-.99.07-1.88.53-2.57 1.26-.72.79-1.19 1.87-1.19 3.06v4.88H0h.07zm7.02-8.27l1.61 2.14 1.62-2.14c-1.06.29-2.18.29-3.23 0zM4.68 6.79v4.84c0 5.21 8.04 5.21 8.04 0V6.79c0-5.21-8.04-5.21-8.04 0z" class="st1"/></g></g></svg>