<svg id="Layer_1" data-name="Layer 1" xmlns="http://www.w3.org/2000/svg" viewBox="0 0 74.19 94.66"><title>cyber security icon 8 juli</title><path d="M59.444,54.739a10.067,10.067,0,0,0-3.135-18.758,30.159,30.159,0,0,0,3.544-13.556C59.853,10.119,49.884,5.112,37.505,5c-.034,0-.067,0-.1,0h-.657c-.038,0-.075,0-.114,0-12.355.122-22.3,5.132-22.3,17.421A30.156,30.156,0,0,0,17.9,35.978a10.067,10.067,0,0,0-3.167,18.751A27.251,27.251,0,0,0,5,75.555V89.661H9V75.555A23.263,23.263,0,0,1,23.252,54.146a18.305,18.305,0,0,0,13.5,5.948H37.4a18.3,18.3,0,0,0,13.5-5.959,23.372,23.372,0,0,1,14.282,21.42V89.661h4V75.555A27.374,27.374,0,0,0,59.444,54.739ZM37.4,56.094h-.657A14.389,14.389,0,0,1,22.375,41.722V33.7a19.206,19.206,0,0,0,5.452.791,19.467,19.467,0,0,0,16.865-9.75,17.017,17.017,0,0,0,7.085,5.837V41.722A14.389,14.389,0,0,1,37.4,56.094Z"/><circle cx="37.095" cy="72.018" r="1.605"/><circle cx="37.095" cy="78.19" r="1.605"/><path d="M49.761,51.956a15.239,15.239,0,0,1-2.817,2.88,5.051,5.051,0,1,1-7.838,4.619c.006-.141.021-.281.021-.424s-.015-.283-.021-.425a4.735,4.735,0,0,1,.1-.575,14.791,14.791,0,0,1-4.23,0,4.735,4.735,0,0,1,.1.575c-.006.142-.021.281-.021.425s.015.283.021.424a5.045,5.045,0,1,1-7.838-4.619,15.239,15.239,0,0,1-2.817-2.88A9.051,9.051,0,1,0,37.1,64.738,9.051,9.051,0,1,0,49.761,51.956Z"/></svg>