<svg id="Layer_1" data-name="Layer 1" xmlns="http://www.w3.org/2000/svg" viewBox="0 0 74.19 94.66"><title>cyber security icon 8 juli</title><path d="M53.337,50.831c.2-.344.384-.7.56-1.053A11.585,11.585,0,0,0,62.918,34.5L57.363,18.76A21.986,21.986,0,0,0,41.331,5.432c-.2-.045-.41-.081-.616-.119-.227-.038-.454-.073-.683-.1-.4-.057-.8-.107-1.2-.138-.162-.013-.325-.015-.487-.025C38.029,5.03,37.72,5,37.4,5h-.657c-.356,0-.7.033-1.057.053-.1.007-.2.008-.3.015-.469.035-.931.091-1.39.16-.125.018-.25.037-.374.057-.31.053-.618.108-.922.177a21.991,21.991,0,0,0-15.879,13.3L11.272,34.5a11.584,11.584,0,0,0,8.979,15.27c.179.364.368.723.57,1.073A27.276,27.276,0,0,0,5,75.555V89.661H9V75.555A23.263,23.263,0,0,1,23.252,54.146a18.305,18.305,0,0,0,13.5,5.948H37.4a18.3,18.3,0,0,0,13.5-5.959,23.372,23.372,0,0,1,14.282,21.42V89.661h4V75.555A27.409,27.409,0,0,0,53.337,50.831ZM37.4,56.094h-.657A14.389,14.389,0,0,1,22.375,41.722V24.642h29.4v17.08A14.389,14.389,0,0,1,37.4,56.094Z"/><path d="M44.668,54.585v2.083a7.573,7.573,0,0,1-15.146,0V54.585h-4v2.083a11.573,11.573,0,0,0,23.146,0V54.585Z"/><rect x="16.426" y="54.432" width="4" height="35.159"/><rect x="53.764" y="54.432" width="4" height="35.159"/></svg>