<svg xmlns="http://www.w3.org/2000/svg" xmlns:v="http://schemas.microsoft.com/visio/2003/SVGExtensions/" width=".255in" height=".304in" viewBox="0 0 18.3434 21.8867" color-interpolation-filters="sRGB" class="st2"><v:documentProperties v:langID="1033" v:metric="true" v:viewMarkup="false"/><style type="text/css"><![CDATA[
		.st1 {fill:#000000;stroke:none;stroke-linecap:butt;stroke-width:0.0299702}
		.st2 {fill:none;fill-rule:evenodd;font-size:12px;overflow:visible;stroke-linecap:square;stroke-miterlimit:3}
	]]></style><g v:mID="0" v:index="1" v:groupContext="foregroundPage"><title>Page-1</title><v:pageProperties v:drawingScale=".039" v:pageScale=".039" v:drawingUnits="24" v:shadowOffsetX="8.504" v:shadowOffsetY="-8.504"/><g id="shape5-1" v:mID="5" v:groupContext="shape" transform="translate(.03 -.03)"><title>Call center</title><path d="M18.25 19.36v2.53H0v-2.53c0-3.71 2.77-5.95 6.14-6.76h.07c-.89-.82-1.67-1.88-1.92-3.19h-1.1v-.06l-.42-2.67C2.19 3.09 5.6.06 9.14.06c3.58 0 6.96 3.03 6.38 6.62l-.42 2.67v.06h-1.09c-.26 1.31-1.03 2.37-1.94 3.19h.07c3.38.81 6.14 3.09 6.14 6.76h-.03zM9.11 13.1c.64-.1 1.61-.75 2.06-1.13.16-.15.36-.31.49-.47h-1.04c-.22.6-.8 1.03-1.51 1.03-.9 0-1.61-.68-1.61-1.56 0-.87.71-1.56 1.61-1.56.71 0 1.29.44 1.51 1.03h1.81c.26-.43.42-.9.51-1.4l.42-2.68c.36-2.31-1.99-4.24-4.25-4.24-2.29 0-4.63 1.93-4.24 4.24l.42 2.68c.18 1.15.89 2.15 1.76 2.93.45.38 1.41 1.03 2.06 1.13zm2.87.53h-1.39c-.58.31-1.09.46-1.45.5-.38-.04-.9-.22-1.45-.5H6.31c-2.89.75-5.21 2.62-5.21 5.73v1.5h16.12v-1.5c0-3.11-2.28-4.98-5.18-5.73h-.06z" class="st1"/></g></g></svg>