<svg xmlns="http://www.w3.org/2000/svg" xmlns:v="http://schemas.microsoft.com/visio/2003/SVGExtensions/" width=".355in" height=".334in" viewBox="0 0 25.5718 24.0127" color-interpolation-filters="sRGB" class="st2"><v:documentProperties v:langID="1033" v:metric="true" v:viewMarkup="false"/><style type="text/css"><![CDATA[
		.st1 {fill:#000000;stroke:none;stroke-linecap:butt;stroke-width:0.0299702}
		.st2 {fill:none;fill-rule:evenodd;font-size:12px;overflow:visible;stroke-linecap:square;stroke-miterlimit:3}
	]]></style><g v:mID="0" v:index="1" v:groupContext="foregroundPage"><title>Page-1</title><v:pageProperties v:drawingScale=".039" v:pageScale=".039" v:drawingUnits="24" v:shadowOffsetX="8.504" v:shadowOffsetY="-8.504"/><g id="shape6-1" v:mID="6" v:groupContext="shape" transform="translate(.03 -.03)"><title>Chat</title><path d="M21.24 19.79v4.22l-4.33-4.22h-4.15c-1.62 0-2.85-1.21-2.85-2.81v-4.23H8.56l-4.32 4.23v-4.23H2.93C1.32 12.75 0 11.45 0 9.84V2.89C0 1.33 1.27.06 2.84.06h9.92c1.61 0 2.84 1.39 2.84 3V7.1h7.07c1.57 0 2.84 1.26 2.84 2.83v6.96c0 1.61-1.31 2.9-2.93 2.9h-1.34zM5.69 13.64L8 11.36h4.76c.8 0 1.4-.59 1.4-1.39V3.14c0-.8-.56-1.6-1.4-1.6H2.84c-.76 0-1.4.63-1.4 1.39v6.95c0 .81.68 1.52 1.53 1.52h2.76v2.28l-.04-.04zm14.15 7.04l-2.33-2.27h-4.75c-.81 0-1.4-.59-1.4-1.39V12.8h1.4c1.61 0 2.84-1.23 2.84-2.83v-1.4h7.07c.76 0 1.4.64 1.4 1.4v6.96c0 .81-.68 1.52-1.53 1.52H19.8v2.27l.04-.04z" class="st1"/></g></g></svg>