<svg xmlns="http://www.w3.org/2000/svg" xmlns:v="http://schemas.microsoft.com/visio/2003/SVGExtensions/" width="34.46" height="24.643" viewBox="0 0 25.8449 18.4819" color-interpolation-filters="sRGB" class="st2"><v:documentProperties v:langID="1044" v:metric="true" v:viewMarkup="false"/><style><![CDATA[
		.st1 {fill:#000000;stroke:none;stroke-linecap:butt;stroke-width:0.0283464}
		.st2 {fill:none;fill-rule:evenodd;font-size:12px;overflow:visible;stroke-linecap:square;stroke-miterlimit:3}
	]]></style><g v:mID="0" v:index="1" v:groupContext="foregroundPage"><title>Page-1</title><v:pageProperties v:drawingScale=".039" v:pageScale=".039" v:drawingUnits="24" v:shadowOffsetX="8.504" v:shadowOffsetY="-8.504"/><g id="shape1-1" v:mID="1" v:groupContext="shape" transform="translate(.028 -.028)"><title>E-mail 2</title><path d="M3.07.06h19.65c.84 0 1.61.34 2.17.9.55.56.9 1.32.9 2.17v12.28c0 .84-.35 1.61-.9 2.17-.56.55-1.33.9-2.17.9H3.07c-.84 0-1.62-.35-2.17-.9-.55-.56-.9-1.33-.9-2.17V3.13C0 2.28.35 1.52.9.96 1.45.4 2.23.06 3.07.06zm14.04 12.15c-.41.5-.94.85-1.54 1.08-.72.29-1.53.39-2.31.39-.84 0-1.69-.12-2.48-.44-.72-.29-1.29-.76-1.7-1.42-.42-.68-.61-1.39-.61-2.17 0-.83.19-1.6.55-2.34.34-.75.89-1.34 1.6-1.77.78-.45 1.7-.62 2.59-.62 1.03 0 2.05.22 2.83.94.68.64 1.02 1.42 1.02 2.34 0 .53-.14 1.04-.36 1.51-.22.45-.53.85-.94 1.16-.21.14-.5.34-.76.34-.08 0-.17-.05-.23-.11-.07-.07-.09-.17-.09-.28 0-.15.05-.36.08-.49l.81-3.79h-1.21l-.17.79-.15-.24c-.31-.49-.77-.7-1.34-.7-.94 0-1.64.47-2.17 1.24-.47.69-.7 1.44-.7 2.28 0 .59.14 1.15.57 1.59.38.4.87.59 1.43.59.55 0 1.02-.21 1.41-.59l.15-.15.04.2c.04.16.12.29.27.4.16.11.43.13.62.13 1.13 0 2-.49 2.68-1.39.55-.72.83-1.55.83-2.45 0-.76-.17-1.46-.55-2.11-.39-.66-.94-1.15-1.61-1.49-.75-.36-1.57-.53-2.41-.53-1.01 0-1.98.19-2.86.65-.85.44-1.51 1.1-1.96 1.95-.49.88-.72 1.81-.72 2.81 0 .89.21 1.75.64 2.54.42.8 1.08 1.37 1.91 1.76.96.43 2.03.6 3.09.6 1.07 0 2.18-.18 3.12-.71.67-.36 1.2-.87 1.56-1.53h-.93v.03zm-6.12-2.37c0-.41.09-.84.2-1.22.12-.42.32-.8.64-1.1.26-.24.59-.39.96-.39.32 0 .6.13.82.37.25.28.32.66.32 1.03 0 .41-.08.84-.21 1.23-.13.36-.29.74-.53 1.02-.14.15-.29.28-.45.36-.21.13-.42.17-.65.17-.32 0-.58-.13-.79-.37-.26-.29-.31-.74-.31-1.1zM1.25 15.7l5.7-4.85c.06.22.13.43.2.63l-5.69 4.83c.09.15.19.28.31.4.34.34.79.54 1.3.54h19.65c.51 0 .96-.2 1.3-.54.11-.12.22-.25.31-.4l-5.71-4.84c.07-.21.14-.42.2-.64l5.71 4.87c.02-.1.03-.19.03-.29V3.13c0-.1-.01-.19-.03-.29l-5.71 4.87c-.06-.22-.13-.43-.2-.64l5.71-4.85c-.09-.14-.2-.27-.31-.4-.34-.33-.79-.54-1.3-.54H3.07c-.51 0-.96.21-1.3.54-.12.13-.22.26-.31.4l5.69 4.83c-.08.21-.14.42-.2.63l-5.7-4.84c-.01.1-.02.19-.02.29v12.28c0 .1.01.19.02.29z" class="st1"/></g></g></svg>