<svg xmlns="http://www.w3.org/2000/svg" xmlns:v="http://schemas.microsoft.com/visio/2003/SVGExtensions/" width=".332in" height=".316in" viewBox="0 0 23.871 22.7371" color-interpolation-filters="sRGB" class="st2"><v:documentProperties v:langID="1033" v:metric="true" v:viewMarkup="false"/><style type="text/css"><![CDATA[
		.st1 {fill:#000000;stroke:none;stroke-linecap:butt;stroke-width:0.0299702}
		.st2 {fill:none;fill-rule:evenodd;font-size:12px;overflow:visible;stroke-linecap:square;stroke-miterlimit:3}
	]]></style><g v:mID="0" v:index="1" v:groupContext="foregroundPage"><title>Page-1</title><v:pageProperties v:drawingScale=".039" v:pageScale=".039" v:drawingUnits="24" v:shadowOffsetX="8.504" v:shadowOffsetY="-8.504"/><g id="shape44-1" v:mID="44" v:groupContext="shape" transform="translate(.03 -.03)"><title>Fax</title><path d="M0 5.73h7.13V3.46h2.4V.06h10.71v3.4h2.39v2.27h1.18v14.73h-3.57v2.28H9.53v-2.28H0V5.73zm1.18 1.13h4.79V19.3H1.18V6.86zm17.84 11.33h-8.35v3.39h8.35v-3.39zm0-16.97h-8.35V8h8.35V1.22zM16.64 14.8h1.18v1.12h-1.18V14.8zm-2.39 0h1.18v1.12h-1.18V14.8zm-2.4 0h1.18v1.12h-1.18V14.8zm4.75-2.28h1.18v1.12H16.6v-1.12zm-2.39 0h1.18v1.12h-1.18v-1.12zm-2.39 0H13v1.12h-1.18v-1.12zm4.75-2.28h1.18v1.12h-1.18v-1.12zm-2.4 0h1.18v1.12h-1.18v-1.12zm-2.39 0h1.18v1.12h-1.18v-1.12zM6.99 6.86h2.4v2.26h10.7V6.86h2.4V19.3h-2.4v-2.26H9.39v2.26h-2.4V6.86z" class="st1"/></g></g></svg>