<svg xmlns:v="http://schemas.microsoft.com/visio/2003/SVGExtensions/" xmlns="http://www.w3.org/2000/svg" width="22.68" height="34.013" viewBox="0 0 17.009996 25.509992" class="st3" id="svg2" font-size="12" overflow="visible" color-interpolation-filters="sRGB" fill="none" fill-rule="evenodd" stroke-linecap="square" stroke-miterlimit="3"><v:documentProperties v:langID="1044" v:metric="true" v:viewMarkup="false"/><style id="style4"><![CDATA[
		.st1 {fill:#000000}
		.st2 {stroke:none;stroke-linecap:butt;stroke-width:28.216}
		.st3 {fill:none;fill-rule:evenodd;font-size:12px;overflow:visible;stroke-linecap:square;stroke-miterlimit:3}
	]]></style><g v:mID="0" v:index="1" v:groupContext="foregroundPage" id="g6" transform="translate(-28.216 -28.214)"><title id="title8">Page-1</title><v:pageProperties v:drawingScale=".039" v:pageScale=".039" v:drawingUnits="24" v:shadowOffsetX="8.504" v:shadowOffsetY="-8.504"/><g id="shape11-1" v:mID="11" v:groupContext="shape" transform="translate(28.216 -28.216)"><title id="title11">Internet via smartphone 2</title><path d="M17.01 56.43H0v25.51h17.01V56.43zm-5.23 21.69h2.61v1.27h-2.61v-1.27zm-9.16 0h2.61v1.27H2.62v-1.27zm3.89-20.41h3.96v1.27H6.51v-1.27zm.03 19.14h3.93v3.82H6.54v-3.82zm9.16-16.59v15.31H1.31V60.26H15.7zm-3.8 5.16l.02.03c-.01-.01-.01-.02-.02-.03l-.44.89.5.97-.25.49H10.7v.98l1.58.77c-.66 1.29-2.02 2.16-3.59 2.16-2.21 0-4.01-1.75-4.01-3.91 0-1 .38-1.92 1.03-2.61v-.01l.03-.03c-.01.01-.02.03-.03.04l.47 1.15.76.24-.26.49-.25.49.76.73-.25.98 1 .74 1.25-1.72s-.03-.25-.14-.36c-.11-.13.14-.62.14-.62l-1.25-.49-.25-.48.75-.74h1l.49-1.52c.79.25 1.48.73 1.97 1.37zm-1.97-1.37zm-1.25-.75c-2.53 0-4.58 2-4.58 4.46s2.05 4.46 4.58 4.46c2.53 0 4.58-2 4.58-4.46s-2.05-4.46-4.58-4.46z" class="st1" id="path13" fill="#000"/><path d="M17.01 56.43H0v25.51h17.01V56.43m-5.23 21.69h2.61v1.27h-2.61v-1.27m-9.16 0h2.61v1.27H2.62v-1.27m3.89-20.41h3.96v1.27H6.51v-1.27m.03 19.14h3.93v3.82H6.54v-3.82m9.16-16.59v15.31H1.31V60.26H15.7m-3.8 5.16l.02.03c-.01-.01-.01-.02-.02-.03l-.44.89.5.97-.25.49H10.7v.98l1.58.77c-.66 1.29-2.02 2.16-3.59 2.16-2.21 0-4.01-1.75-4.01-3.91 0-1 .38-1.92 1.03-2.61v-.01l.03-.03c-.01.01-.02.03-.03.04l.47 1.15.76.24-.26.49-.25.49.76.73-.25.98 1 .74 1.25-1.72s-.03-.25-.14-.36c-.11-.13.14-.62.14-.62l-1.25-.49-.25-.48.75-.74h1l.49-1.52c.79.25 1.48.73 1.97 1.37M8.68 63.3c-2.53 0-4.58 2-4.58 4.46s2.05 4.46 4.58 4.46c2.53 0 4.58-2 4.58-4.46s-2.05-4.46-4.58-4.46" class="st2" id="path15" stroke-width="28.216" stroke-linecap="butt"/></g></g></svg>