<svg xmlns="http://www.w3.org/2000/svg" xmlns:v="http://schemas.microsoft.com/visio/2003/SVGExtensions/" width="34.091" height="24.076" viewBox="0 0 25.5685 18.0567" color-interpolation-filters="sRGB" class="st2"><v:documentProperties v:langID="1044" v:metric="true" v:viewMarkup="false"/><style><![CDATA[
		.st1 {fill:#000000;stroke:none;stroke-linecap:butt;stroke-width:0.0283464}
		.st2 {fill:none;fill-rule:evenodd;font-size:12px;overflow:visible;stroke-linecap:square;stroke-miterlimit:3}
	]]></style><g v:mID="0" v:index="1" v:groupContext="foregroundPage"><title>Page-1</title><v:pageProperties v:drawingScale=".039" v:pageScale=".039" v:drawingUnits="24" v:shadowOffsetX="8.504" v:shadowOffsetY="-8.504"/><g id="shape10-1" v:mID="10" v:groupContext="shape" transform="translate(.028 -.028)"><title>Internet via tablet 3</title><path d="M17.53 10.15c.09 0 .17-.04.23-.1.06-.06.09-.13.09-.22s-.03-.16-.09-.23c-.06-.06-.14-.1-.23-.1-.08 0-.15.04-.22.1-.06.07-.09.14-.09.23s.03.16.09.22c.07.06.14.1.22.1zm-.62-2.48h-.48l-.4 1.75c-.02.08-.03.15-.03.21h-.02c-.01-.08-.01-.15-.02-.21l-.4-1.75h-.48l-.45 1.74c-.02.08-.03.15-.04.22h-.01c-.01-.09-.02-.16-.03-.22l-.4-1.74h-.53l.65 2.42h.53l.44-1.65c.02-.07.04-.14.04-.2h.01c0 .08.02.15.02.21l.41 1.64h.53l.66-2.42zm-3.62 0h-.48l-.4 1.75c-.02.08-.02.15-.02.21h-.02c-.01-.08-.02-.15-.03-.21l-.41-1.75h-.47l-.45 1.74c-.02.08-.03.15-.04.22h-.01c0-.09-.01-.16-.02-.22l-.41-1.74h-.52l.65 2.42h.52l.44-1.65c.02-.07.03-.14.04-.2h.01c0 .08.01.15.03.21l.41 1.64h.53l.65-2.42zm-3.62 0h-.48L8.8 9.42c-.02.08-.03.15-.03.21h-.02c-.01-.08-.02-.15-.03-.21l-.4-1.75h-.47l-.46 1.74c-.01.08-.03.15-.03.22h-.02c0-.09-.01-.16-.03-.22l-.39-1.74h-.53l.65 2.42h.53L8 8.44c.03-.07.04-.14.05-.2 0 .08.01.15.03.21l.41 1.64h.53l.65-2.42zM2.55 1.44h19.14v15.22H2.55V1.44zm20.41 5.54h1.28v4.15h-1.28V6.98zM2.55.06L0 2.82v12.46l2.55 2.78h20.41l2.55-2.78V2.82L22.96.06H2.55z" class="st1"/></g></g></svg>