<svg xmlns="http://www.w3.org/2000/svg" xmlns:v="http://schemas.microsoft.com/visio/2003/SVGExtensions/" width="28.422" height="32.202" viewBox="0 0 21.3165 24.1512" color-interpolation-filters="sRGB" class="st2"><v:documentProperties v:langID="1044" v:metric="true" v:viewMarkup="false"/><style><![CDATA[
		.st1 {fill:#000000;stroke:none;stroke-linecap:butt;stroke-width:0.0283464}
		.st2 {fill:none;fill-rule:evenodd;font-size:12px;overflow:visible;stroke-linecap:square;stroke-miterlimit:3}
	]]></style><g v:mID="0" v:index="1" v:groupContext="foregroundPage"><title>Page-1</title><v:pageProperties v:drawingScale=".039" v:pageScale=".039" v:drawingUnits="24" v:shadowOffsetX="8.504" v:shadowOffsetY="-8.504"/><g id="shape7-1" v:mID="7" v:groupContext="shape" transform="translate(.028 -.028)"><title>Internet via PC 2</title><path d="M7.78 4.44v-.01l.03-.03c-.01.01-.02.02-.03.04l.45 1.13.72.25-.24.48-.24.49.72.73-.24.98.96.72 1.2-1.7s-.04-.24-.14-.36c-.1-.13.14-.61.14-.61l-1.2-.49-.24-.49.72-.72h.96l.46-1.52c.77.25 1.44.74 1.91 1.39l-.02-.02-.43.87.48.98-.24.48h-.97v.98l1.52.76c-.63 1.28-1.92 2.15-3.43 2.15-2.12 0-3.84-1.74-3.84-3.89 0-1 .37-1.91.99-2.59zm2.85-1.69c-2.33 0-4.22 1.92-4.22 4.28 0 2.36 1.89 4.29 4.22 4.29s4.22-1.93 4.22-4.29c0-2.36-1.89-4.28-4.22-4.28zM2.5 1.32h16.26v11.42H2.5V1.32zM1.25.06V14h7.5v1.28H5v1.27h11.26v-1.27h-3.75V14h7.5V.06H1.25zm17.44 22.82l-.16-.63h1.29l.23.63h-1.36zm-1.54 0l-.15-.63h1.2l.17.63h-1.22zm-1.56 0l-.1-.63h1.2l.14.63h-1.24zm-3.1 0l-.03-.63h1.2l.06.63h-1.23zm-8.02 0l.13-.63h7.55l.03.63H4.47zm-1.55 0l.17-.63h1.19l-.13.63H2.92zm-1.48-.63h1.33l-.17.63H1.21l.23-.63zm17-.32l-.17-.63h1.23l.22.63h-1.28zm-1.5 0l-.14-.63h1.15l.17.63h-1.18zm-1.5 0l-.1-.63h1.14l.14.63h-1.18zm-1.5 0l-.07-.63h1.15l.1.63h-1.18zm-1.5 0l-.04-.63h1.16l.07.63h-1.19zm-1.65 0v-.63h1.29l.05.63h-1.34zm-1.62 0l.03-.63h1.27v.63h-1.3zm-1.5 0l.06-.63h1.16l-.04.63H7.67zm-1.5 0l.1-.63h1.15l-.07.63H6.17zm-1.5 0l.14-.63h1.14l-.1.63H4.67zm-1.5 0l.17-.63h1.15l-.14.63H3.17zm-1.41-.63h1.25l-.16.63H1.54l.22-.63zm16.43-.31l-.17-.64h1.17l.21.64h-1.21zm-1.45 0l-.13-.64h1.09l.16.64h-1.12zm-1.46 0l-.09-.64h1.09l.14.64h-1.14zm-2.89 0l-.04-.64h2.52l.1.64h-2.58zm-1.6 0v-.64h1.24l.04.64h-1.28zm-1.57 0l.04-.64h1.21v.64H9.22zm-1.45 0l.07-.64h1.11l-.04.64H7.77zm-1.45 0l.1-.64h1.11l-.07.64H6.32zm-1.45 0l.14-.64h1.1l-.11.64H4.87zm-1.45 0l.17-.64h1.1l-.14.64H3.42zm-1.35-.64h1.2l-.17.64H1.86l.21-.64zm15.87-.31l-.17-.64h1.1l.21.64h-1.14zm-1.41 0l-.13-.64h1.05l.17.64h-1.09zm-1.4 0l-.1-.64h1.05l.14.64h-1.09zm-1.4 0l-.07-.64h1.06l.09.64h-1.08zm-1.4 0l-.04-.64h1.05l.07.64h-1.08zm-1.54 0v-.64h1.19l.03.64h-1.22zm-1.52 0l.04-.64h1.16v.64h-1.2zm-1.4 0l.07-.64H9l-.04.64H7.87zm-1.4 0l.11-.64h1.04l-.06.64H6.47zm-1.4 0l.14-.64h1.05l-.11.64H5.07zm-1.39 0l.17-.64h1.04l-.14.64H3.68zM2.4 19.4h1.12l-.17.64H2.18l.22-.64zm15.29-.32l-.17-.64h1.02l.21.64h-1.06zm-1.36 0l-.13-.64h.99l.17.64h-1.03zm-1.36 0l-.09-.64h1l.13.64h-1.04zm-1.34 0l-.07-.64h1l.1.64h-1.03zm-1.36 0l-.04-.64h1.02l.07.64h-1.05zm-1.48 0v-.64h1.13l.04.64h-1.17zm-1.46 0l.03-.64h1.11v.64H9.33zm-1.35 0l.06-.64h1.01l-.03.64H7.98zm-1.36 0l.11-.64h1l-.07.64H6.62zm-1.34 0l.13-.64h1l-.1.64H5.28zm-1.35 0l.17-.64h.99l-.13.64H3.93zm-1.21-.64h1.06l-.17.64h-1.1l.21-.64zm-.85-.62L0 22.57v1.58h21.26v-1.58l-1.87-4.75H1.87z" class="st1"/></g></g></svg>