<svg xmlns="http://www.w3.org/2000/svg" xmlns:v="http://schemas.microsoft.com/visio/2003/SVGExtensions/" width=".414in" height=".355in" viewBox="0 0 29.7954 25.5718" color-interpolation-filters="sRGB" class="st2"><v:documentProperties v:langID="1033" v:metric="true" v:viewMarkup="false"/><style type="text/css"><![CDATA[
		.st1 {fill:#000000;stroke:none;stroke-linecap:butt;stroke-width:0.0299702}
		.st2 {fill:none;fill-rule:evenodd;font-size:12px;overflow:visible;stroke-linecap:square;stroke-miterlimit:3}
	]]></style><g v:mID="0" v:index="1" v:groupContext="foregroundPage"><title>Page-1</title><v:pageProperties v:drawingScale=".039" v:pageScale=".039" v:drawingUnits="24" v:shadowOffsetX="8.504" v:shadowOffsetY="-8.504"/><g id="shape9-1" v:mID="9" v:groupContext="shape" transform="translate(.03 -.03)"><title>Internet via tablet</title><path d="M12.77.06c7.04 0 12.72 5.69 12.72 12.73h-1.4c0-2.55-.85-4.92-2.25-6.79l-1.26 2.54 1.39 2.85-.71 1.4H13.7c.04-.55.47-1.4.47-1.4l-3.53-1.4-.72-1.4 2.12-2.13h2.85l.72-2.11.64-2.29c-1.11-.34-2.25-.56-3.48-.56-3.36 0-6.32 1.45-8.4 3.74l1.32 3.35 2.11.72-.71 1.4-.72 1.4 2.11 2.13-.72 2.85 2.84 2.12 2.12-2.97v9.33C5.69 25.57 0 19.89 0 12.84 0 5.8 5.69.1 12.72.1l.05-.04zm3.52 14.18h11.32l2.13 2.12v7.09l-2.13 2.12H16.29l-2.12-2.12v-7.09l2.12-2.12zm.72 1.4h9.92v8.49h-9.92v-8.49z" class="st1"/></g></g></svg>