<svg xmlns="http://www.w3.org/2000/svg" xmlns:v="http://schemas.microsoft.com/visio/2003/SVGExtensions/" width="25.776" height="32.58" viewBox="0 0 19.3323 24.4346" color-interpolation-filters="sRGB" class="st2"><v:documentProperties v:langID="1044" v:metric="true" v:viewMarkup="false"/><style><![CDATA[
		.st1 {fill:#000000;stroke:none;stroke-linecap:butt;stroke-width:0.0283464}
		.st2 {fill:none;fill-rule:evenodd;font-size:12px;overflow:visible;stroke-linecap:square;stroke-miterlimit:3}
	]]></style><g v:mID="0" v:index="1" v:groupContext="foregroundPage"><title>Page-1</title><v:pageProperties v:drawingScale=".039" v:pageScale=".039" v:drawingUnits="24" v:shadowOffsetX="8.504" v:shadowOffsetY="-8.504"/><g id="shape14-1" v:mID="14" v:groupContext="shape" transform="translate(.028 -.028)"><title>Invoice 3</title><path d="M11.24 9.9h.94c.38 0 .67.09.88.26.2.18.3.42.3.72 0 .17-.02.33-.09.47-.05.13-.13.25-.24.34-.11.1-.24.17-.39.22-.14.05-.3.08-.47.08h-.93V9.9zm4.1 5.54l-1.2-1.79c-.09-.14-.19-.26-.27-.37-.08-.11-.16-.21-.24-.28-.08-.09-.17-.17-.26-.24-.09-.09-.2-.16-.32-.23v-.02c.23-.05.43-.13.61-.24.2-.09.35-.22.48-.37s.23-.32.3-.51c.07-.18.11-.4.11-.62 0-.29-.06-.54-.18-.75-.1-.22-.26-.4-.45-.55-.2-.14-.44-.25-.7-.32-.27-.07-.56-.11-.88-.11h-2.22v6.4h1.12v-2.59h.45c.14 0 .27.02.38.04.12.04.22.09.31.16.1.08.19.16.28.28.1.11.19.25.29.4l1.08 1.71h1.31zm-6.29 0l-2.86-3.32 2.65-3.08H7.5l-2.27 2.79c-.06.09-.12.16-.16.23h-.01V9.04H3.94v6.4h1.12V12.3h.01c.02.03.08.11.16.21l2.35 2.93h1.47zM17.99 22v1.22H1.28V22h16.71zM1.28 3.71h16.71v17.07H1.28V3.71zm2.57-2.44h1.29v1.22H3.85V1.27zm10.29 0h1.28v1.22h-1.28V1.27zm-5.15 0h1.29v1.22H8.99V1.27zM0 .06v24.37h19.28V.06H0z" class="st1"/></g></g></svg>