<svg xmlns="http://www.w3.org/2000/svg" xmlns:v="http://schemas.microsoft.com/visio/2003/SVGExtensions/" width="32.504" height="33.767" viewBox="0 0 24.3777 25.3256" color-interpolation-filters="sRGB" class="st2"><v:documentProperties v:langID="1044" v:metric="true" v:viewMarkup="false"/><style><![CDATA[
		.st1 {fill:#000000;stroke:none;stroke-linecap:butt;stroke-width:0.0283464}
		.st2 {fill:none;fill-rule:evenodd;font-size:12px;overflow:visible;stroke-linecap:square;stroke-miterlimit:3}
	]]></style><g v:mID="0" v:index="1" v:groupContext="foregroundPage"><title>Page-1</title><v:pageProperties v:drawingScale=".039" v:pageScale=".039" v:drawingUnits="24" v:shadowOffsetX="8.504" v:shadowOffsetY="-8.504"/><g id="shape3-1" v:mID="3" v:groupContext="shape" transform="translate(.028 -.028)"><title>Letter 3</title><path d="M4.93 4.42v7.98c0 .16-.09.3-.23.36l3.66 3.67 3.26-3.26H6.84v-.77h10.64v.77H12.7l3.26 3.26 3.66-3.67c-.14-.06-.24-.2-.24-.36V4.42H4.93zM6.84 8.6h3.8v.76h-3.8V8.6zm0-2.27h3.8v.75h-3.8v-.75zm7.68-2.67l-2.35-1.72-2.36 1.72h4.71zm-7.28 0L11.72.38l.45-.32.44.32 4.51 3.28h2.63c.22 0 .39.18.39.38v1.95l4.18 2.99v13.56c0 .76-.31 1.46-.82 1.97-.5.49-1.2.82-1.97.82H2.79c-.78 0-1.47-.33-1.97-.82C.31 24 0 23.3 0 22.54V8.98l4.11-3.02.07.1V4.04c0-.2.17-.38.38-.38h2.68zm-3.06 8.58V7.79L1.62 9.68l2.56 2.56zm15.96-4.45v4.45l2.57-2.56-2.57-1.89zM7.82 16.96l-6.3-6.3v11.88c0 .2.05.41.14.58l6.16-6.16zm14.98-6.3l-6.31 6.3 6.16 6.16c.1-.17.15-.38.15-.58V10.66zm-.69 13l-9.95-9.96-9.96 9.96c.18.09.37.14.59.14h18.74c.22 0 .41-.05.58-.14z" class="st1"/></g></g></svg>