<svg xmlns="http://www.w3.org/2000/svg" xmlns:v="http://schemas.microsoft.com/visio/2003/SVGExtensions/" width=".339in" height=".243in" viewBox="0 0 24.4379 17.493" color-interpolation-filters="sRGB" class="st2"><v:documentProperties v:langID="1033" v:metric="true" v:viewMarkup="false"/><style type="text/css"><![CDATA[
		.st1 {fill:#000000;stroke:none;stroke-linecap:butt;stroke-width:0.0299702}
		.st2 {fill:none;fill-rule:evenodd;font-size:12px;overflow:visible;stroke-linecap:square;stroke-miterlimit:3}
	]]></style><g v:mID="0" v:index="1" v:groupContext="foregroundPage"><title>Page-1</title><v:pageProperties v:drawingScale=".039" v:pageScale=".039" v:drawingUnits="24" v:shadowOffsetX="8.504" v:shadowOffsetY="-8.504"/><g id="shape4-1" v:mID="4" v:groupContext="shape" transform="translate(.03 -.03)"><title>Letter</title><path d="M2.33.06h19.72l2.33 2.32v12.78l-2.33 2.33H2.33L0 15.16V2.38L2.33.06zm.49 1.15l-.38.37 9.73 8.75 9.74-8.75-.39-.37H2.75h.07zM1.64 2.38l-.46.46v11.8l.46.45 7.09-6.37-7.09-6.37v.03zm.83 13.55l.38.38h18.78l.38-.38-7.16-6.4-2.23 1.98-.38.35-.38-.35-2.23-1.98-7.16 6.4zm20.31-.84l.45-.45V2.84l-.45-.46-7.09 6.38 7.09 6.36v-.03z" class="st1"/></g></g></svg>