<svg xmlns="http://www.w3.org/2000/svg" xmlns:v="http://schemas.microsoft.com/visio/2003/SVGExtensions/" width="34.091" height="29.508" viewBox="0 0 25.5685 22.1306" color-interpolation-filters="sRGB" class="st2"><v:documentProperties v:langID="1044" v:metric="true" v:viewMarkup="false"/><style><![CDATA[
		.st1 {fill:#000000;stroke:none;stroke-linecap:butt;stroke-width:0.0283464}
		.st2 {fill:none;fill-rule:evenodd;font-size:12px;overflow:visible;stroke-linecap:square;stroke-miterlimit:3}
	]]></style><g v:mID="0" v:index="1" v:groupContext="foregroundPage"><title>Page-1</title><v:pageProperties v:drawingScale=".039" v:pageScale=".039" v:drawingUnits="24" v:shadowOffsetX="8.504" v:shadowOffsetY="-8.504"/><g id="shape17-1" v:mID="17" v:groupContext="shape" transform="translate(.028 -.028)"><title>Online shopping</title><path d="M18.92 8.95c-1.82 0-3.47.73-4.66 1.92-1.19 1.2-1.93 2.85-1.93 4.67 0 1.82.74 3.47 1.93 4.66s2.84 1.93 4.66 1.93c1.82 0 3.47-.74 4.67-1.93 1.19-1.19 1.92-2.84 1.92-4.66 0-1.82-.73-3.47-1.92-4.67-1.2-1.19-2.85-1.92-4.67-1.92zm3.19 2.17c.39.28.75.62 1.06 1.01l-.56 1.13-.06.13.06.13.65 1.3-.21.43h-1.54v1.9l.15.08 2 1c-.45.8-1.1 1.47-1.88 1.95-.83.51-1.81.8-2.86.8-1.5 0-2.87-.6-3.85-1.59-.99-.98-1.59-2.35-1.59-3.85 0-.7.13-1.37.36-1.98.19-.48.43-.91.73-1.3l.5 1.23.05.12.13.05.76.25-.57 1.14-.1.19.15.14.97.96-.33 1.28-.04.19.15.11 1.44 1.07.22.18.18-.24 1.79-2.5.07-.1-.02-.12s-.07-.43-.27-.67c-.04-.04.24-.59.25-.59l.13-.27-.29-.12-1.69-.68-.21-.44.84-.84h1.52l.07-.21.6-1.94c.44.17.85.39 1.24.67zm-3.98-3.29c.26-.02.52-.04.79-.04.13 0 .25.01.38.02l.77-4.21.12-.67H3.28L2.86.53 2.78.06H0V1.2h1.81l1.42 8.07v.25h.05l.91 5.21c-.28.13-.53.31-.75.52-.44.44-.71 1.05-.71 1.72 0 .67.27 1.28.71 1.72h.01c.43.45 1.04.72 1.71.72.68 0 1.29-.27 1.72-.72.32-.31.55-.7.65-1.14h3.91c-.09-.38-.17-.76-.22-1.15H7.53c-.1-.44-.33-.84-.65-1.15-.4-.41-.96-.67-1.56-.71l-.33-1.87h6.74c.16-.4.35-.78.57-1.15H4.79l-.35-2h9.61c.26-.21.53-.4.81-.57H4.34l-.41-2.3h14.42l-.22 1.18zm.32-1.75H3.84l-.35-2.01h15.32l-.36 2.01z" class="st1"/></g></g></svg>