<svg xmlns="http://www.w3.org/2000/svg" xmlns:v="http://schemas.microsoft.com/visio/2003/SVGExtensions/" width=".316in" height=".292in" viewBox="0 0 22.7371 21.0363" color-interpolation-filters="sRGB" class="st2"><v:documentProperties v:langID="1033" v:metric="true" v:viewMarkup="false"/><style type="text/css"><![CDATA[
		.st1 {fill:#000000;stroke:none;stroke-linecap:butt;stroke-width:0.0299702}
		.st2 {fill:none;fill-rule:evenodd;font-size:12px;overflow:visible;stroke-linecap:square;stroke-miterlimit:3}
	]]></style><g v:mID="0" v:index="1" v:groupContext="foregroundPage"><title>Page-1</title><v:pageProperties v:drawingScale=".039" v:pageScale=".039" v:drawingUnits="24" v:shadowOffsetX="8.504" v:shadowOffsetY="-8.504"/><g id="shape49-1" v:mID="49" v:groupContext="shape" transform="translate(.03 -.03)"><title>Parcel</title><path d="M22.68 7.04v14H0v-14L3.57.06h15.5l3.57 6.98h.04zM21.5 8.19H1.25v11.66H21.5V8.19zM1.25 7.04h9.53V1.21H4.83L1.25 7.04zm10.71 0h9.54l-3.57-5.83h-5.97v5.83zm-9.53 3.49h5.96v2.9c0 1.4-1.04 2.59-2.4 2.87v1.21h1.18v1.15H3.65v-1.15h1.18V16.3c-1.36-.28-2.4-1.47-2.4-2.87v-2.9zm11.93 2.34h3.57v1.15h-3.57v-1.15zm0 2.34h5.96v1.16h-5.96v-1.16zm0 2.33h2.39v1.16h-2.39v-1.16zm3.57 0h2.39v1.16h-2.39v-1.16z" class="st1"/></g></g></svg>