<svg xmlns="http://www.w3.org/2000/svg" xmlns:v="http://schemas.microsoft.com/visio/2003/SVGExtensions/" width=".331in" height=".265in" viewBox="0 0 23.8117 19.0707" color-interpolation-filters="sRGB" class="st2"><v:documentProperties v:langID="1033" v:metric="true" v:viewMarkup="false"/><style type="text/css"><![CDATA[
		.st1 {fill:#000000;stroke:none;stroke-linecap:butt;stroke-width:0.0286625}
		.st2 {fill:none;fill-rule:evenodd;font-size:12px;overflow:visible;stroke-linecap:square;stroke-miterlimit:3}
	]]></style><g v:mID="0" v:index="1" v:groupContext="foregroundPage"><title>Page-1</title><v:pageProperties v:drawingScale=".039" v:pageScale=".039" v:drawingUnits="24" v:shadowOffsetX="8.504" v:shadowOffsetY="-8.504"/><g id="shape12-1" v:mID="12" v:groupContext="shape" transform="translate(.029 -.029)"><title>Payment 2</title><path d="M0 .09h20.18v5.92h-1.19V3.32c-1.16 0-2.08-.92-2.08-2.07H3.27c0 1.15-.92 2.07-2.08 2.07v4.15c1.16 0 2.08.92 2.08 2.08h1.49v1.19H0V.06v.03zM8.3 7.2h13.07c1.3 0 2.38 1.05 2.38 2.38v7.11c0 1.29-1.05 2.38-2.38 2.38H8.3c-1.29 0-2.38-1.05-2.38-2.38V9.58c0-1.29 1.06-2.38 2.38-2.38zm0 1.19h13.07c.65 0 1.19.54 1.19 1.19v4.76H7.11V9.58c0-.65.55-1.19 1.19-1.19zm10.69 2.38h2.38v1.19h-2.38v-1.19zm-3.57 0h2.38v1.19h-2.38v-1.19zm-3.58 0h2.39v1.19h-2.39v-1.19zm-3.57 0h2.38v1.19H8.27v-1.19zm14.26 5.92c0 .65-.55 1.19-1.19 1.19H8.27c-.65 0-1.19-.54-1.19-1.19h15.45zM8.98 4.82h2.28v1.19h-3.5c-.03-.2-.07-.37-.07-.58 0-.81.34-1.56.89-2.11.54-.54 1.29-.88 2.11-.88.37 0 .78.07 1.12.24.34.13.68.37.95.64l-.85.85c-.17-.17-.37-.3-.58-.37-.2-.1-.44-.14-.68-.14-.47 0-.95.21-1.26.51-.17.17-.34.41-.41.68v-.03z" class="st1"/></g></g></svg>