<svg xmlns="http://www.w3.org/2000/svg" xmlns:v="http://schemas.microsoft.com/visio/2003/SVGExtensions/" width=".308in" height=".221in" viewBox="0 0 22.1985 15.8773" color-interpolation-filters="sRGB" class="st2"><v:documentProperties v:langID="1033" v:metric="true" v:viewMarkup="false"/><style type="text/css"><![CDATA[
		.st1 {fill:#000000;stroke:none;stroke-linecap:butt;stroke-width:0.0299702}
		.st2 {fill:none;fill-rule:evenodd;font-size:12px;overflow:visible;stroke-linecap:square;stroke-miterlimit:3}
	]]></style><g v:mID="0" v:index="1" v:groupContext="foregroundPage"><title>Page-1</title><v:pageProperties v:drawingScale=".039" v:pageScale=".039" v:drawingUnits="24" v:shadowOffsetX="8.504" v:shadowOffsetY="-8.504"/><g id="shape13-1" v:mID="13" v:groupContext="shape" transform="translate(.03 -.03)"><title>Payment 3</title><path d="M21.09 15.88H1.04L0 14.83V1.11L1.04.06h20.05l1.05 1.05v13.72l-1.05 1.05zm-.44-1.05l.44-.44v-.64H1.04v.64l.45.44h19.16zm.44-4.2V1.57l-.44-.43H1.49l-.45.43v9.06h20.05zM3.17 4.29h3.15v1.05H3.17V4.29zm4.2 0h3.16v1.05H7.37V4.29zm4.21 0h3.16v1.05h-3.16V4.29zm4.21 0h3.15v1.05h-3.15V4.29zM3.13 7.46h3.16v1.05H3.13V7.46zm4.2 0h6.34v1.05H7.33V7.46z" class="st1"/></g></g></svg>