<svg xmlns="http://www.w3.org/2000/svg" xmlns:v="http://schemas.microsoft.com/visio/2003/SVGExtensions/" width="35.49" height="28.407" viewBox="0 0 26.6173 21.3052" color-interpolation-filters="sRGB" class="st2"><v:documentProperties v:langID="1044" v:metric="true" v:viewMarkup="false"/><style><![CDATA[
		.st1 {fill:#000000;stroke:none;stroke-linecap:butt;stroke-width:0.0283464}
		.st2 {fill:none;fill-rule:evenodd;font-size:12px;overflow:visible;stroke-linecap:square;stroke-miterlimit:3}
	]]></style><g v:mID="0" v:index="1" v:groupContext="foregroundPage"><title>Page-1</title><v:pageProperties v:drawingScale=".039" v:pageScale=".039" v:drawingUnits="24" v:shadowOffsetX="8.504" v:shadowOffsetY="-8.504"/><g id="shape15-1" v:mID="15" v:groupContext="shape" transform="translate(.028 -.028)"><title>Payment 2</title><path d="M8.05 4.71v2.65h.68v-.32l.25-.38.34.7h.74l-.65-1.23.9-1.42h-.73l-.84 1.32h-.01V4.71h-.68zM0 .06h20.59v7.3h-1.34V3.71c-1.27 0-2.31-1.05-2.31-2.33H3.65c0 1.28-1.04 2.33-2.31 2.33v5.31c1.27 0 2.31 1.04 2.31 2.32h1.67v1.33H0V.06zm25.23 18.58c0 .74-.6 1.33-1.33 1.33H9.3c-.73 0-1.33-.59-1.33-1.33h17.26zM9.3 12.01h2.65v1.32H9.3v-1.32zm3.99 0h2.65v1.32h-2.65v-1.32zm3.97 0h2.66v1.32h-2.66v-1.32zm3.98 0h2.66v1.32h-2.66v-1.32zM9.3 9.35h14.6c.73 0 1.33.6 1.33 1.33v5.31H7.97v-5.31c0-.73.6-1.33 1.33-1.33zm0-1.33h14.6c1.47 0 2.66 1.19 2.66 2.66v7.96c0 1.47-1.19 2.67-2.66 2.67H9.3c-1.46 0-2.66-1.2-2.66-2.67v-7.96c0-1.47 1.2-2.66 2.66-2.66zm1-5.64c1.19 0 2.27.44 3.05 1.16.79.71 1.28 1.72 1.28 2.82 0 .35-.05.68-.14 1h-.69c.11-.32.16-.65.16-1 0-.91-.4-1.74-1.05-2.33-.67-.61-1.59-.99-2.61-.99-1.01 0-1.94.38-2.6.99-.66.59-1.07 1.42-1.07 2.33 0 .35.06.68.17 1h-.69c-.09-.32-.14-.65-.14-1 0-1.1.49-2.11 1.28-2.82.78-.72 1.86-1.16 3.05-1.16zm.92 4.98v-.74h.36c.27 0 .38.16.4.42l.01.32h.66c-.01-.67-.08-.91-.53-.97v-.01c.37-.08.55-.38.55-.82 0-.57-.33-.85-.88-.85h-1.23v2.65h.66zm0-2.17h.32c.31 0 .47.16.47.47 0 .35-.18.49-.51.49h-.28v-.96z" class="st1"/></g></g></svg>