<svg xmlns="http://www.w3.org/2000/svg" xmlns:v="http://schemas.microsoft.com/visio/2003/SVGExtensions/" width=".37in" height=".265in" viewBox="0 0 26.618 19.0707" color-interpolation-filters="sRGB" class="st2"><v:documentProperties v:langID="1033" v:metric="true" v:viewMarkup="false"/><style type="text/css"><![CDATA[
		.st1 {fill:#000000;stroke:none;stroke-linecap:butt;stroke-width:0.0286625}
		.st2 {fill:none;fill-rule:evenodd;font-size:12px;overflow:visible;stroke-linecap:square;stroke-miterlimit:3}
	]]></style><g v:mID="0" v:index="1" v:groupContext="foregroundPage"><title>Page-1</title><v:pageProperties v:drawingScale=".039" v:pageScale=".039" v:drawingUnits="24" v:shadowOffsetX="8.504" v:shadowOffsetY="-8.504"/><g id="shape11-1" v:mID="11" v:groupContext="shape" transform="translate(.029 -.029)"><title>Payment 1</title><path d="M19.29 15.64l-.89-.89c-.18.18-.4.29-.62.4-.22.11-.47.15-.73.15-.5 0-1.01-.22-1.34-.55-.18-.21-.33-.47-.43-.72h2.43v-1.27h-2.43c.07-.29.25-.55.43-.73.33-.33.84-.54 1.34-.54.26 0 .51.03.73.14.22.07.44.22.62.4l.9-.91c-.29-.29-.65-.54-1.01-.69-.37-.18-.8-.25-1.2-.25-.87 0-1.67.36-2.25.94-.58.58-.94 1.38-.94 2.25 0 .87.36 1.67.94 2.25.58.58 1.38.95 2.25.95.4 0 .8-.11 1.2-.26.35-.14.71-.39 1-.67zm0 0l.01.02v-.04c0 .01-.01.02-.01.02zm-7.93-6.69h11.39c0 1.38 1.13 2.54 2.54 2.54v3.81c-1.38 0-2.54 1.12-2.54 2.54H11.36c0-1.38-1.13-2.54-2.54-2.54v-3.81c1.38 0 2.54-1.13 2.54-2.54zM7.58 7.68v11.39h18.98V7.68H7.58zM6.31 3.87v1.27h2.54V3.87H6.31zm3.81 0v1.27h2.54V3.87h-2.54zm3.81 0v1.27h2.54V3.87h-2.54zM2.54.06v.03C1.12.09 0 1.25 0 2.63v7.59c0 1.41 1.16 2.54 2.54 2.54h3.81v-1.27H2.54c-.69 0-1.27-.58-1.27-1.27h5.08V7.68H1.27V2.6c0-.69.58-1.27 1.27-1.27h13.93c.69 0 1.27.58 1.27 1.27v3.81h1.27V2.6c0-1.42-1.16-2.54-2.54-2.54H2.54zm0 3.81v1.27h2.54V3.87H2.54z" class="st1"/></g></g></svg>