<svg xmlns="http://www.w3.org/2000/svg" xmlns:v="http://schemas.microsoft.com/visio/2003/SVGExtensions/" width=".296in" height=".335in" viewBox="0 0 21.3172 24.1518" color-interpolation-filters="sRGB" class="st2"><v:documentProperties v:langID="1033" v:metric="true" v:viewMarkup="false"/><style type="text/css"><![CDATA[
		.st1 {fill:#000000;stroke:none;stroke-linecap:butt;stroke-width:0.0286625}
		.st2 {fill:none;fill-rule:evenodd;font-size:12px;overflow:visible;stroke-linecap:square;stroke-miterlimit:3}
	]]></style><g v:mID="0" v:index="1" v:groupContext="foregroundPage"><title>Page-1</title><v:pageProperties v:drawingScale=".039" v:pageScale=".039" v:drawingUnits="24" v:shadowOffsetX="8.504" v:shadowOffsetY="-8.504"/><g id="shape23-1" v:mID="23" v:groupContext="shape" transform="translate(.029 -.029)"><title>PC</title><path d="M.65.06h20v13.95h-7.49v1.27h3.76v1.28H4.41v-1.28h3.76v-1.27H.68V.06H.65zM1.9 17.79h17.5l1.86 4.76v1.6H0v-1.6l1.86-4.76h.04zm.86.62l-.21.62h1.11l.18-.62H2.76zm1.22.62h1.04l.14-.62h-1l-.18.62zm1.36 0h1.04l.11-.62h-1l-.15.62zm1.36 0h1.04l.08-.62H6.81l-.11.62zm1.37 0h1.04l.03-.62h-1l-.07.62zm1.36 0h1.15v-.62H9.46l-.03.62zm1.47 0h1.18l-.03-.62H10.9v.62zm1.47 0h1.04l-.07-.62h-1.01l.04.62zm1.36 0h1.04l-.11-.62h-1l.07.62zm1.36 0h1.04l-.14-.62h-1l.1.62zm1.37 0h1.04l-.18-.62h-1.01l.15.62zm1.36 0h1.07l-.21-.62h-1.04l.18.62zm-15.27.32l-.22.62h1.18l.18-.62H2.55zm1.29.62h1.07l.15-.62H4.02l-.18.62zm1.39 0h1.08l.11-.62H5.38l-.15.62zm1.4 0h1.08l.07-.62H6.74l-.11.62zm1.4 0h1.08l.03-.62H8.1l-.07.62zm1.4 0h1.18v-.62H9.46l-.03.62zm1.5 0h1.22l-.03-.62h-1.19v.62zm1.55 0h1.07l-.07-.62h-1.04l.04.62zm1.39 0h1.08l-.11-.62H13.8l.07.62zm1.4 0h1.08l-.15-.62h-1.03l.1.62zm1.4 0h1.08l-.18-.62h-1.04l.14.62zm1.4 0h1.15l-.22-.62h-1.11l.18.62zm-15.85.33l-.21.62h1.25l.18-.62H2.22zm1.37.62H4.7l.14-.62H3.73l-.18.62h.04zm1.43 0h1.15l.1-.62H5.16l-.14.62zm1.43 0H7.6l.07-.62H6.56l-.11.62zm1.44 0h1.14l.04-.62H7.96l-.07.62zm1.43 0h1.26v-.62H9.36l-.04.62zm1.58 0h1.29l-.04-.62H10.9v.62zm1.61 0h2.58l-.1-.62h-2.51l.03.62zm2.91 0h1.14l-.14-.62h-1.11l.11.62zm1.43 0h1.11l-.18-.62h-1.11l.14.62h.04zm1.43 0h1.22l-.21-.62h-1.15l.18.62h-.04zm-16.42.32l-.21.62h1.29l.18-.62H1.86zm1.4.62h1.19l.14-.62H3.44l-.18.62zm1.51 0h1.18l.11-.62H4.91l-.14.62zm1.5 0h1.19l.07-.62H6.38l-.11.62zm1.51 0h1.18l.04-.62H7.85l-.07.62zm1.51 0h1.32v-.62H9.36l-.04.62h-.03zm1.61 0h1.33l-.04-.62H10.9v.62zm1.65 0h1.18l-.07-.62h-1.15l.04.62zm1.5 0h1.19l-.11-.62h-1.15l.07.62zm1.51 0h1.18l-.14-.62h-1.15l.11.62zm1.51 0h1.18l-.18-.62h-1.15l.15.62zm1.5 0h1.29l-.21-.62h-1.22l.18.62h-.04zm-16.99.33l-.22.62h1.36l.18-.62H1.58zm1.47.62h1.22l.14-.62H3.23l-.18.62zm1.54 0h7.71l-.04-.62H4.73l-.14.62zm8.03 0h1.22l-.07-.62h-1.22l.03.62h.04zm3.08 0h1.22l-.14-.62H15.6l.1.62zm1.54 0h1.22l-.18-.62H17.1l.14.62zm1.55 0h1.36l-.22-.62h-1.29l.18.62h-.03zM1.97 1.26h17.5v11.41H1.97V1.26z" class="st1"/></g></g></svg>