<svg xmlns="http://www.w3.org/2000/svg" xmlns:v="http://schemas.microsoft.com/visio/2003/SVGExtensions/" width=".257in" height=".366in" viewBox="0 0 18.4825 26.3345" color-interpolation-filters="sRGB" class="st2"><v:documentProperties v:langID="1033" v:metric="true" v:viewMarkup="false"/><style type="text/css"><![CDATA[
		.st1 {fill:#000000;stroke:none;stroke-linecap:butt;stroke-width:0.0286625}
		.st2 {fill:none;fill-rule:evenodd;font-size:12px;overflow:visible;stroke-linecap:square;stroke-miterlimit:3}
	]]></style><g v:mID="0" v:index="1" v:groupContext="foregroundPage"><title>Page-1</title><v:pageProperties v:drawingScale=".039" v:pageScale=".039" v:drawingUnits="24" v:shadowOffsetX="8.504" v:shadowOffsetY="-8.504"/><g id="shape20-1" v:mID="20" v:groupContext="shape" transform="translate(.029 -.029)"><title>Self-service machine 1</title><path d="M14.43 17.14v7.87h3.96v1.32H0v-1.32h3.96v-7.87H.04V.06h18.39v17.08h-4zm-2.64-2.64v1.32h5.28V1.34H1.28v14.48h5.28V14.5H3.92v-1.32h10.51v1.32h-2.64zm0 2.64v1.28H6.56v-1.28H5.24v7.87h7.87v-7.87h-1.32zM7.84 14.5v2.64h2.63V14.5H7.84zm3.95-6.56h2.64V6.62h-2.64v1.32zm2.64 1.32h-2.64v1.32h2.64V9.26zM11.79 5.3h2.64V3.98h-2.64V5.3zm0-2.64h3.92v9.16H2.64V2.66h9.15zm-1.32 1.32H3.92v6.56h6.55V3.98z" class="st1"/></g></g></svg>