<svg xmlns="http://www.w3.org/2000/svg" xmlns:v="http://schemas.microsoft.com/visio/2003/SVGExtensions/" width=".284in" height=".355in" viewBox="0 0 20.4694 25.5718" color-interpolation-filters="sRGB" class="st2"><v:documentProperties v:langID="1033" v:metric="true" v:viewMarkup="false"/><style type="text/css"><![CDATA[
		.st1 {fill:#000000;stroke:none;stroke-linecap:butt;stroke-width:0.0299702}
		.st2 {fill:none;fill-rule:evenodd;font-size:12px;overflow:visible;stroke-linecap:square;stroke-miterlimit:3}
	]]></style><g v:mID="0" v:index="1" v:groupContext="foregroundPage"><title>Page-1</title><v:pageProperties v:drawingScale=".039" v:pageScale=".039" v:drawingUnits="24" v:shadowOffsetX="8.504" v:shadowOffsetY="-8.504"/><g id="shape21-1" v:mID="21" v:groupContext="shape" transform="translate(.03 -.03)"><title>Self-service machine 2</title><path d="M.04.06h20.37v22.95h-6.37v2.56H6.38v-2.56H0V.06h.04zM1.3 16.64h17.82v5.07h-5.08v-1.25h2.56V17.9H3.82v2.56h2.56v1.25H1.3v-5.07zm0-15.28h17.82v12.11c0 1.07-.87 1.91-1.91 1.91h-14c-1.07 0-1.91-.88-1.91-1.91V1.36zm1.26 1.26h15.26v11.46H2.56V2.62zm1.26 1.26h7.63v8.94H3.82V3.88zm8.92 0h3.82v1.26h-3.82V3.88zm0 2.56h3.82v1.27h-3.82V6.44zm0 2.55h3.82v1.26h-3.82V8.99zm0 2.56h3.82v1.27h-3.82v-1.27zM7.66 19.2h5.08v5.07H7.66V19.2z" class="st1"/></g></g></svg>