<svg xmlns="http://www.w3.org/2000/svg" xmlns:v="http://schemas.microsoft.com/visio/2003/SVGExtensions/" width=".371in" height=".297in" viewBox="0 0 26.7056 21.4048" color-interpolation-filters="sRGB" class="st2"><v:documentProperties v:langID="1033" v:metric="true" v:viewMarkup="false"/><style type="text/css"><![CDATA[
		.st1 {fill:#000000;stroke:none;stroke-linecap:butt;stroke-width:0.0299702}
		.st2 {fill:none;fill-rule:evenodd;font-size:12px;overflow:visible;stroke-linecap:square;stroke-miterlimit:3}
	]]></style><g v:mID="0" v:index="1" v:groupContext="foregroundPage"><title>Page-1</title><v:pageProperties v:drawingScale=".039" v:pageScale=".039" v:drawingUnits="24" v:shadowOffsetX="8.504" v:shadowOffsetY="-8.504"/><g id="shape36-1" v:mID="36" v:groupContext="shape" transform="translate(.03 -.03)"><title>Service desk 1</title><path d="M10.39 11.87C9.47 11 8.66 9.82 8.44 8.38l-.42-2.75C7.54 2.62 10.39.06 13.31.06c2.9 0 5.75 2.56 5.27 5.57l-.42 2.75c-.22 1.44-1.02 2.62-1.95 3.49h.06c3.36.83 6.12 3.17 6.12 6.94v.45h4.26v2.14H0v-2.14h4.26v-.45c0-3.8 2.74-6.11 6.1-6.94h.07-.04zm2.92.51c.64-.09 1.6-.77 2.05-1.15.88-.77 1.59-1.83 1.75-3.01l.41-2.75c.35-2.37-1.97-4.35-4.21-4.35-2.28 0-4.61 1.98-4.23 4.35l.42 2.75c.19 1.18.89 2.21 1.76 3.01.45.38 1.41 1.06 2.05 1.15zm2.84.55h-1.37c-.32.16-.61.28-.86.38l.86 5.95h6.55v-.45c0-3.19-2.27-5.11-5.15-5.88h-.03zm-3.42.38c-.26-.1-.54-.22-.86-.38h-1.38c-2.88.77-5.18 2.69-5.18 5.88v.45h6.56l.86-5.95z" class="st1"/></g></g></svg>