<svg xmlns="http://www.w3.org/2000/svg" xmlns:v="http://schemas.microsoft.com/visio/2003/SVGExtensions/" width="34.054" height="27.201" viewBox="0 0 25.5402 20.4004" color-interpolation-filters="sRGB" class="st2"><v:documentProperties v:langID="1044" v:metric="true" v:viewMarkup="false"/><style><![CDATA[
		.st1 {fill:#000000;stroke:none;stroke-linecap:butt;stroke-width:0.0283464}
		.st2 {fill:none;fill-rule:evenodd;font-size:12px;overflow:visible;stroke-linecap:square;stroke-miterlimit:3}
	]]></style><g v:mID="0" v:index="1" v:groupContext="foregroundPage"><title>Page-1</title><v:pageProperties v:drawingScale=".039" v:pageScale=".039" v:drawingUnits="24" v:shadowOffsetX="8.504" v:shadowOffsetY="-8.504"/><g id="shape18-1" v:mID="18" v:groupContext="shape"><title>Shopping 1</title><path d="M6.94 13.84l-.4 1.4c-.04.11-.09.22-.16.33l-2.84 3.97c-.3.43-.76.7-1.25.78-.48.08-1-.02-1.42-.33-.44-.31-.71-.76-.78-1.24-.09-.49.01-1 .32-1.44l2.56-3.57c.23-.83.41-1.64.59-2.46.05-.21.1-.41.14-.62l1-4.36c0-.02 0-.04.01-.06.15-.65.53-1.2 1.03-1.57-.29-.42-.46-.93-.46-1.48v-.54c0-.72.3-1.37.77-1.85C6.53.32 7.18.03 7.89.03c.73 0 1.38.29 1.85.77.48.47.77 1.12.77 1.85v.54c0 .72-.29 1.38-.77 1.85-.05.05-.09.1-.15.14.52.53.92 1.18 1.24 1.71l.07.1 2.55 2.3c.04.04.05.06.06.07.18.17.31.37.41.58h1.71l.09.44.14.66h9.65l-.15.67-1.1 4.68-.11.42h-7.09l.21 1.02c.04.02.07.05.11.09h5.25c.18-.17.41-.28.67-.28.53 0 .96.44.96.97s-.43.96-.96.96c-.38 0-.71-.23-.87-.55h-4.86c-.15.32-.48.55-.87.55-.53 0-.96-.43-.96-.96 0-.33.16-.62.4-.79l-1.4-6.78h-.66c-.06.33-.2.66-.46.94 0 0-.02.01-.03.03l-.01.01c-.35.39-.84.6-1.33.62-.49.02-.99-.13-1.38-.49L9.69 11.1l1.39 1.96c.16.19.25.44.25.71v4.66c0 .52-.21 1-.56 1.35h-.01v.01c-.35.35-.82.56-1.35.56-.53 0-1.02-.21-1.36-.56-.35-.35-.57-.83-.57-1.36v-3.81l-.54-.78zm9.6.5h7.07l.19-.83h-7.43l.17.83zm6.94.55h-6.82l.17.82h6.45l.2-.82zm-7.22-1.92h7.67l.19-.83h-8.03l.17.83zM8.58 5.72c-.22.06-.45.09-.69.09-.48 0-.94-.13-1.33-.37-.38.22-.68.59-.78 1.05L4.77 10.9c-.25 1.09-.47 2.19-.78 3.27l-.01.05-2.67 3.73c-.26.37-.18.88.19 1.15.37.26.89.18 1.15-.2l2.83-3.97.48-1.66c.08-.33.33-.64.66-.75.45-.15.85.17 1.1.53l.86 1.23v4.15c0 .45.37.82.83.82.46 0 .82-.37.82-.82v-4.66l-2.06-2.94.44-2.19 3 2.7c.33.29.85.27 1.16-.06l.01-.01c.33-.35.28-.85-.07-1.16l-2.66-2.4-.03-.03c-.35-.57-.84-1.43-1.44-1.96zm.83-2.94v.41c0 .84-.68 1.52-1.52 1.52-.82 0-1.51-.68-1.51-1.52v-.41H9.41z" class="st1"/></g></g></svg>