<svg xmlns="http://www.w3.org/2000/svg" xmlns:v="http://schemas.microsoft.com/visio/2003/SVGExtensions/" width=".355in" height=".269in" viewBox="0 0 25.5691 19.3329" color-interpolation-filters="sRGB" class="st2"><v:documentProperties v:langID="1033" v:metric="true" v:viewMarkup="false"/><style type="text/css"><![CDATA[
		.st1 {fill:#000000;stroke:none;stroke-linecap:butt;stroke-width:0.0286625}
		.st2 {fill:none;fill-rule:evenodd;font-size:12px;overflow:visible;stroke-linecap:square;stroke-miterlimit:3}
	]]></style><g v:mID="0" v:index="1" v:groupContext="foregroundPage"><title>Page-1</title><v:pageProperties v:drawingScale=".039" v:pageScale=".039" v:drawingUnits="24" v:shadowOffsetX="8.504" v:shadowOffsetY="-8.504"/><g id="shape30-1" v:mID="30" v:groupContext="shape" transform="translate(.029 -.029)"><title>Shop counter 1</title><path d="M17.25 6.51h6.98v5.12h-2.52v1.29h2.52v5.12h1.28v1.29H0v-1.29h2.56v-2.17c0-3.21 1.24-4.83 4.31-5.53h.29C6.4 9.6 5.7 8.61 5.52 7.39l-.37-2.65C4.82 2.19 7.13.06 9.58.06c2.44 0 4.75 2.13 4.42 4.68l-.37 2.65c-.14 1.22-.84 2.21-1.64 2.95h.29c1.94.44 3.11 1.25 3.77 2.58h3.1v-1.29h-2.52V6.51h.62zm-4.46 11.57h10.2v-3.87H12.76v3.87h.03zm-8.92 0h7.64v-5.12h3.04c-.51-.63-1.28-1.04-2.38-1.29H7.05c-2.26.55-3.18 1.62-3.18 4.24v2.17zm7.2-8.55c.66-.59 1.21-1.4 1.36-2.29l.36-2.65c.26-1.77-1.53-3.21-3.14-3.21-1.65 0-3.44 1.44-3.14 3.21l.36 2.65c.15.89.7 1.7 1.35 2.29 1.21 1.1 1.69 1.1 2.93 0h-.08zM23.03 7.8h-5.12v2.58h5.12V7.8z" class="st1"/></g></g></svg>