<svg xmlns="http://www.w3.org/2000/svg" xmlns:v="http://schemas.microsoft.com/visio/2003/SVGExtensions/" width=".355in" height=".276in" viewBox="0 0 25.5718 19.9025" color-interpolation-filters="sRGB" class="st2"><v:documentProperties v:langID="1033" v:metric="true" v:viewMarkup="false"/><style type="text/css"><![CDATA[
		.st1 {fill:#000000;stroke:none;stroke-linecap:butt;stroke-width:0.0299702}
		.st2 {fill:none;fill-rule:evenodd;font-size:12px;overflow:visible;stroke-linecap:square;stroke-miterlimit:3}
	]]></style><g v:mID="0" v:index="1" v:groupContext="foregroundPage"><title>Page-1</title><v:pageProperties v:drawingScale=".039" v:pageScale=".039" v:drawingUnits="24" v:shadowOffsetX="8.504" v:shadowOffsetY="-8.504"/><g id="shape39-1" v:mID="39" v:groupContext="shape" transform="translate(.03 -.03)"><title>Shopping 2</title><path d="M6.88 10.8c0-.04 0-.04-.04-.08L6.1 8.31c0-.03 0-.03-.03-.07l-.75-2.41v-.04l-.71-2.33c0-.04 0-.04-.04-.08l-.64-2.06H.64C.3 1.32 0 1.06 0 .69 0 .36.26.06.64.06h3.74c.26 0 .53.19.6.44l.64 2.12h19.26c.33 0 .63.24.63.62 0 .07 0 .14-.04.22l-.71 2.3c0 .03-.03.07-.03.11l-.72 2.37c0 .04-.03.07-.03.11l-.71 2.37c0 .04-.04.08-.04.11l-.75 2.41c-.08.26-.34.45-.6.45H8.97l.42 1.33c.18-.03.41-.07.63-.07.94 0 1.72.47 2.17 1.21h5.66c.45-.74 1.22-1.21 2.16-1.21 1.38 0 2.51 1.1 2.51 2.47s-1.13 2.48-2.51 2.48-2.5-1.11-2.5-2.48h-4.98c0 1.37-1.12 2.48-2.51 2.48-1.38 0-2.51-1.11-2.51-2.48 0-.71.3-1.34.75-1.78l-.71-2.36c0-.04 0-.04-.04-.07L6.8 10.8h.08zm1.05-.82h14.32l.38-1.22H7.55l.38 1.22zm13.95 1.22H8.34l.37 1.23h12.8l.37-1.23zM6.1 3.87l.33 1.14h17.32l.38-1.14H6.1zm.7 2.4l.38 1.23H23l.38-1.23H6.8z" class="st1"/></g></g></svg>