<svg xmlns="http://www.w3.org/2000/svg" xmlns:v="http://schemas.microsoft.com/visio/2003/SVGExtensions/" width=".332in" height=".332in" viewBox="0 0 23.871 23.871" color-interpolation-filters="sRGB" class="st2"><v:documentProperties v:langID="1033" v:metric="true" v:viewMarkup="false"/><style type="text/css"><![CDATA[
		.st1 {fill:#000000;stroke:none;stroke-linecap:butt;stroke-width:0.0299702}
		.st2 {fill:none;fill-rule:evenodd;font-size:12px;overflow:visible;stroke-linecap:square;stroke-miterlimit:3}
	]]></style><g v:mID="0" v:index="1" v:groupContext="foregroundPage"><title>Page-1</title><v:pageProperties v:drawingScale=".039" v:pageScale=".039" v:drawingUnits="24" v:shadowOffsetX="8.504" v:shadowOffsetY="-8.504"/><g id="shape3-1" v:mID="3" v:groupContext="shape" transform="translate(.03 -.03)"><title>SMS</title><path d="M3.7.06h16.34c2.07 0 3.77 1.69 3.77 3.77v11.28c0 2.07-1.7 3.77-3.77 3.77h-5l-3.13 4.99-3.13-4.99H3.77C1.7 18.88 0 17.18 0 15.11V3.83C0 1.75 1.7.06 3.77.06H3.7zm8.17 21.48l2.45-3.91h5.72c1.39 0 2.53-1.13 2.53-2.52V3.83c0-1.4-1.14-2.53-2.53-2.53H3.7c-1.4 0-2.53 1.13-2.53 2.53v11.28c0 1.39 1.13 2.52 2.53 2.52h5.72l2.45 3.91zM7.46 7.58H4.94v1.24h2.52V12.62H3.7v-1.24h2.52v-1.24H3.7V6.35H7.46v1.23zm12.58 0h-2.51v1.24H20.04V12.62H16.28v-1.24h2.53v-1.24h-2.53V6.35H20.04v1.23zm-7.53 0v5.01h-1.25V7.58h-1.24v5.01H8.78V6.31H15.07v6.28h-1.24V7.58h-1.32z" class="st1"/></g></g></svg>