<svg xmlns="http://www.w3.org/2000/svg" xmlns:v="http://schemas.microsoft.com/visio/2003/SVGExtensions/" width=".339in" height=".355in" viewBox="0 0 24.4353 25.5691" color-interpolation-filters="sRGB" class="st2"><v:documentProperties v:langID="1033" v:metric="true" v:viewMarkup="false"/><style type="text/css"><![CDATA[
		.st1 {fill:#000000;stroke:none;stroke-linecap:butt;stroke-width:0.0286625}
		.st2 {fill:none;fill-rule:evenodd;font-size:12px;overflow:visible;stroke-linecap:square;stroke-miterlimit:3}
	]]></style><g v:mID="0" v:index="1" v:groupContext="foregroundPage"><title>Page-1</title><v:pageProperties v:drawingScale=".039" v:pageScale=".039" v:drawingUnits="24" v:shadowOffsetX="8.504" v:shadowOffsetY="-8.504"/><g id="shape43-1" v:mID="43" v:groupContext="shape" transform="translate(.029 -.029)"><title>Social media interaction</title><path d="M5.77 14.04H0v-2.09c0-1.17.4-2.17 1.07-2.9.55-.62 1.25-1.1 2.02-1.39-.33-.48-.52-1.07-.52-1.8V3.18c0-1.51.85-2.46 1.92-2.87.4-.14.84-.25 1.28-.25.44 0 .89.07 1.29.25 1.07.44 1.91 1.4 1.91 2.87v2.68c0 .73-.18 1.32-.51 1.8.77.33 1.5.77 2.02 1.39.66.77 1.07 1.73 1.07 2.9v2.09H5.77zm12.84 11.53h-5.78v-2.09c0-1.18.41-2.17 1.07-2.9.55-.63 1.25-1.1 2.02-1.4-.33-.48-.51-1.06-.51-1.8V14.7c0-1.5.84-2.46 1.91-2.86.4-.15.84-.26 1.29-.26.44 0 .88.08 1.28.26 1.07.44 1.91 1.4 1.91 2.86v2.68c0 .74-.18 1.32-.51 1.8.77.33 1.51.77 2.02 1.4.66.77 1.07 1.72 1.07 2.9v2.09h-5.77zm1.5-5.47c-.07.04-.14.07-.22.07-.4.15-.84.26-1.28.26-.45 0-.89-.07-1.29-.26-.08-.03-.15-.07-.22-.07h-.11c-.85.22-1.62.66-2.14 1.25-.47.55-.73 1.21-.73 2.09v.84h8.97v-.84c0-.84-.29-1.54-.73-2.09-.52-.59-1.29-1.03-2.14-1.25h-.11zm-3.42-5.47v2.68c0 .88.48 1.43 1.11 1.69.25.11.55.15.81.15.29 0 .55-.04.8-.15.63-.26 1.11-.81 1.11-1.69v-2.68c0-.88-.48-1.43-1.11-1.69-.25-.11-.55-.15-.8-.15-.3 0-.56.04-.81.15-.63.26-1.11.81-1.11 1.69zm-3.86 5.8H5.15V16.61h1.28v2.57h6.4v1.29-.04zM11.55 5.05h7.68V8.87h-1.29V6.3h-6.39V5.01v.04zM7.28 8.57c-.07.04-.15.08-.22.08-.4.14-.85.25-1.29.25-.44 0-.88-.07-1.28-.25-.08-.04-.15-.08-.22-.08h-.12c-.84.22-1.61.66-2.13 1.25-.48.55-.73 1.21-.73 2.09v.85h8.97v-.85c0-.84-.3-1.54-.74-2.09-.51-.59-1.28-1.03-2.13-1.25h-.11zM3.86 3.1v2.68c0 .88.48 1.44 1.1 1.69.26.11.56.15.81.15.3 0 .55-.04.81-.15.63-.25 1.1-.81 1.1-1.69V3.1c0-.88-.47-1.43-1.1-1.68-.26-.11-.55-.15-.81-.15-.29 0-.55.04-.81.15-.62.25-1.1.8-1.1 1.68z" class="st1"/></g></g></svg>