<svg xmlns="http://www.w3.org/2000/svg" xmlns:v="http://schemas.microsoft.com/visio/2003/SVGExtensions/" width=".339in" height=".355in" viewBox="0 0 24.4353 25.5691" color-interpolation-filters="sRGB" class="st2"><v:documentProperties v:langID="1033" v:metric="true" v:viewMarkup="false"/><style type="text/css"><![CDATA[
		.st1 {fill:#000000;stroke:none;stroke-linecap:butt;stroke-width:0.0286625}
		.st2 {fill:none;fill-rule:evenodd;font-size:12px;overflow:visible;stroke-linecap:square;stroke-miterlimit:3}
	]]></style><g v:mID="0" v:index="1" v:groupContext="foregroundPage"><title>Page-1</title><v:pageProperties v:drawingScale=".039" v:pageScale=".039" v:drawingUnits="24" v:shadowOffsetX="8.504" v:shadowOffsetY="-8.504"/><g id="shape7-1" v:mID="7" v:groupContext="shape" transform="translate(.029 -.029)"><title>Social media.20</title><path d="M15.58 19.56l-3.39 6.01-3.39-6.01H4.26C1.92 19.56 0 17.64 0 15.29V4.32C0 1.98 1.92.06 4.26.06h15.86c2.34 0 4.26 1.92 4.26 4.26v10.97c0 2.35-1.92 4.27-4.26 4.27h-4.54zm7.19-16.39c.04-.04.07-.04.11-.07-.49-1.09-1.54-1.82-2.8-1.82H4.23c-1.23 0-2.31.73-2.8 1.82.04.03.07.03.11.07 3.66 2.86 7.12 5.55 10.58 8.25 3.46-2.7 6.91-5.39 10.58-8.25h.07zm.39 1.26l-7.13 5.52 7.13 5.13V4.43zm-.21 11.98c-.04-.03-.11-.03-.14-.07l-7.76-5.59-2.48 1.92c-.21.18-.52.18-.77 0l-2.47-1.92-7.76 5.59c-.03.04-.1.07-.14.07.46 1.12 1.54 1.92 2.83 1.92H9.5l2.65 4.76 2.66-4.76h5.24c1.29 0 2.37-.8 2.83-1.92h.07zM1.22 15.08l7.13-5.13-7.13-5.52v10.65z" class="st1"/></g></g></svg>