<svg xmlns="http://www.w3.org/2000/svg" xmlns:v="http://schemas.microsoft.com/visio/2003/SVGExtensions/" width=".26in" height=".325in" viewBox="0 0 18.7182 23.4336" color-interpolation-filters="sRGB" class="st2"><v:documentProperties v:langID="1033" v:metric="true" v:viewMarkup="false"/><style type="text/css"><![CDATA[
		.st1 {fill:#000000;stroke:none;stroke-linecap:butt;stroke-width:0.0286625}
		.st2 {fill:none;fill-rule:evenodd;font-size:12px;overflow:visible;stroke-linecap:square;stroke-miterlimit:3}
	]]></style><g v:mID="0" v:index="1" v:groupContext="foregroundPage"><title>Page-1</title><v:pageProperties v:drawingScale=".039" v:pageScale=".039" v:drawingUnits="24" v:shadowOffsetX="8.504" v:shadowOffsetY="-8.504"/><g id="shape83-1" v:mID="83" v:groupContext="shape" transform="translate(.029 -.029)"><title>Doctor 2</title><path d="M14.31 12.93c2.61 1.31 4.35 3.68 4.35 6.89v3.61h-1.17v-3.61c0-2.77-1.54-4.85-4.01-5.98-.2.16-.44.33-.67.46v5.72c.67.24 1.17.91 1.17 1.64 0 .97-.77 1.74-1.74 1.74s-1.74-.77-1.74-1.74c0-.77.5-1.4 1.17-1.64v-5.15c-.13.04-.27.1-.4.14-1.17.43-2.54.43-3.75.03-.16-.03-.36-.1-.53-.17v1.61c.57.13 1.07.4 1.47.8.54.54.87 1.27.87 2.07v2.91H8.16v-2.91c0-.46-.2-.9-.5-1.23-.17-.17-.4-.34-.64-.41v.04H5.85v-.04c-.23.11-.47.24-.67.41-.3.3-.5.77-.5 1.23v2.91H3.51v-2.91c0-.8.34-1.53.87-2.07.4-.4.9-.67 1.47-.8V14.3c-.23-.13-.47-.3-.67-.46-2.47 1.1-4.01 3.21-4.01 5.98v3.61H0v-3.61c0-3.18 1.74-5.58 4.35-6.89-.54-.77-.84-1.7-.84-2.81V5.21c0-2.48 1.54-4.05 3.48-4.75.74-.27 1.54-.4 2.34-.4.8 0 1.61.13 2.34.4 1.97.7 3.48 2.27 3.48 4.75v4.91c0 1.11-.3 2.04-.84 2.81zm-.33-7.02H4.65v4.21c0 1.91 1.2 3.11 2.71 3.65.6.2 1.27.33 1.94.33.67 0 1.33-.1 1.94-.33 1.53-.54 2.71-1.74 2.71-3.65V5.91h.03z" class="st1"/></g></g></svg>