<svg xmlns="http://www.w3.org/2000/svg" xmlns:v="http://schemas.microsoft.com/visio/2003/SVGExtensions/" width=".264in" height=".326in" viewBox="0 0 19.0429 23.4857" color-interpolation-filters="sRGB" class="st2"><v:documentProperties v:langID="1033" v:metric="true" v:viewMarkup="false"/><style type="text/css"><![CDATA[
		.st1 {fill:#000000;stroke:none;stroke-linecap:butt;stroke-width:0.0286625}
		.st2 {fill:none;fill-rule:evenodd;font-size:12px;overflow:visible;stroke-linecap:square;stroke-miterlimit:3}
	]]></style><g v:mID="0" v:index="1" v:groupContext="foregroundPage"><title>Page-1</title><v:pageProperties v:drawingScale=".039" v:pageScale=".039" v:drawingUnits="24" v:shadowOffsetX="8.504" v:shadowOffsetY="-8.504"/><g id="shape91-1" v:mID="91" v:groupContext="shape" transform="translate(.029 -.029)"><title>Health secretary 1</title><path d="M6.26.66C7.1.25 8.02.06 8.95.06c6.04 0 5.08 6.04 8.05 10.9l-3.74 1.18c1.73.73 3.07 1.95 3.87 3.55h-1.28c-.64-1.03-1.59-1.82-2.71-2.37l-.67 4.6h-1.32v4.48H6.04l-1.31-9.05c-2.08 1.03-3.64 2.91-3.61 5.63l.03 3.45H0v-3.45c0-3.23 1.85-5.59 4.6-6.78L.86 11.02C3.32 7.03 3.07 2.29 6.23.76l.03-.1zm12.73 18.35v2.24h-2.24v2.24h-2.24v-2.24h-2.24v-2.24h2.24v-2.24h2.24v2.24h2.24zM6.42 15.65l-.44-1.91c.83.57 1.88.83 2.94.83 1.08 0 2.14-.26 2.97-.83l-.45 1.91H6.39h.03zM4.63 8.59c-.12-.89-.35-1.92-.35-2.81 2.69 1.21 6.59 1.25 9.3.03 0 .9-.22 1.89-.35 2.75-.38 2.56-1.37 4.86-4.31 4.86-2.91 0-3.93-2.3-4.32-4.86l.03.03z" class="st1"/></g></g></svg>