<svg xmlns="http://www.w3.org/2000/svg" xmlns:v="http://schemas.microsoft.com/visio/2003/SVGExtensions/" width=".295in" height=".325in" viewBox="0 0 21.2331 23.4336" color-interpolation-filters="sRGB" class="st2"><v:documentProperties v:langID="1033" v:metric="true" v:viewMarkup="false"/><style type="text/css"><![CDATA[
		.st1 {fill:#000000;stroke:none;stroke-linecap:butt;stroke-width:0.0286625}
		.st2 {fill:none;fill-rule:evenodd;font-size:12px;overflow:visible;stroke-linecap:square;stroke-miterlimit:3}
	]]></style><g v:mID="0" v:index="1" v:groupContext="foregroundPage"><title>Page-1</title><v:pageProperties v:drawingScale=".039" v:pageScale=".039" v:drawingUnits="24" v:shadowOffsetX="8.504" v:shadowOffsetY="-8.504"/><g id="shape92-1" v:mID="92" v:groupContext="shape" transform="translate(.029 -.029)"><title>Health secretary 2</title><path d="M8.42.66c.83-.41 1.75-.6 2.68-.6 6.03 0 5.07 6.02 8.03 10.87l-3.73 1.18c1.73.74 3.06 1.95 3.86 3.54h-1.27c-.64-1.02-1.6-1.82-2.71-2.36l-.87 4.59h-1.05v3.35H0v-1.11h2.17v-1.21c0-3.23 1.85-5.59 4.59-6.77l-3.73-1.18C5.49 6.98 5.23 2.26 8.39.73l.03-.07zm12.76 18.31v2.23h-2.24v2.23h-2.23V21.2h-2.23v-2.23h2.23v-2.23h2.23v2.23h2.24zM8.23 20.08l-1.31-6.79c-2.07 1.02-3.67 2.9-3.6 5.62l.03 1.21h4.88v-.04zm.38-4.46l-.45-1.91c.83.57 1.89.83 2.94.83 1.08 0 2.13-.26 2.96-.83l-.44 1.91H8.58h.03zM6.82 8.57c-.12-.89-.35-1.91-.35-2.8 2.68 1.21 6.57 1.24 9.28.03 0 .89-.22 1.88-.35 2.74-.38 2.55-1.37 4.85-4.3 4.85-2.9 0-3.92-2.3-4.31-4.85l.03.03z" class="st1"/></g></g></svg>