<svg xmlns="http://www.w3.org/2000/svg" xmlns:v="http://schemas.microsoft.com/visio/2003/SVGExtensions/" width=".345in" height=".246in" viewBox="0 0 24.8124 17.7444" color-interpolation-filters="sRGB" class="st2"><v:documentProperties v:langID="1033" v:metric="true" v:viewMarkup="false"/><style type="text/css"><![CDATA[
		.st1 {fill:#000000;stroke:none;stroke-linecap:butt;stroke-width:0.0286625}
		.st2 {fill:none;fill-rule:evenodd;font-size:12px;overflow:visible;stroke-linecap:square;stroke-miterlimit:3}
	]]></style><g v:mID="0" v:index="1" v:groupContext="foregroundPage"><title>Page-1</title><v:pageProperties v:drawingScale=".039" v:pageScale=".039" v:drawingUnits="24" v:shadowOffsetX="8.504" v:shadowOffsetY="-8.504"/><g id="shape98-1" v:mID="98" v:groupContext="shape" transform="translate(.029 -.029)"><title>Hospital 4</title><path d="M1.83 7.13h1.75V.06H21.24v7.07h2.33v9.43h1.19v1.18H0v-1.18h1.18V7.13H1.83zm15.92-4.74h1.19v1.18h-1.19V2.39zm-2.36 0h1.18v1.18h-1.18V2.39zm2.36 2.37h1.19v1.18h-1.19V4.76zm-2.36 0h1.18v1.18h-1.18V4.76zM8.32 2.39H9.5v1.18H8.32V2.39zm-2.37 0h1.19v1.18H5.95V2.39zm2.37 2.37H9.5v1.18H8.32V4.76zm-2.37 0h1.19v1.18H5.95V4.76zm7.07-2.37v1.18h1.18v1.19h-1.18v1.18h-1.18V4.76h-1.19V3.57h1.19V2.39h1.18zM4.77 7.13h15.32V1.24H4.77v5.89zm15.35 2.36h1.19v1.19h-1.19V9.49zm-2.37 0h1.19v1.19h-1.19V9.49zm2.37 4.74h1.19v1.18h-1.19v-1.18zm-2.37 0h1.19v1.18h-1.19v-1.18zm2.37-2.37h1.19v1.18h-1.19v-1.18zm-2.37 0h1.19v1.18h-1.19v-1.18zm-2.36-2.37h1.18v1.19h-1.18V9.49zm-2.37 0h1.18v1.19h-1.18V9.49zm-2.37 0h1.19v1.19h-1.19V9.49zm4.74 4.74h1.18v2.36h5.89V8.34H2.4v8.25h5.89v-2.36h1.18v2.36h5.88v-2.36h.04zm-2.37 0h1.18v1.18h-1.18v-1.18zm-2.37 0h1.19v1.18h-1.19v-1.18zm4.74-2.37h1.18v1.18h-1.18v-1.18zm-2.37 0h1.18v1.18h-1.18v-1.18zm-2.37 0h1.19v1.18h-1.19v-1.18zM8.29 9.49h1.18v1.19H8.29V9.49zm-2.37 0H7.1v1.19H5.92V9.49zm-2.37 0h1.18v1.19H3.55V9.49zm2.37 4.74H7.1v1.18H5.92v-1.18zm-2.37 0h1.18v1.18H3.55v-1.18zm4.74-2.37h1.18v1.18H8.29v-1.18zm-2.37 0H7.1v1.18H5.92v-1.18zm-2.37 0h1.18v1.18H3.55v-1.18z" class="st1"/></g></g></svg>