<svg xmlns="http://www.w3.org/2000/svg" xmlns:v="http://schemas.microsoft.com/visio/2003/SVGExtensions/" width=".345in" height=".259in" viewBox="0 0 24.8124 18.6592" color-interpolation-filters="sRGB" class="st2"><v:documentProperties v:langID="1033" v:metric="true" v:viewMarkup="false"/><style type="text/css"><![CDATA[
		.st1 {fill:#000000;stroke:none;stroke-linecap:butt;stroke-width:0.0286625}
		.st2 {fill:none;fill-rule:evenodd;font-size:12px;overflow:visible;stroke-linecap:square;stroke-miterlimit:3}
	]]></style><g v:mID="0" v:index="1" v:groupContext="foregroundPage"><title>Page-1</title><v:pageProperties v:drawingScale=".039" v:pageScale=".039" v:drawingUnits="24" v:shadowOffsetX="8.504" v:shadowOffsetY="-8.504"/><g id="shape96-1" v:mID="96" v:groupContext="shape" transform="translate(.029 -.029)"><title>Hospital 2</title><path d="M3.06 7.49h9.32V.06H23.51v17.35h1.25v1.25H0v-1.25h2.49V7.49h.6-.03zm16.75 0h1.25v1.25h-1.25V7.49zm-2.49 0h1.25v1.25h-1.25V7.49zm-2.49 0h1.25v1.25h-1.25V7.49zm4.98 7.43h1.25v1.25h-1.25v-1.25zm-2.49 0h1.25v2.49h3.73V1.27h-8.68v16.14h3.74v-2.49h-.04zm-2.49 0h1.25v1.25h-1.25v-1.25zm4.98-2.49h1.25v1.25h-1.25v-1.25zm-2.49 0h1.25v1.25h-1.25v-1.25zm-2.49 0h1.25v1.25h-1.25v-1.25zm4.98-2.48h1.25v1.24h-1.25V9.95zm-2.49 0h1.25v1.24h-1.25V9.95zm-2.49 0h1.25v1.24h-1.25V9.95zm-4.98 4.97h1.25v1.25H9.85v-1.25zm-2.49 0h1.25v2.49h3.73V8.74H3.66v8.67H7.4v-2.49h-.04zm-2.49 0h1.25v1.25H4.87v-1.25zm4.98-2.49h1.25v1.25H9.85v-1.25zm-2.49 0h1.25v1.25H7.36v-1.25zm-2.49 0h1.25v1.25H4.87v-1.25zm4.98-2.48h1.25v1.24H9.85V9.95zm-2.49 0h1.25v1.24H7.36V9.95zm-2.49 0h1.25v1.24H4.87V9.95zm13.66-7.44v1.25h1.25V5h-1.25v1.25h-1.24V5h-1.25V3.76h1.25V2.51h1.24z" class="st1"/></g></g></svg>