<svg xmlns="http://www.w3.org/2000/svg" xmlns:v="http://schemas.microsoft.com/visio/2003/SVGExtensions/" width=".247in" height=".329in" viewBox="0 0 17.7915 23.7143" color-interpolation-filters="sRGB" class="st2"><v:documentProperties v:langID="1033" v:metric="true" v:viewMarkup="false"/><style type="text/css"><![CDATA[
		.st1 {fill:#000000;stroke:none;stroke-linecap:butt;stroke-width:0.0286625}
		.st2 {fill:none;fill-rule:evenodd;font-size:12px;overflow:visible;stroke-linecap:square;stroke-miterlimit:3}
	]]></style><g v:mID="0" v:index="1" v:groupContext="foregroundPage"><title>Page-1</title><v:pageProperties v:drawingScale=".039" v:pageScale=".039" v:drawingUnits="24" v:shadowOffsetX="8.504" v:shadowOffsetY="-8.504"/><g id="shape80-1" v:mID="80" v:groupContext="shape" transform="translate(.029 -.029)"><title>Patient 3</title><path d="M5.79 16.56v2.74l2.73-2.74H5.79zM6.85.09l3.59 4.79.14.18v3.18h1.2v8.32h1.78c1.37 0 2.39.34 3.11 1.06.72.72 1.06 1.75 1.06 3.12v2.97H5.03c-.96 0-1.64-.2-2.12-.65-.48-.48-.68-1.13-.68-2.05V8.24h1.19V6.7L0 3.28l.86-.86 3.59 3.59.17.18v2.02h4.79V5.4L5.96.78l.96-.72-.07.03zm3.69 9.31H3.39v1.2h7.15V9.4zm-7.15 2.4V13h7.15v-1.2H3.39zm0 2.4v1.2h6.33l.86-.86v-.34H3.39zm0 2.39v4.45c0 .24 0 .45.03.62l1.13-1.13v-3.94H3.36h.03zm.89 5.93c.2.03.44.06.72.06h1.95v-2.73l-2.67 2.67zm3.87.06h1.2v-5.13l-1.2 1.2v3.93zm2.39 0h1.2v-4.79h-1.16v4.79h-.04zm2.4 0h1.2v-4.75c-.17-.04-.38-.04-.58-.04h-.58v4.79h-.04zm2.4 0h1.2v-1.81c0-1.03-.24-1.78-.72-2.26-.14-.14-.31-.24-.48-.34v4.41z" class="st1"/></g></g></svg>