<svg xmlns="http://www.w3.org/2000/svg" xmlns:v="http://schemas.microsoft.com/visio/2003/SVGExtensions/" width=".312in" height=".329in" viewBox="0 0 22.4655 23.7143" color-interpolation-filters="sRGB" class="st2"><v:documentProperties v:langID="1033" v:metric="true" v:viewMarkup="false"/><style type="text/css"><![CDATA[
		.st1 {fill:#000000;stroke:none;stroke-linecap:butt;stroke-width:0.0286625}
		.st2 {fill:none;fill-rule:evenodd;font-size:12px;overflow:visible;stroke-linecap:square;stroke-miterlimit:3}
	]]></style><g v:mID="0" v:index="1" v:groupContext="foregroundPage"><title>Page-1</title><v:pageProperties v:drawingScale=".039" v:pageScale=".039" v:drawingUnits="24" v:shadowOffsetX="8.504" v:shadowOffsetY="-8.504"/><g id="shape79-1" v:mID="79" v:groupContext="shape" transform="translate(.029 -.029)"><title>Patient 2</title><path d="M.07 23.71c0-1.71.75-3.28 1.96-4.42.9-.86 2.07-1.46 3.36-1.68-.97-1.07-1.61-2.49-1.61-4.31V6.73c0-3.21 1.96-5.28 4.46-6.17.97-.36 2-.5 3-.5 1.03 0 2.07.18 3 .5 2.49.89 4.46 2.96 4.46 6.17v6.57c0 1.78-.61 3.24-1.61 4.31 1.29.25 2.46.86 3.36 1.68 1.21 1.14 1.96 2.68 1.96 4.42h-1.25c0-1.35-.61-2.6-1.57-3.49-.96-.93-2.32-1.47-3.82-1.47h-.07c-.46.29-.96.54-1.5.72-.96.36-2 .5-3 .5-1.03 0-2.07-.18-2.99-.5-.54-.18-1.04-.43-1.5-.72h-.07c-1.5 0-2.82.58-3.82 1.47-.96.89-1.57 2.14-1.57 3.49H0h.07zM5.92 3.8h10.71c-.68-.96-1.64-1.64-2.79-2.07-.82-.28-1.71-.42-2.6-.42-.89 0-1.78.14-2.61.42-1.1.4-2.1 1.07-2.78 2.07h.07zm11.31 1.25H5.28c-.18.5-.25 1.07-.25 1.72v.67l12.24-2.21-.04-.14v-.04zm.25 1.36L5.03 8.66v2.39l12.45-3.39V6.41zm0 2.57L5.03 12.37v.93c0 2.6 1.61 4.28 3.64 4.99.82.29 1.71.43 2.61.43.89 0 1.78-.14 2.6-.43 2.03-.71 3.64-2.39 3.64-4.99V8.98h-.04z" class="st1"/></g></g></svg>