<svg xmlns="http://www.w3.org/2000/svg" xmlns:v="http://schemas.microsoft.com/visio/2003/SVGExtensions/" width=".272in" height=".304in" viewBox="0 0 19.569 21.8722" color-interpolation-filters="sRGB" class="st2"><v:documentProperties v:langID="1033" v:metric="true" v:viewMarkup="false"/><style type="text/css"><![CDATA[
		.st1 {fill:#000000;stroke:none;stroke-linecap:butt;stroke-width:0.0286625}
		.st2 {fill:none;fill-rule:evenodd;font-size:12px;overflow:visible;stroke-linecap:square;stroke-miterlimit:3}
	]]></style><g v:mID="0" v:index="1" v:groupContext="foregroundPage"><title>Page-1</title><v:pageProperties v:drawingScale=".039" v:pageScale=".039" v:drawingUnits="24" v:shadowOffsetX="8.504" v:shadowOffsetY="-8.504"/><g id="shape101-1" v:mID="101" v:groupContext="shape" transform="translate(.029 -.029)"><title>Patient medical record 1</title><path d="M.59.06h18.36v12.63h-6.87v1.15h3.45V15H4.05v-1.16H7.5v-1.15H.63V.06H.59zm1.15 6.87H5.4l.98-1.97c.13-.3.5-.39.76-.26.16.06.26.23.3.36l.65 2.7 1.68-5.04c.1-.29.43-.46.73-.36.16.07.29.2.36.36l1.87 5.6.53-1.06c.1-.19.3-.33.53-.33h4.01V1.18H1.74v5.75zM17.8 8.09h-3.65l-.99 1.97c-.06.13-.2.23-.33.3-.29.09-.62-.07-.72-.37l-1.75-5.26-1.74 5.23c-.07.2-.2.36-.43.43-.29.06-.62-.1-.69-.43l-.75-3.09-.43.85c-.1.23-.3.37-.53.37H1.78v3.45h16.05V8.09h-.03zM1.74 16.11H17.8l1.71 4.31v1.45H0v-1.45l1.71-4.31h.03zm.79.56l-.19.56h1.02l.16-.56h-.99zm1.12.56h.96l.13-.56h-.92l-.17.56zm1.25 0h.96l.1-.56h-.93l-.13.56zm1.25 0h.96l.06-.56h-.92l-.1.56zm1.25 0h.96l.03-.56h-.92l-.07.56zm1.25 0h1.06v-.56H8.69l-.04.56zm1.35 0h1.09l-.03-.56H10v.56zm1.35 0h.96l-.07-.56h-.92l.03.56zm1.25 0h.96l-.1-.56h-.92l.06.56zm1.25 0h.96l-.14-.56h-.92l.1.56zm1.25 0h.96l-.17-.56h-.92l.13.56zm1.25 0h.99l-.2-.56h-.95l.16.56zm-14.01.3l-.2.56h1.08l.17-.56H2.34zm1.18.56h.99l.13-.56h-.95l-.17.56zm1.28 0h.99l.1-.56h-.95l-.14.56zm1.29 0h.98l.07-.56h-.95l-.1.56zm1.28 0h.99l.03-.56h-.95l-.07.56zm1.28 0h1.09v-.56H8.69l-.04.56zm1.39 0h1.11l-.03-.56h-1.08v.56zm1.41 0h.99l-.07-.56h-.95l.03.56zm1.28 0h.99l-.1-.56h-.95l.06.56zm1.29 0H15l-.13-.56h-.95l.1.56zm1.28 0h.99l-.17-.56h-.95l.13.56zm1.28 0h1.06l-.2-.56h-1.02l.16.56zm-14.54.29l-.2.56h1.15l.17-.56H2.04zm1.25.56h1.02l.13-.56H3.42l-.16.56h.03zm1.32 0h1.05l.1-.56H4.74l-.13.56zm1.31 0h1.06l.06-.56H6.02l-.1.56zm1.32 0h1.05l.03-.56H7.3l-.06.56zm1.31 0h1.16v-.56H8.59l-.04.56zm1.45 0h1.19l-.04-.56H10v.56zm1.48 0h2.37l-.1-.56h-2.3l.03.56zm2.67 0h1.05l-.13-.56h-1.02l.1.56zm1.31 0h1.02l-.16-.56H15.3l.13.56h.03zm1.32 0h1.12l-.2-.56h-1.05l.16.56h-.03zm-15.07.3l-.2.56H2.7l.16-.56H1.71zm1.28.56h1.09l.13-.56H3.16l-.17.56zm1.39 0h1.08l.1-.56H4.51l-.13.56zm1.38 0h1.08l.07-.56H5.86l-.1.56zm1.38 0h1.09l.03-.56H7.21l-.07.56zm1.38 0h1.22v-.56H8.59l-.04.56h-.03zm1.48 0h1.22l-.03-.56H10v.56zm1.52 0h1.08l-.06-.56h-1.06l.04.56zm1.38 0h1.08l-.09-.56h-1.06l.07.56zm1.38 0h1.09l-.14-.56h-1.05l.1.56zm1.38 0h1.09l-.17-.56h-1.05l.13.56zm1.38 0h1.19l-.2-.56h-1.12l.17.56h-.04zm-15.59.3l-.2.55H2.5l.17-.55H1.45zm1.35.55h1.12l.13-.55H2.96l-.16.55zm1.41 0h7.08l-.04-.55H4.34l-.13.55zm7.37 0h1.12l-.07-.55h-1.11l.03.55h.03zm2.83 0h1.12l-.13-.55h-1.09l.1.55zm1.42 0h1.12l-.17-.55h-1.09l.14.55zm1.41 0h1.25l-.2-.55h-1.18l.16.55h-.03z" class="st1"/></g></g></svg>