<svg xmlns="http://www.w3.org/2000/svg" xmlns:v="http://schemas.microsoft.com/visio/2003/SVGExtensions/" width=".26in" height=".324in" viewBox="0 0 18.7182 23.3584" color-interpolation-filters="sRGB" class="st2"><v:documentProperties v:langID="1033" v:metric="true" v:viewMarkup="false"/><style type="text/css"><![CDATA[
		.st1 {fill:#000000;stroke:none;stroke-linecap:butt;stroke-width:0.0286625}
		.st2 {fill:none;fill-rule:evenodd;font-size:12px;overflow:visible;stroke-linecap:square;stroke-miterlimit:3}
	]]></style><g v:mID="0" v:index="1" v:groupContext="foregroundPage"><title>Page-1</title><v:pageProperties v:drawingScale=".039" v:pageScale=".039" v:drawingUnits="24" v:shadowOffsetX="8.504" v:shadowOffsetY="-8.504"/><g id="shape93-1" v:mID="93" v:groupContext="shape" transform="translate(.029 -.029)"><title>Secretary/receptionist 1</title><path d="M6.54.69C7.41.26 8.38.06 9.35.06c6.31 0 5.3 6.31 8.41 11.38l-3.91 1.24c2.87 1.23 4.81 3.7 4.81 7.07v3.61h-1.17v-3.61c0-2.83-1.57-4.8-3.77-5.87l-1.37 9.44H6.31l-1.37-9.44c-2.17 1.07-3.8 3.04-3.77 5.87l.03 3.61H0v-3.61c0-3.37 1.94-5.84 4.81-7.07L.9 11.44C3.47 7.27 3.2 2.33 6.51.72l.03-.03zm.2 15.66l-.46-2c.86.6 1.97.86 3.07.86 1.13 0 2.23-.26 3.1-.86l-.47 2H6.71h.03zm-.53-3.71c-.7-1-1.14-2.17-1.34-3.64l-.26-1.83c-.07-.37-.07-.74-.07-1.07 1.34.6 3.04.97 4.91.97 1.83 0 3.5-.34 4.8-.94 0 .34-.03.67-.06 1.04L13.92 9c-.23 1.47-.63 2.64-1.33 3.64-.67 1.07-1.91 1.44-3.14 1.44-1.27 0-2.47-.34-3.14-1.44h-.1z" class="st1"/></g></g></svg>